<?xml version="1.0" encoding="utf-8"?>
<!-- Generator: Adobe Illustrator 26.0.1, SVG Export Plug-In . SVG Version: 6.00 Build 0)  -->
<svg version="1.1" id="Layer_1" xmlns="http://www.w3.org/2000/svg" xmlns:xlink="http://www.w3.org/1999/xlink" x="0px" y="0px"
	 viewBox="0 0 483.3 697.2" style="enable-background:new 0 0 483.3 697.2;" xml:space="preserve">
<style type="text/css">
	.st0{fill:#2E2E2E;}
</style>
<g>
	<g>
		<path class="st0" d="M202.9,426.8c-0.7-0.4-1.5-0.2-1.9,0.5c-1.3,2.3-2.8,4.5-4.5,6.6c-0.5,0.6-0.4,1.5,0.2,2
			c0.3,0.2,0.6,0.3,0.9,0.3c0.4,0,0.8-0.2,1.1-0.5c1.8-2.2,3.4-4.5,4.7-7C203.8,428.1,203.6,427.2,202.9,426.8z"/>
		<path class="st0" d="M196.2,406.9c-0.1-0.1-0.2-0.2-0.4-0.3C196,406.7,196.1,406.8,196.2,406.9L196.2,406.9z"/>
		<path class="st0" d="M345.2,252.4c-0.8-0.2-1.5,0.3-1.7,1l-3.4,13.9c-2.8-9-5.7-18.3-8.5-27.7c-0.2-0.8-1-1.2-1.8-1
			c-0.8,0.2-1.2,1-1,1.8c3.3,11.1,6.7,22,10,32.6c0,0,0,0,0,0c1.2,3.8,2.4,7.6,3.6,11.3h3c-1.3-3.9-2.5-7.8-3.8-11.8l4.5-18.5
			C346.4,253.4,346,252.6,345.2,252.4z M399.8,284.4v-91.5c0-42.2-16.5-82-46.3-111.8c-29.9-29.9-69.6-46.3-111.8-46.3
			c-42.2,0-82,16.4-111.8,46.3c-29.9,29.9-46.3,69.6-46.3,111.8v91.5h3.6v-48c2-0.3,3.9-0.5,5.9-0.7c5-0.6,10.8-1.2,17-1.2
			c8.5,0,17.9,1.2,27.5,5.5c3.3,1.5,6.4,3.2,9.5,5c6,3.4,12.9,7.2,24.3,11c2,0.6,3.9,1.2,5.9,1.8c-0.6,0.2-1.1,0.5-1.6,0.8
			c-0.2,0.1-0.4,0.2-0.6,0.4c-0.2,0.1-0.4,0.2-0.6,0.4c-0.2,0.1-0.4,0.2-0.6,0.4c0,0-0.1,0.1-0.1,0.1c-0.2,0.1-0.5,0.3-0.8,0.5
			c-0.6,0.4-1.3,0.8-1.9,1.3c-1.7,1.3-10.3,8.2-12.8,19.9c-0.2,0.9-0.4,2-0.6,3.1c-0.3,2.2-0.3,4.9,0.6,7.9c0.1,0.3,0.2,0.6,0.3,0.9
			c0,0.1,0,0.1,0.1,0.2c0.1,0.3,0.2,0.5,0.3,0.8c0.1,0.3,0.2,0.6,0.4,0.8c0.2,0.4,0.4,0.8,0.6,1.1c0.1,0.2,0.3,0.5,0.4,0.7
			c0.2,0.3,0.4,0.6,0.6,0.8c0,0,0.1,0.1,0.1,0.1c-5.7,2.5-11.6,4.8-17.5,6.8c0,0,0,0-0.1,0c-7.5,2.5-15.1,4.6-22.8,6.2
			c-2.8,0.6-5.5,1.1-8.3,1.6c-9.3,1.6-17.6,3-25.2,3.5v-5.1h-3.6v91.1c0,42.2,16.5,82,46.3,111.8c7.3,7.3,15.1,13.7,23.4,19.4
			c0.9,0.6,1.9,1.3,2.8,1.9c25.3,16.3,54.8,25.1,85.6,25.1c9.8,0,19.4-0.9,28.8-2.6c1-0.2,1.9-0.3,2.8-0.5c3.8-0.8,7.5-1.7,11.2-2.7
			c0.9-0.3,1.8-0.5,2.8-0.8c1.2-0.3,2.3-0.7,3.5-1.1c21.2-6.9,40.8-18.3,57.5-33.6c1-0.9,2-1.9,3-2.8c0.7-0.7,1.4-1.4,2.1-2.1
			c1.3-1.3,2.6-2.6,3.8-4c4.2-4.5,8.2-9.3,11.8-14.2c0.7-0.9,1.4-1.9,2-2.8c4.4-6.3,8.4-12.9,11.8-19.7c3.5-6.9,6.5-14.1,8.9-21.5
			c3.2-9.6,5.4-19.6,6.7-29.7c0.6-4.9,1-9.9,1.2-15c0-1.7,0.1-3.3,0.1-5v-91h-3.6v8.6c-0.6-3-1.2-5.7-1.8-8.6h-2.9
			c1.5,6.9,2.8,13,4.7,23.4v67.7c0,6.7-0.4,13.3-1.2,19.7l-1.8,0.8c-0.1,0.1-0.2,0.1-0.3,0.2c-4.1,0.1-8.3,0.1-12.7,0.1
			c1.8-6.3,3.6-12.9,5.4-19.8c0.1-0.4,0-0.9-0.2-1.2c-0.3-0.3-0.7-0.6-1.1-0.6c-11.2-0.3-21.7-0.5-31.6-0.7c1-3.5,1.6-8,0.6-16.2
			c-1-8.1-2.6-10.8-4.4-13.6c0.1-0.1,0.1-0.2,0.2-0.3c5.8-12.5,8.6-25.4,8.4-38.2c-0.1-7.5-1.2-13.5-3.4-21.4
			c-1.3-4.6-3-9.8-5.1-16.3c-0.5-1.6-1.1-3.2-1.6-5c-0.6-1.7-1.1-3.4-1.7-5.1c-1.3-3.9-2.5-7.8-3.8-11.8l4.5-18.5
			c0.2-0.8-0.3-1.5-1-1.7c-0.8-0.2-1.5,0.3-1.7,1l-3.4,13.9c-2.8-9-5.7-18.3-8.5-27.7c-0.2-0.8-1-1.2-1.8-1c-0.8,0.2-1.2,1-1,1.8
			c3.3,11.1,6.7,22,10,32.6c0,0,0,0,0,0c1.2,3.8,2.4,7.6,3.6,11.3c0.7,2,1.3,4,2,6c0.6,1.8,1.1,3.4,1.6,5c2,6.1,3.6,11.1,4.9,15.4
			c2.3,8,3.5,14,3.5,21.4c0.1,12.2-2.5,24.4-7.9,36.4c0,0-0.1,0-0.2,0c-0.1,0-0.1,0-0.2,0c0,0,0,0,0,0c-7.4,1.6-14.8,3.1-22.2,4.3
			c-1-2.6-1.9-4.4-2.5-5.2c-0.9-1.3-2.6-1.7-3.9-0.8c-1.3,0.9-1.7,2.6-0.8,3.9c0.3,0.4,0.8,1.5,1.5,3c-2.3,0.3-4.5,0.7-6.7,1
			c1.1-0.8,2.2-1.7,3.4-2.4c0.4-0.3,0.7-0.7,0.6-1.2l-0.4-9c0-0.4-0.2-0.8-0.5-1c-0.3-0.3-0.7-0.4-1.1-0.3c-6.2,0.9-11.6,3.1-16,6.4
			c-4.1,3.1-6,6.1-8.3,10c-3.9,0.3-7.6,0.6-11.1,0.8c5.9-11.4,11.1-22.7,15.5-33.6c0.6-1.5,1.2-3,1.8-4.5c0.1-0.2,0.1-0.5,0.1-0.7
			c-0.1-0.5-0.1-1-0.2-1.4c0-0.2-0.1-0.4-0.1-0.7c0,0,0-0.1,0-0.2c-0.1-0.6-0.2-1.2-0.3-1.8c-0.1-0.4-0.2-0.9-0.3-1.3
			c-0.1-0.4-0.2-0.8-0.3-1.1c-1.4-5.6-3.6-10.7-6.5-15.2c-0.2-0.3-0.5-0.7-0.7-1c0,0,0,0,0,0c0,0,0,0,0,0c-0.1-0.2-0.2-0.4-0.4-0.5
			c0,0,0,0,0,0c0-0.1-0.1-0.1-0.2-0.2c-0.1-0.1-0.2-0.2-0.3-0.4c-0.1-0.2-0.3-0.3-0.4-0.5c0,0,0,0,0,0c-0.1-0.2-0.3-0.4-0.4-0.6
			c-0.3-0.4-0.7-0.8-1-1.2c-0.1-0.2-0.3-0.3-0.4-0.5v0c0.2-0.2,0.4-0.2,0.6-0.3c1-0.1,2.1,0.9,3.2,1.8c1.3,1.1,2.7,2.4,4.4,1.7h0
			c1.6-0.7,2.1-2.8,2.1-5c0-1.7-0.2-3.5-0.5-4.7c-1.9-7.8-8.5-12.6-14.1-14.5c-1.8-0.6-5.9-2-8.1,0.2c-2.1,2.1-1.4,6.6,1.8,11.7
			c-6.2-3.9-13.6-7-22.7-9.4c-0.3-0.1-0.8,0-1.1,0.1l-2.4,1.4c-6.1-4.8-12.8-7.6-19.8-8.6c-1.6-0.2-3.2-0.3-4.7-0.3
			c-0.1-0.2-0.3-0.4-0.4-0.7c-0.3-0.5-0.7-1.1-1-1.7c-0.4-0.7-0.8-1.5-1.3-2.3c-1.6-3-3-6.1-4.1-9.4c3.1-0.9,6.2-2,9.1-3.5
			c4.2-2.1,7.2-3.7,8.8-7.2c0.3-0.7,0.5-1.5,0.7-2.2c0.3-1.5,0-3-0.9-4.2c-0.9-1.2-2.3-2-3.8-2.2c-2.5-0.3-5.1-0.6-7.7-0.8
			c-8.4-0.6-15.4-0.1-21.6,0.5c-8.6,0.8-15.4,1.5-20.6,2.3c-2.5-0.7-5.1-1.4-7.7-2.3c-11.2-3.6-17.9-7.4-23.8-10.8
			c-3.3-1.8-6.3-3.6-9.8-5.1c-17.4-7.7-33.9-5.8-46-4.5c-1.8,0.2-3.7,0.4-5.5,0.7v-0.8c7.3-4.2,16.2-9.3,25.6-14.4l0.1-0.1
			c24.4-13,40.5-21.5,55.1-27.6c5.9-2.5,11.6-4.6,17.3-6.4c2.7-0.9,6.6-2.1,11.7-3.5c0,0,0,0,0,0s0,0,0,0c0,0,0,0,0,0c0,0,0,0,0,0
			s0,0,0,0c0,0,0,0,0,0c3-0.8,6.4-1.6,10.2-2.4c7.8-1.6,17.1-3.1,27.6-3.8c1.1,4.6,5.3,8,10.2,8h1.6c5,0,9.2-3.4,10.2-8.2
			c4.4,0.2,8.7,0.6,13,1.1c1.8,0.2,3.6,0.5,5.4,0.7c2.2,0.3,4.6,0.7,7.3,1.2h0c0,0,0,0,0,0s0,0,0,0c10.6,1.8,24.8,4.9,39.3,11.5
			c10.9,5,20.7,11.5,29.2,19.3c4.5,4.1,16.4,15,24.5,32.6c3,6.5,3.7,10,6.5,24.7c0.8,4.2,1.8,9.5,3.1,15.9c0.2,1,0.4,2.1,0.6,3.1
			h2.9c-0.2-1.2-0.5-2.4-0.7-3.6c-1.3-6.5-2.3-11.7-3.1-15.9c-2.8-15-3.5-18.6-6.7-25.4c-8.3-18.1-20.5-29.3-25.2-33.5
			c-8.8-8-18.8-14.6-30-19.8c-0.4-0.2-0.8-0.4-1.2-0.5c1.3-2,2.2-4.1,2.7-6.3c0.8-3.4,0.4-5.6,0-7.7c-0.3-1.7-0.6-3.2-0.4-5.5
			c0.5-4.9,3-7.5,5.7-10.2c2.6-2.7,5.3-5.5,6.3-10.4c2-10.2-5.7-19.5-8.1-22.2c-4.4-4.9-8.8-6.4-12.6-7.7c-3.6-1.2-6.6-2.3-9.2-5.9
			c-2.6-3.7-2.5-6.7-2.3-10.4c0.2-3.6,0.4-7.7-1.7-13.1C296.8,71,280,64.2,273,61.9c-14.8-4.8-27.8-1.7-34.6,0.8
			c-6.8-2.4-19.8-5.5-34.5-0.8c-6.9,2.3-23.8,9.1-29.6,24.5c-2,5.4-1.8,9.5-1.6,13.1c0.2,3.8,0.4,6.8-2.3,10.4
			c-2.6,3.6-5.7,4.7-9.2,5.9c-3.8,1.3-8.1,2.8-12.6,7.7c-2.4,2.6-10,12-8.1,22.2c1,4.9,3.7,7.7,6.3,10.4c2.7,2.7,5.2,5.3,5.7,10.2
			c0.2,2.3-0.1,3.8-0.4,5.5c-0.4,2.1-0.8,4.3,0,7.7c1,4.4,3.5,8.3,7.4,11.9c-12.8,5.9-27.5,13.7-48,24.5l-0.1,0.1
			c-8.9,4.7-17.3,9.5-24.3,13.6v-36.6c0-85.2,69.3-154.6,154.6-154.6s154.5,69.3,154.5,154.6v91.5L399.8,284.4L399.8,284.4z
			 M144.9,307.1c6.2-2.1,12.4-4.5,18.4-7.2c0.5,0.2,1.1,0.4,1.6,0.5c1,0.2,1.8,0.2,2.6,0.1c1,0,1.7,0,2.7,0.5
			c1.7,0.8,2.4,2.2,3.6,5.1c0.4,0.8,0.7,1.8,1.2,2.8c0.2,0.5,0.5,1.1,1,2c0.6,1.2,1.4,2.7,2.5,4.3c-5.1,7.9-8.4,16.8-9.9,26.6
			l-7.8,4.5c0,0-0.1,0-0.1,0.1c0,0,0,0,0,0l-6.6,3.9c-0.6,0.4-0.9,1.1-0.6,1.8c1.8,3.9,3.6,7.8,5.6,11.5c2.5,4.8,5.2,9.4,8,13.7
			l-11.6-0.4c-0.9,0-2.6-0.1-4.6-0.5c0,0,0,0,0,0c0,0-0.1,0-0.1,0c0,0,0,0,0,0c-2.1-0.5-4.1-1.3-5.8-2.5
			c-11.2-7.7-9.5-28.7-8.8-36.7c0.7-8.9,3.1-17.7,6.9-26.2C143.6,309.6,144.2,308.4,144.9,307.1z M197.4,321c0-0.1,0-0.2,0-0.3
			l0.6,1.1c0.4,0.7,0.9,1.3,1.5,1.9l-17.2,10.1c1.2-3.5,2.7-6.8,4.6-9.9c1.6,1,3.3,1.8,5.2,2.5c0.4,0.1,0.9,0.2,1.3,0.2
			c0.9,0,1.8-0.3,2.5-0.8c1.1-0.8,1.7-2.1,1.6-3.5C197.5,321.7,197.5,321.3,197.4,321z M221.3,308.6c0-0.2-0.1-0.3-0.2-0.5
			c-0.3-0.6-0.7-1.3-1.1-1.9c0.6,0.2,1.2,0.4,1.8,0.3c1.6-0.1,3-1,3.6-2.4c0,0,0-0.1,0-0.1c0.7-1.6,1-3.4,1-5.4
			c0.7,0.1,1.5,0.3,2.2,0.6c2.3,0.8,4.5,2,6.6,3.7l-13.9,8.1C221.4,309.6,221.3,308.7,221.3,308.6z M243.9,429.8
			c-0.7,1.1-1.5,2.2-2.2,3.3c-12.4-4.5-23.9-10.3-34.1-17.4c-1-0.7-2.1-1.5-3.1-2.2c-2-1.5-4.1-3.1-6.1-4.8c0,0,0,0,0,0
			c-0.6-0.5-1.1-1-1.7-1.5c-0.1-0.1-0.3-0.2-0.4-0.3c-0.1-0.1-0.3-0.2-0.4-0.3c-0.1-0.1-0.2-0.2-0.4-0.3c-0.2-0.2-0.4-0.4-0.6-0.6
			c0,0-0.1-0.1-0.1-0.1c0,0,0,0,0,0c-0.1-0.1-0.2-0.2-0.2-0.2c-8.8-7.9-16.7-17.1-23.6-27.4c0,0,0,0,0,0c0,0,0,0,0,0c0,0,0,0,0,0
			c0,0,0,0,0,0c-3.3-4.9-6.4-10.1-9.3-15.6c-1.7-3.3-3.4-6.7-5-10.1l4.2-2.5C179.1,389.2,206.4,415.5,243.9,429.8z M163.3,417.1
			c0-0.3,0.1-0.6,0.1-0.9c0,0,0-0.1,0-0.1c0-0.3,0.1-0.5,0.1-0.8c0.1-0.6,0.1-1.2,0.2-1.8c0.1-0.7,0.2-1.4,0.3-2.1
			c0.3-2.3,0.7-4.6,1-6.9v-0.1c0,0,0,0,0,0c0,0,0-0.1,0-0.1c0,0,0-0.1,0-0.1c0.1-0.7,0.2-1.4,0.3-2.1c0.8,0.2,1.5,0.3,2.3,0.5
			c0,0,0,0,0,0c0,0,0,0,0,0h0c0.5,0.1,0.9,0.2,1.4,0.3c1.6,0.3,3.1,0.7,4.7,1c0.5,0.1,0.9,0.2,1.4,0.3c0,0,0,0,0,0c0,0,0,0,0,0
			c2.5,0.5,5.1,1.1,7.6,1.6c0,0,0.1,0,0.1,0c0.6,0.1,1.3,0.3,1.9,0.4c1.9,0.4,3.7,0.8,5.6,1.1c0,0,0,0,0,0c0.8,0.2,1.6,0.3,2.5,0.5
			c0,0,0,0,0,0c0.1,0.1,0.1,0.1,0.2,0.2c0,0,0,0,0,0c-0.5,17.7-14.8,31.9-32.5,32.4c0-0.2,0-0.3,0-0.5v0l0-0.2c0-0.1,0-0.1,0-0.2
			c0,0,0,0,0,0c0,0,0,0,0-0.1c0-0.2,0-0.4,0-0.6c0,0,0-0.1,0-0.2v0c0-0.1,0-0.3,0-0.4c0-0.2,0-0.3,0-0.5c0-0.5,0.1-0.9,0.1-1.4
			c0-0.4,0.1-0.8,0.1-1.2c0-0.1,0-0.2,0-0.4c0-0.1,0-0.2,0-0.3c0-0.2,0-0.3,0-0.5c0,0,0,0,0,0v0c0-0.1,0-0.1,0-0.2
			c0.1-0.5,0.1-1,0.1-1.5c0-0.2,0-0.5,0.1-0.7c0-0.4,0.1-0.9,0.1-1.3c0.1-0.7,0.1-1.3,0.2-2c0.1-1.3,0.3-2.6,0.4-3.9
			c0.1-0.6,0.1-1.3,0.2-1.9c0,0,0,0,0,0c0-0.2,0-0.4,0.1-0.6C162.9,420.3,163.1,418.7,163.3,417.1z M151.5,395.9
			c0.1-3.3,0.1-5.9,0.2-8.5c0-2.5,0.1-5,0.1-8c1.5,0.2,2.7,0.2,3.5,0.3l13.6,0.5c6,9,12.9,17.1,20.3,24.2c-1.2-0.2-2.4-0.5-3.5-0.7
			c-0.7-0.1-1.4-0.3-2-0.4c-1.1-0.2-2.1-0.4-3.2-0.7c-0.2,0-0.4-0.1-0.6-0.1c-0.2,0-0.4-0.1-0.6-0.1c-0.2-0.1-0.5-0.1-0.7-0.2
			c-1.3-0.3-2.5-0.5-3.8-0.8c-1.5-0.3-3-0.7-4.4-1c-0.6-0.1-1.2-0.3-1.8-0.4c-1.3-0.3-2.5-0.6-3.8-0.9
			C160.2,398,155.8,396.9,151.5,395.9z M178.6,335.8l-7,4.1c1.5-8.1,4.3-15.6,8.5-22.3c1.4,1.7,2.8,3.2,4.4,4.5
			C182,326.3,180,330.9,178.6,335.8z M155.7,472.6l-0.3,4.9c-1.1,17-1.8,34-2,51.2c-40-28-66.2-74.3-66.2-126.8v-83.1
			c7.7-0.5,16.2-2,25.7-3.6c6.6-1.1,13.3-2.6,19.9-4.4c2.8-0.8,5.6-1.6,8.4-2.5c-0.4,0.8-0.8,1.7-1.1,2.5c-3.7,8.4-5.9,17.1-6.6,26
			c-0.8,9.2-2.6,30.6,10,39.2c1.7,1.2,3.6,2.1,5.7,2.6c-0.1,3.3-0.1,5.9-0.1,8.6c-0.1,3-0.1,5.9-0.2,9.7c0,0.7,0.4,1.2,1.1,1.4
			c4.2,1,8.5,2.1,12.9,3.1c-0.1,0.9-0.3,1.7-0.4,2.6v0.1c-0.5,3-0.9,6-1.3,9c0,0,0,0,0,0.1c-0.2,1.4-0.4,2.9-0.6,4.4
			c-0.2,1.6-0.4,3.2-0.6,4.7c-0.4,3-0.7,6-1,9.1c-0.1,1.5-0.3,3-0.4,4.5c0,0.1,0,0.2,0,0.3c-0.1,0.6-0.1,1.3-0.2,2
			c-0.1,0.8-0.1,1.5-0.2,2.3v0.1c0,0,0,0.1,0,0.1c0,0.4-0.1,0.8-0.1,1.2c0,0,0,0.1,0,0.1c-0.2,2.4-0.4,4.9-0.6,7.7
			c0,0.6-0.1,1.3-0.1,1.9c0,0.6-0.1,1.3-0.1,2C156.6,459.5,156.2,465.9,155.7,472.6z M241.7,556.5c-31.6,0-61-9.5-85.5-25.9
			c0.2-17.7,0.9-35.4,2.1-52.9l0.3-4.9c0.4-6.2,0.8-12.2,1.2-17.7c0.9,0,1.8-0.1,2.7-0.1c0.8-0.1,1.4-0.7,1.3-1.5
			c-0.1-0.8-0.7-1.4-1.5-1.3c-0.8,0.1-1.5,0.1-2.3,0.1c0-0.5,0.1-1.1,0.1-1.6c0-0.2,0-0.5,0.1-0.7v-0.1c0.2-2.3,0.4-4.4,0.5-6.4
			c18.6-0.3,33.8-14.7,35.4-32.9c0,0,0,0,0,0c0.2,0.1,0.3,0.3,0.5,0.4c0,0,0,0,0.1,0c2,1.7,4,3.3,6.1,4.8c0.8,0.6,1.6,1.2,2.4,1.7
			c-0.3,0.9-0.6,1.8-0.9,2.7c-0.3,0.7,0.1,1.5,0.9,1.8c0.1,0.1,0.3,0.1,0.5,0.1c0.6,0,1.1-0.4,1.3-0.9c0.2-0.6,0.4-1.3,0.6-1.9
			c10.3,6.9,21.8,12.6,34.2,17c0.2,0,0.3,0.1,0.5,0.1c0.5,0,0.9-0.2,1.2-0.6c1.3-1.9,2.5-3.8,3.8-5.6c0.1-0.1,0.1-0.1,0.2-0.2
			c2.9-4.3,5.6-8.5,8.2-12.6l0.3-0.4c0-0.1,0.1-0.2,0.2-0.3c0.1,0,0.1,0,0.2,0c0.7,0,1.5,0,2.2-0.1c1.4-0.1,2.8-0.2,4-0.5v32.5
			c-11.1-0.3-21.3-0.4-21.4-0.4c-0.8,0-1.4,0.6-1.4,1.4c0,0.8,0.6,1.4,1.4,1.4c0.1,0,11.2,0.1,22.8,0.5h0c2,0.1,4,0.1,5.9,0.2
			l0.2,40.2c-5,5.7-7.7,13-7.7,20.6c0,7.7,2.8,15.1,7.9,20.9l0.1,20.5C261.1,555.5,251.5,556.5,241.7,556.5z M278.6,449.2
			c-1.9-0.1-4-0.2-6.5-0.3c-0.3,0-0.5,0-0.8,0h0c-2-0.1-3.9-0.2-5.9-0.2v-33.2c5-1.2,8.9-3.2,11.7-4.9c0,0.1,0,0.2,0,0.2
			L278.6,449.2z M292.5,451.1c-0.5-0.4-1.3-1.1-11.1-1.7l-1.6-38.7c0-0.6-0.5-1.1-1-1.3c0.7-0.5,1.2-0.8,1.6-1.1
			c2.3-1.7,4-3.3,5.5-4.9l15.3,1.2c2,6.4,4,12.2,6,17.8c4.8,13,9.7,24.2,15.2,34.2l-8.5-0.2c-0.6-0.1-1.2,0.4-1.4,1l-7.8,25.6
			c-3.5-1.3-7.1-1.9-10.8-1.9c-7.7,0-15.2,2.9-20.9,8l-0.2-37.3c2.4,0.1,4.4,0.2,6.2,0.3c0.8,0,1.5,0.1,2.2,0.1
			c7.6,0.5,9.3,1,9.7,1.2c0.2,0.2,0.5,0.3,0.8,0.3c0.4,0,0.8-0.2,1.1-0.5C293.2,452.5,293.1,451.6,292.5,451.1z M313.3,416.4
			c0.3,2.1,0.7,4.2,1.2,6.3c0.5,1.7,1,3.4,1.7,5.1l-1.3,0l-0.7-2.1c-0.5-1.4-0.9-2.7-1.4-4.1c-1.2-3.5-2.4-7-3.6-10.6l-1.8-5.3
			l5.7,0.1C312.8,409.3,312.8,412.9,313.3,416.4z M318.8,411.6c0.2-2.2,0.7-4.5,1.4-6.6l0.8-0.1l0.4,18c0,1.3,0.1,2.7,0.1,4
			c-0.7-1.5-1.2-3.1-1.7-4.7C318.8,418.6,318.5,415.1,318.8,411.6z M285.4,545.4c-0.5,1.7-0.8,3.4-1,5c-3.7,1.1-7.4,2-11.2,2.8
			l-0.1-17.1c3.8,3.3,8.2,5.6,13,6.8L285.4,545.4z M287,540.2c-5.5-1.3-10.4-4.2-14.3-8.4c-4.9-5.3-7.6-12.2-7.6-19.3
			c0-7,2.6-13.8,7.3-19.1c0,0,0,0,0-0.1c5.4-6,13.2-9.5,21.2-9.5c3.4,0,6.8,0.6,10,1.8l-2.6,8.5c-2.3-0.9-4.8-1.4-7.3-1.4
			c-10.9,0-19.7,8.8-19.7,19.7c0,9.3,6.6,17.3,15.5,19.2L287,540.2z M300.3,496.9l-7.8,25.6l-2,6.5c-7.8-1.5-13.5-8.5-13.5-16.5
			c0-9.3,7.6-16.9,16.9-16.9C296.1,495.6,298.3,496,300.3,496.9z M342.8,518.7h-6.9c-0.8,0-1.4-0.6-1.4-1.4c0-0.8,0.6-1.4,1.4-1.4
			H346C345,516.8,343.9,517.7,342.8,518.7z M389.3,447.8c-1.8,5.6-3.8,11.1-6.2,16.4l-1.7-5.5c-0.2-0.6-0.7-1-1.3-1l-11.1-0.2
			c1.8-4.9,3.5-10,5.3-15.4l14.3-2c0.4,1.8,0.6,3.6,0.7,5.5C389.3,446.2,389.3,447,389.3,447.8z M392.4,425.5v9.9
			c-1,0.5-2.1,1.1-3.1,1.7l0,0l-14,2c1.4-4.3,2.7-8.8,4.1-13.5C383.8,425.6,388.2,425.6,392.4,425.5z M368.8,415.9
			c0.6-3.5,1.6-7,2.9-10.3l6.7,0.6c-1.7,5.9-3.4,11.7-5,17.6c-0.6,2.2-1.3,4.4-1.9,6.7l-2.9-0.6c-0.3-2-0.4-3.8-0.4-5.7
			C368.2,421.4,368.4,418.7,368.8,415.9z M354.6,414.5c0.7-3.5,2-6.8,3.8-9.8l6.9,0.6c-1.2,2.7-2.2,5.5-2.7,8.5
			c-0.7,3.4-0.9,7-0.6,10.4c0.1,1.6,0.4,3.2,0.7,4.8c-2.4,0-4.9,0-7.3,0.1c-0.5-1.8-0.9-3.5-1.2-5.3
			C354,420.6,354.1,417.5,354.6,414.5z M348.4,424c0.2,1.5,0.5,2.9,0.9,4.3h-8.7c-0.2-1.7-0.3-3.3-0.4-4.9c-0.1-2.7,0.1-5.5,0.5-8.2
			c0.5-3.7,1.5-7.2,2.9-10.7l8.4,0.3c-1,1.8-1.9,3.8-2.5,5.8C348.1,414.9,347.7,419.4,348.4,424z M346,371.7
			c0.1,0.1,0.1,0.2,0.2,0.2c1.8,2.8,3.2,5,4.2,12.8c1,8.3,0.3,12.5-0.7,15.8c-7.7-0.1-14.9-0.1-21.8,0c1-9.9-0.9-18.7-2.9-24.7
			C332,374.6,339,373.2,346,371.7z M334.4,423.5c0.2,1.6,0.5,3.2,0.9,4.8l-5,0.2c-0.6-1.9-1.1-3.8-1.4-5.8c-0.4-2.2-0.6-4.3-0.7-6.4
			c-0.2-3.9,0.1-7.7,0.9-11.5c2.8,0,5.6,0,8.4,0.1c-1.5,3.3-2.5,6.9-3,10.5c-0.2,1.4-0.3,2.8-0.3,4.3
			C334.2,421,334.3,422.3,334.4,423.5z M324.1,459.7c0.3,0.5,0.6,1,0.9,1.5c0,0,0,0,0,0c0.3,0.6,0.7,1.2,1,1.8
			c0.7,1.2,1.4,2.4,2.2,3.5c2,3.1,4.7,5.7,7.9,7.5c3.2,1.8,6.9,2.7,10.6,2.7c9,0,17.2-5.6,20.4-14c0.3-0.8,0.6-1.6,0.9-2.3l11.1,0.2
			l2.3,7.5c-4.1,8.7-9.1,17-14.7,24.7h-35.5c-0.8,0-1.4,0.6-1.4,1.4c0,0.8,0.6,1.4,1.4,1.4h33.4c-3.8,5-7.9,9.7-12.3,14.2H303
			l-6.8,22.3l-4.7,15.2c-0.1,0.4-0.2,0.7-0.3,1.1c-1.3,0.4-2.5,0.8-3.8,1.2c0.1-1.1,0.4-2.2,0.7-3.4l1.2-3.8c0,0,0,0,0-0.1l7.8-25.6
			l6.2-20.2c0,0,0,0,0,0l3.5-11.3c0,0,0,0,0,0l8-26l9.1,0.2C324,459.4,324,459.6,324.1,459.7z M290.9,396.7
			c2.2-3.2,4.7-6.9,9.1-11.5c2.3-2.4,4.7-4.7,7.2-6.8c4-0.5,7.9-1,12-1.6c1.9,5.5,3.9,14.2,2.9,23.9c-7.1,0.1-13.9,0.3-20.2,0.6
			c-0.4,0-0.8,0.2-1,0.5l-12.8-1C289.1,399.4,290,398.1,290.9,396.7z M287.5,380.2c-0.4,0.7-0.9,1.5-1.4,2.2
			c-4.6,6.8-12,17.9-22.3,21.5c4.7-7.8,9-15.5,13-23C280.1,380.8,283.8,380.5,287.5,380.2z M274.7,306.3l1.5-1.5
			c0.5-0.5,0.6-1.2,0.2-1.8c-3.3-4.9-3.7-8.4-2.8-9.2c0.2-0.2,0.6-0.4,1.3-0.4c0.8,0,2,0.2,3.9,0.9c4.7,1.6,10.7,5.8,12.3,12.5
			c0.4,1.5,0.5,2.9,0.5,4c0,1.1-0.2,2-0.4,2.3c-0.3-0.2-1-0.8-1.4-1.1c-0.4-0.4-0.8-0.8-1.3-1.1c-1.1-0.9-2.5-1.6-4.2-1.3
			c-0.9,0.1-1.7,0.6-2.5,1.3c-0.2,0.2-0.4,0.5-0.7,0.8c0,0,0,0,0,0c0,0,0,0,0,0c0,0,0,0,0,0c0,0,0,0,0,0c0,0,0,0,0,0c0,0,0,0,0,0.1
			c-0.1,0.2-0.2,0.3-0.3,0.5c0,0.1-0.1,0.1-0.1,0.2c-0.1,0.2-0.2,0.4-0.3,0.5c-0.2,0.4-0.4,0.9-0.6,1.3c-0.7,1.5-1.4,3-2.4,3.3
			c-0.7,0.2-2.5,0-6-3.7c-0.6-0.6-0.9-1.5-0.9-2.3c0-0.3,0.1-0.5,0.1-0.8c0.2-0.6,0.5-1.1,0.9-1.5L274.7,306.3z M247.8,298.7
			C247.8,298.7,247.8,298.7,247.8,298.7c0.1-0.1,0.1-0.1,0.2-0.1c0,0,0.1,0,0.1,0l2.6-1.5c8.3,2.2,15.1,5,20.7,8.5l-1.8,1.7
			c-1,1-1.7,2.2-1.9,3.5c0,0.2-0.1,0.5-0.1,0.7c-0.1,1.6,0.5,3.2,1.6,4.4c1.5,1.6,2.8,2.7,4.1,3.5c0.3,0.2,0.6,0.4,0.9,0.5
			c0,0,0,0,0,0c0,0,0.1,0,0.1,0c0,0,0.1,0,0.1,0c0.4,0.2,0.8,0.3,1.2,0.4c0.2,0.1,0.5,0.1,0.7,0.1c0.2,0,0.3,0,0.5,0
			c0.4,0,0.9-0.1,1.3-0.2c1.8-0.5,2.8-2.1,3.6-3.7c0.2-0.4,0.3-0.8,0.5-1.1v0c0-0.1,0.1-0.2,0.1-0.2c0-0.1,0.1-0.1,0.1-0.2
			c5.5,6.5,8.9,14.4,10.3,24.2c-0.4,1-0.8,2.1-1.3,3.2c-18.7-1.5-34.6-14-41.5-31.5c-1.4-3.7-2.5-7.6-3.1-11.7L247.8,298.7z
			 M227.1,289.9c6.2,0.8,12.1,3.3,17.5,7.3l-6.8,4c-2.5-2.2-5.3-3.9-8.3-4.8c-1.1-0.4-2.2-0.6-3.3-0.8c-0.1-0.4-0.1-0.8-0.2-1.2
			c-0.4-1.9-0.9-3.3-1.6-4.7C225.3,289.7,226.2,289.8,227.1,289.9z M182.4,258.8c0.1,0,0.3-0.1,0.4-0.2c0.1-0.1,0.2-0.2,0.3-0.3
			c0,0,0.1-0.1,0.1-0.1c0.1-0.1,0.1-0.2,0.2-0.4c4.7-0.6,10.5-1.2,17.5-1.9c6.1-0.6,12.9-1.1,21.1-0.5c2.5,0.1,5,0.4,7.5,0.7
			c0.7,0.1,1.4,0.5,1.8,1.1c0.3,0.4,0.5,1,0.5,1.5c0,0.2,0,0.3-0.1,0.5c-0.1,0.6-0.3,1.1-0.5,1.6c-1.1,2.5-3.3,3.7-7.5,5.8
			c-3.2,1.6-6.5,2.8-10,3.7c-0.4,0.1-0.7,0.4-0.9,0.7c-0.2,0.4-0.2,0.8-0.1,1.1c1.3,4,2.9,7.7,4.8,11.2c0.2,0.3,0.4,0.7,0.5,1
			c0.7,1.2,1.3,2.3,1.9,3.2c0.3,0.5,0.5,0.9,0.8,1.3c1.1,2,1.9,3.6,2.5,6.1c0.2,0.7,0.3,1.4,0.3,2c0.3,2.3,0.1,4.2-0.6,5.7
			c0,0,0,0.1,0,0.1c-0.3,0.7-0.9,0.8-1.2,0.8c-0.5,0-1-0.2-1.3-0.7l-0.2-0.4c-1.2-2-2.2-3.9-3.2-5.6c-1.8-3.1-3.2-5.6-4.5-7.8
			c-1.1-1.9-2.1-3.5-2.9-4.8c-0.6-1-1.1-1.9-1.5-2.5c-1.2-2-1.9-3.1-3.2-2.4c-1.3,0.7-0.8,1.8,0.6,4.8c0,0,0,0,0,0.1
			c0.8,1.6,1.9,3.9,3.3,6.6c1.3,2.7,2.8,5.5,4,7.9c0,0.1,0.1,0.2,0.1,0.3c1.8,3.4,3.6,6.8,5.5,10.1c0,0.3,0.1,0.9,0,1.6
			c0,0.7-0.2,1.5-0.5,2.3c-0.4,1-0.9,1.8-1.7,2.5c0,0,0,0-0.1,0.1c-0.3,0.3-0.7,0.5-1.1,0.6c-0.1,0-0.3,0.1-0.4,0.1
			c-0.5,0-0.9,0-1.4-0.2c0,0,0,0,0,0c-0.6-0.2-1.1-0.7-1.4-1.3c-0.6-1.2-1.3-2.5-2-4c-0.6-1.1-1.2-2.3-1.8-3.5l-2.4-4.7
			c0,0,0,0,0-0.1h0l-0.1-0.2c0,0,0-0.1,0-0.1l-3.9-7.8l-0.6-1.1c-0.9-1.8-1.7-3.4-2.4-4.7c-0.4-0.7-1.2-1-1.9-0.6
			c-0.7,0.4-1,1.2-0.6,1.9l0.2,0.4c0.8,1.6,1.7,3.4,2.7,5.4c1.3,2.6,2.7,5.4,4,8c0,0.1,0.1,0.1,0.1,0.2c1.4,2.8,2.5,5,3.4,6.9
			c1.5,3.2,2.4,5,2.6,5.4c0.1,0.5,0.1,1.1,0.1,1.1c0,0.3,0,0.7-0.1,1c0,0,0,0.1,0,0.1c0,0,0,0.1,0,0.2c0,0.2-0.1,0.5-0.2,0.7
			c-0.6,1.6-2.2,2.9-4,3.2c0,0,0,0,0,0c0,0,0,0-0.1,0c-0.6,0.1-1.2,0.1-1.8-0.1c-0.1,0-0.1,0-0.2-0.1c0,0-0.1,0-0.2-0.1c0,0,0,0,0,0
			h0c0,0,0,0,0,0c-0.9-0.4-1.7-1.1-2.2-2l-5.2-9.5l-4.4-7.9c-1-1.9-2-3.5-2.7-4.9l-1.1-2c-0.4-0.7-1.2-0.9-1.9-0.6
			c-0.7,0.3-1,1.1-0.7,1.8c0.3,0.6,0.8,1.7,1.5,3.2c0.6,1.1,1.2,2.5,1.9,4c0,0,0,0,0,0.1c1.1,2.3,2.1,4.4,2.9,6.2
			c0.4,0.9,0.8,1.7,1.1,2.5c2,4.7,2.5,6.9,2.6,7.9c0,0.3,0.1,0.7,0.1,1c0,0.4-0.2,0.8-0.5,1.1c-0.4,0.3-0.8,0.3-1.2,0.2
			c-1.9-0.6-3.5-1.5-5.1-2.5c-0.1-0.1-0.3-0.2-0.4-0.3l-0.2-0.1c-2.1-1.6-4.1-3.7-6-6.3c0,0,0,0,0,0c-0.9-1.2-1.6-2.4-2.2-3.4
			c-0.8-1.4-1.3-2.6-1.6-3.2c-0.5-0.9-0.8-1.8-1.2-2.6c-1.2-2.9-2.2-5.2-4.9-6.5c-1.3-0.6-2.4-0.7-3.4-0.7c-0.2,0-0.4,0-0.6,0
			c-0.6,0-1.3,0-2-0.1c-0.5-0.1-0.9-0.2-1.3-0.4c0,0,0,0,0,0v0c0,0,0,0,0-0.1c0,0,0,0,0,0c0,0,0,0,0,0c0,0-0.1-0.1-0.1-0.1
			c-0.7-0.9-1.5-2.1-2.2-3.6c-0.1-0.3-0.2-0.5-0.3-0.8c-0.1-0.3-0.2-0.6-0.3-1c-0.8-2.7-0.8-5.1-0.5-7.1c0.1-0.9,0.3-1.8,0.5-2.5
			c2.3-10.7,10.2-17,11.8-18.2C175.6,261.5,178.8,259.9,182.4,258.8z M254.5,172c0,0.3,0,0.5,0,0.8c-0.4,4-3.7,7-7.6,7h-1.6
			c-3.9,0-7.1-2.9-7.6-6.7c0,0,0-0.1,0-0.1c0-0.3-0.1-0.6-0.1-0.9v-8.2c0.5,0,0.9,0,1.4,0.1c0.4,0,0.8,0,1.2,0c1.1,0,2.2,0,3.4-0.1
			c1-0.1,2.1-0.2,3.2-0.3c2.3-0.3,4.5-0.8,6.8-1.4l0.2-0.1c0.3-0.1,0.6-0.2,0.8-0.3L254.5,172L254.5,172z M194.7,113.8
			c0.1-0.1,0.3-0.2,0.5-0.4c0.1-0.1,0.1-0.1,0.2-0.1c0.1-0.1,0.2-0.2,0.3-0.2c0.3-0.2,0.6-0.4,1-0.6c0,0,0,0,0.1,0
			c0.2-0.1,0.4-0.2,0.5-0.3c0.2-0.1,0.4-0.2,0.5-0.3c0.1-0.1,0.3-0.1,0.4-0.2c0.7-0.3,1.4-0.6,2.1-0.8c0.3-0.1,0.6-0.2,0.9-0.3
			c0.1,0,0.3-0.1,0.5-0.1c2.8-0.8,5.6-1.7,8.7-4.6c3.7-3.5,4.4-7,5.2-10.4c0.7-3.2,1.3-6.3,4.5-9.8c5.6-6.1,13.3-7.5,17-8.2
			c0.5-0.1,1.2-0.2,1.8-0.3c0.1,0,0.2,0,0.2,0c0,0,0,0,0.1,0c0.1,0,0.2,0,0.3,0c0,0,0.1,0,0.1,0c0,0,0,0,0,0c0,0,0,0,0,0
			c0.2,0,0.3,0,0.5-0.1c0.3,0,0.7-0.1,1-0.1c0,0,0.1,0,0.1,0c0.3,0,0.6-0.1,0.9-0.1c0.1,0,0.3,0,0.4,0c0.1,0,0.3,0,0.4,0
			c0.4,0,0.8-0.1,1.3-0.1c0.4,0,0.7,0,1.1,0s0.8,0,1.1,0c0.2,0,0.5,0,0.7,0c0.2,0,0.3,0,0.5,0c0.2,0,0.5,0,0.8,0.1
			c0.2,0,0.4,0.1,0.6,0.1c0.2,0,0.4,0.1,0.6,0.1c0.2,0,0.4,0.1,0.6,0.1c0.2,0,0.5,0.1,0.7,0.1c0.3,0.1,0.5,0.1,0.8,0.2
			s0.5,0.1,0.8,0.2c0.3,0.1,0.5,0.2,0.8,0.3c0.2,0.1,0.5,0.2,0.7,0.3c0.4,0.2,0.9,0.4,1.3,0.6c0.5,0.3,0.9,0.5,1.4,0.8
			c2.8,1.9,3.6,3.7,4.8,6.4c1.3,3,3,6.7,7.7,12c0.3,0.4,0.4,0.4,1.4,1.5c1.2,1.2,3.7,3.7,9.5,9.4c0.5,0.5,0.9,0.9,1.3,1.4
			c0.1,0.1,0.3,0.3,0.4,0.4c0.1,0.1,0.3,0.3,0.4,0.4c1.2,1.2,2.2,2.2,2.9,3c0,0.5,0,1,0,1.5c0,19.1-12.2,36.3-30,42.7l-0.2,0.1
			c-0.4,0.1-0.8,0.3-1.2,0.4c0.4-0.1,0.8-0.3,1.2-0.4l-2.6,0.8c0,0-0.1,0-0.1,0c-4,1.2-8.3,1.8-12.5,1.8c-1.3,0-2.6,0-3.9-0.2
			c0,0-0.1,0-0.1,0c-23.2-2-41.4-21.9-41.4-45.2C194.7,115,194.7,114.4,194.7,113.8z M345.2,252.4c-0.8-0.2-1.5,0.3-1.7,1l-3.4,13.9
			c-2.8-9-5.7-18.3-8.5-27.7c-0.2-0.8-1-1.2-1.8-1c-0.8,0.2-1.2,1-1,1.8c3.3,11.1,6.7,22,10,32.6c0,0,0,0,0,0
			c1.2,3.8,2.4,7.6,3.6,11.3h3c-1.3-3.9-2.5-7.8-3.8-11.8l4.5-18.5C346.4,253.4,346,252.6,345.2,252.4z"/>
		<path class="st0" d="M302.3,571.6c0.1,0,0.1,0,0.2,0h0C302.4,571.6,302.4,571.5,302.3,571.6c0,0,0-0.1-0.1-0.1
			C302.2,571.5,302.2,571.5,302.3,571.6z"/>
		<path class="st0" d="M266.8,122.3c2.6,0,4.8-2.5,4.8-5.6c0-3.1-2.1-5.6-4.8-5.6s-4.8,2.5-4.8,5.6
			C262,119.8,264.2,122.3,266.8,122.3z"/>
		<path class="st0" d="M191,439.8c-2,1.8-4.1,3.4-6.4,4.8c-0.6,0.4-0.9,1.3-0.4,2c0.3,0.4,0.7,0.7,1.2,0.7c0.3,0,0.5-0.1,0.8-0.2
			c2.4-1.5,4.6-3.2,6.7-5.1c0.6-0.5,0.6-1.4,0.1-2C192.5,439.3,191.6,439.3,191,439.8z"/>
		<path class="st0" d="M177.7,448.3c-2.4,1-5,1.9-7.5,2.5c-0.8,0.2-1.2,1-1,1.7c0.2,0.7,0.7,1.1,1.4,1.1c0.1,0,0.2,0,0.3,0
			c2.7-0.7,5.4-1.6,8-2.7c0.7-0.3,1-1.2,0.8-1.9C179.2,448.4,178.4,448,177.7,448.3z"/>
		<path class="st0" d="M250.3,136.1c-4.3,4.1-9.2,4-15.1-0.1c-0.6-0.5-1.5-0.3-2,0.3c-0.5,0.6-0.3,1.5,0.3,2
			c3.5,2.5,6.8,3.7,9.9,3.7c3.2,0,6.1-1.3,8.8-3.9c0.6-0.5,0.6-1.4,0-2C251.8,135.5,250.9,135.5,250.3,136.1z"/>
		<path class="st0" d="M244.1,134.3c0.2,0.2,0.5,0.3,0.8,0.3c0.4,0,0.9-0.2,1.2-0.6c0.5-0.6,0.3-1.5-0.3-2c-5-3.5-5.2-5.2-5.1-5.6
			c0.1-0.6,1.1-1.3,2.8-1.8c0.6-0.2,1-0.7,1-1.3c0.1-7.6,0-7.8-0.1-8c-0.2-0.8-1-1.1-1.8-0.9c-0.7,0.2-1,0.9-1,1.5
			c0,0.5,0,3.5,0,6.4c-2.2,0.9-3.5,2.1-3.7,3.7C237.5,128.3,239.5,131,244.1,134.3z"/>
		<path class="st0" d="M219.3,111.1c-2.6,0-4.8,2.5-4.8,5.6s2.1,5.6,4.8,5.6s4.8-2.5,4.8-5.6C224.1,113.6,222,111.1,219.3,111.1z"/>
		<path class="st0" d="M403,572C403,571.9,403,571.9,403,572C403,571.9,403,571.9,403,572L403,572z"/>
		<g>
			<path class="st0" d="M366.2,68.4c-33.3-33.3-77.5-51.6-124.5-51.6s-91.2,18.3-124.5,51.6c-33.2,33.3-51.6,77.5-51.6,124.5v91.5
				h3.9v-91.5c0-46,17.9-89.2,50.4-121.7c32.5-32.5,75.7-50.4,121.7-50.4s89.2,17.9,121.7,50.4s50.4,75.7,50.4,121.7v91.5h3.9v-91.5
				C417.7,145.9,399.4,101.7,366.2,68.4z M413.8,310.9v91c0,46-17.9,89.2-50.4,121.7c-32.5,32.5-75.7,50.4-121.7,50.4
				s-89.2-17.9-121.7-50.4c-32.5-32.5-50.4-75.7-50.4-121.7v-91h-3.9v91c0,47,18.3,91.2,51.6,124.5c33.3,33.2,77.5,51.6,124.5,51.6
				s91.2-18.3,124.5-51.6c33.2-33.2,51.6-77.5,51.6-124.5v-91H413.8z"/>
		</g>
	</g>
	<g>
		<g>
			<path class="st0" d="M46.7,634.3H29l-4.7,12.8H9.7l20.7-56h14.8l20.6,56H51.4L46.7,634.3z M32.7,622.6h10.5l-5.5-18.5L32.7,622.6
				z"/>
			<path class="st0" d="M67.1,647.1v-56h13.8v44.2H101v11.9H67.1z"/>
			<path class="st0" d="M103.8,626.7v-35.6h13.7v35.6c0,5,4.2,8.4,8.5,8.4c4.2,0,8.5-3.4,8.5-8.4v-35.6H148v35.6
				c0,12.9-10.5,21.2-22.1,21.2C114.3,647.9,103.8,639.7,103.8,626.7z"/>
			<path class="st0" d="M155.8,647.1v-56H179c13.3,0,19.2,9.3,19.2,18.7c0,7.9-4.3,15.8-13.4,18l13.7,19.4h-15.8l-12-18.7h-1.2v18.7
				H155.8z M169.4,603v13.8h9c4.5,0,6.1-3.6,6.1-6.9c0-3.2-1.6-6.8-6.1-6.8L169.4,603L169.4,603z"/>
			<path class="st0" d="M268.5,635c-5.2,7.8-13.8,12.8-23.8,12.8c-15.9,0-28.5-12.9-28.5-28.7c0-15.9,12.7-28.8,28.5-28.8
				c10.1,0,18.7,5,23.9,12.8c0.6-0.2-2.4,1.6-5.3,3.7l-6,4.2c-2.6-4.2-7.3-7.1-12.6-7.1c-8.3,0-14.8,6.8-14.8,15.1s6.5,15,14.8,15
				c5.5,0,10-2.8,12.7-7L268.5,635z"/>
			<path class="st0" d="M272.7,647.1v-56h36.4V603h-22.8v10.7h20v11.6h-20v9.9h23.5v11.9H272.7z"/>
			<path class="st0" d="M315.9,647.1v-56h23.2c13.3,0,19.2,9.3,19.2,18.7c0,7.9-4.3,15.8-13.4,18l13.7,19.4h-15.8l-12-18.7h-1.2
				v18.7H315.9z M329.5,603v13.8h9c4.5,0,6.1-3.6,6.1-6.9c0-3.2-1.6-6.8-6.1-6.8L329.5,603L329.5,603z"/>
			<path class="st0" d="M364.1,591.1h13.6v56h-13.6V591.1z"/>
			<path class="st0" d="M382.1,603v-11.9h42.5V603h-14.5v44.2h-13.6V603H382.1z"/>
			<path class="st0" d="M454.5,634.3h-17.7l-4.7,12.8h-14.6l20.7-56H453l20.6,56h-14.4L454.5,634.3z M440.5,622.6H451l-5.5-18.5
				L440.5,622.6z"/>
		</g>
		<g>
			<g>
				<path class="st0" d="M87.7,668.2c1.9,0.4,3.1,2.5,3.1,4.2c0,2.7-1.8,5-5,5h-7v-17.2h6.5c2.9,0,4.7,1.7,4.7,4.4
					C89.8,666.1,89.3,667.6,87.7,668.2z M85.2,667.3c1.5,0,2.3-1.2,2.3-2.6c0-1.5-1-2.4-2.5-2.4h-3.9v5H85.2z M81.1,669.4v5.8h4.6
					c1.7,0,2.7-1.3,2.7-2.8c0-1.4-1.1-3-2.8-3L81.1,669.4L81.1,669.4z"/>
				<path class="st0" d="M106.9,660c4.9,0,8.7,4,8.7,8.8c0,4.9-3.8,8.8-8.7,8.8c-4.9,0-8.7-3.9-8.7-8.8C98.2,664,102,660,106.9,660z
					 M106.9,675.4c3.6,0,6.4-2.9,6.4-6.5s-2.8-6.6-6.4-6.6c-3.6,0-6.4,2.9-6.4,6.6C100.5,672.5,103.3,675.4,106.9,675.4z"/>
				<path class="st0" d="M133.1,668.2c1.9,0.4,3.1,2.5,3.1,4.2c0,2.7-1.8,5-5,5h-7v-17.2h6.5c2.9,0,4.7,1.7,4.7,4.4
					C135.2,666.1,134.7,667.6,133.1,668.2z M130.6,667.3c1.5,0,2.3-1.2,2.3-2.6c0-1.5-1-2.4-2.5-2.4h-3.9v5H130.6z M126.5,669.4v5.8
					h4.6c1.7,0,2.7-1.3,2.7-2.8c0-1.4-1.1-3-2.8-3L126.5,669.4L126.5,669.4z"/>
				<path class="st0" d="M146.6,673l-1.7,4.4h-2.5l6.5-17.2h2.5l6.5,17.2h-2.4l-1.7-4.4H146.6z M153.1,670.9l-2.8-7.6l-2.8,7.6
					H153.1z"/>
				<path class="st0" d="M177.6,680.3H176v-22.8h1.5V680.3z"/>
				<path class="st0" d="M212.5,674.6c-1.5,1.8-3.8,3-6.5,3c-4.9,0-8.7-3.9-8.7-8.8c0-4.8,3.8-8.8,8.7-8.8c2.7,0,4.9,1.1,6.5,2.9
					l-1.7,1.4c-1.2-1.3-2.8-2.1-4.7-2.1c-3.6,0-6.4,2.9-6.4,6.6c0,3.7,2.8,6.5,6.4,6.5c1.9,0,3.6-0.8,4.8-2.2L212.5,674.6z"/>
				<path class="st0" d="M227.9,660c4.9,0,8.7,4,8.7,8.8c0,4.9-3.8,8.8-8.7,8.8c-4.9,0-8.7-3.9-8.7-8.8
					C219.3,664,223.1,660,227.9,660z M227.9,675.4c3.6,0,6.4-2.9,6.4-6.5s-2.8-6.6-6.4-6.6c-3.6,0-6.3,2.9-6.3,6.6
					C221.6,672.5,224.4,675.4,227.9,675.4z"/>
				<path class="st0" d="M255.2,660.2v2.2h-7.7v5.5h6.1v2.2h-6.1v7.3h-2.3v-17.2L255.2,660.2L255.2,660.2z"/>
				<path class="st0" d="M273.3,660.2v2.2h-7.7v5.5h6.1v2.2h-6.1v7.3h-2.3v-17.2L273.3,660.2L273.3,660.2z"/>
				<path class="st0" d="M291.5,660.2v2.2h-7.8v5.5h6.8v2.2h-6.8v5.2h8.1v2.2h-10.4v-17.2L291.5,660.2L291.5,660.2z"/>
				<path class="st0" d="M310.5,660.2v2.2h-7.8v5.5h6.8v2.2h-6.8v5.2h8.1v2.2h-10.4v-17.2L310.5,660.2L310.5,660.2z"/>
				<path class="st0" d="M332.2,680.3h-1.5v-22.8h1.5V680.3z"/>
				<path class="st0" d="M364.1,660.2v2.2h-5.2v15h-2.3v-15h-5.2v-2.2H364.1z"/>
				<path class="st0" d="M382.3,660.2v2.2h-7.8v5.5h6.8v2.2h-6.8v5.2h8.1v2.2h-10.4v-17.2L382.3,660.2L382.3,660.2z"/>
				<path class="st0" d="M393.2,673l-1.7,4.4h-2.5l6.5-17.2h2.5l6.5,17.2h-2.4l-1.7-4.4H393.2z M399.7,670.9l-2.8-7.6l-2.8,7.6
					H399.7z"/>
			</g>
		</g>
	</g>
	<g>
		<g>
			<path class="st0" d="M42.3,304.8v-14.4h9.4v3h-5.9v2.8H51v3h-5.1v2.5h6v3L42.3,304.8L42.3,304.8z"/>
			<path class="st0" d="M61.3,300.5c0.1,0.8,0.5,1.4,1.8,1.4c0.9,0,1.8-0.4,1.8-1.3c0-0.2,0-0.7-1.4-1.2l-1.7-0.6
				c-3.2-0.9-3.8-2.9-3.8-4.2c0-2.6,2.1-4.4,5-4.4c2.9,0,5,1.6,5,4.5h-3.5c0-0.8-0.4-1.3-1.5-1.3c-0.9,0-1.5,0.5-1.5,1.1
				c0,0.3,0.1,0.8,1.3,1.2l1.6,0.5c3.8,1.2,4,3.4,4,4.4c0,3.2-2.9,4.4-5.3,4.4c-3.2,0-5.3-1.7-5.3-4.5L61.3,300.5L61.3,300.5z"/>
			<path class="st0" d="M73.8,293.4v-3h10.9v3H81v11.4h-3.5v-11.4H73.8z"/>
			<path class="st0" d="M91.1,290.4h5.7c4.2,0,6.5,3.1,6.5,7.2s-2.4,7.2-6.5,7.2h-5.7V290.4z M94.6,301.7h2.2c2,0,3-2,3-4.1
				s-1-4.1-3-4.1h-2.2V301.7z"/>
			<path class="st0" d="M111.2,301.1c1.1,0,2,0.8,2,1.9s-0.9,2-2,2c-1.1,0-2-0.8-2-2C109.2,302,110.1,301.1,111.2,301.1z"/>
		</g>
		<g>
			<path class="st0" d="M391.2,304.6h-9.7v-1.9l5.7-6.6c0.3-0.4,0.6-0.8,0.6-1.3c0-0.5-0.3-1.1-1.4-1.1c-1.2,0-1.6,0.9-1.7,1.9
				l-3-0.5c0.4-2.8,2.2-4.5,5-4.5c2.4,0,4.5,1.7,4.5,4.2c0,1.3-0.6,2.5-1.4,3.4l-3,3.3h4.5L391.2,304.6L391.2,304.6z"/>
			<path class="st0" d="M403,290.6c4,0,5.1,3.1,5.1,7.1c0,3.9-1.1,7-5.1,7c-4,0-5.2-3.1-5.2-7C397.8,293.8,399,290.6,403,290.6z
				 M403,301.5c1.3,0,1.8-1.7,1.8-3.8c0-2.1-0.5-3.9-1.8-3.9c-1.3,0-1.9,1.7-1.9,3.9C401.1,299.8,401.6,301.5,403,301.5z"/>
			<path class="st0" d="M420,290.5v14h-3.4v-9.3l-2.4,1.1v-2.9L420,290.5z"/>
			<path class="st0" d="M426.9,295.3c0-2.7,1.8-4.7,5.2-4.7c2.7,0,4.6,1.9,5,4.8c0.6,4.2-0.4,9.5-5.7,9.3c-1.7-0.1-3.3-0.6-4.3-2.7
				l2.7-1.3c0.3,0.7,0.8,1.1,1.7,1.1c2,0,2.5-2.3,2.5-3.8c-0.1,0.5-1,1.5-3,1.5C429.7,299.6,426.9,298.6,426.9,295.3z M432,293.6
				c-1.1,0-1.8,0.8-1.8,1.6c0,0.8,0.6,1.6,1.8,1.6c1,0,1.7-0.8,1.7-1.6C433.7,294.4,433,293.6,432,293.6z"/>
		</g>
	</g>
</g>
</svg>
