<?xml version="1.0" encoding="utf-8"?>
<!-- Generator: Adobe Illustrator 25.4.1, SVG Export Plug-In . SVG Version: 6.00 Build 0)  -->
<svg version="1.1" id="Layer_2" xmlns="http://www.w3.org/2000/svg" xmlns:xlink="http://www.w3.org/1999/xlink" x="0px" y="0px"
	 viewBox="0 0 1444.5 362.72" style="enable-background:new 0 0 1444.5 362.72;" xml:space="preserve">
<style type="text/css">
	.st0{fill:url(#SVGID_1_);}
	.st1{fill:#0E113D;}
	.st2{enable-background:new    ;}
	.st3{fill:url(#SVGID_00000139995671312237901040000012403525901279880089_);}
	.st4{fill:url(#SVGID_00000031203566635007073530000008565658359104635264_);}
	.st5{fill:url(#SVGID_00000167362615819236862230000007769718939056383927_);}
	.st6{fill:url(#SVGID_00000106854404315975750900000003197012575042152608_);}
</style>
<g>
	<g>
		<path class="st1" d="M362.75,167.81c-5.53,0-33.93,23.01-34.51,47.62c0,0-2.73,4.26,16.27,2.4c0,0-7.68,1.31-9.43,1.38h8.23
			l-7.86,0.66h7.21l-6.84,0.8l7.14,0.36l-12.81,0.73c0,0-2.71,6.83,14.6,3.22l-11.69,2.62l11.65-1.47l-11.8,2.26l11.9-1.2
			l-11.43,1.82l11.36-0.69l-12.3,1.78l13.29-0.62l-13.03,1.35l22.68-1.02l-22.17,1.78l19.51-0.18l-19.15,0.91l19.26,0.18
			l-18.75,0.51l41.25,0.76h-40.96l41.67,1.58l-41.45-0.27l41.45,1.2h-26.87l27.3,0.87h-27.47l27.47,0.71h-27.19l25.5,0.66
			l-26.32,0.33l15.18,0.82h-15.07l15.62,0.71h-15.78l15.67,0.6l-14.2,0.71c0,0,26.38,5.57,52.26-9.99c0,0-21.24,18.97-57.61,15.38
			c0,0,20.42,18.26,62.36-2.6c0,0-25.12,18.35-54.17,14.2c0,0,22.5,10.81,54.17,5.68c0,0-31.6,11.94-77.47-7.86
			c0,0,28.1,20.24,60.72,18.93c0,0-28.4,5.24-57.08-9.32c0,0,21.19,19.44,58.76,15.29c0,0-24.9,7.65-56.35-6.55
			c0,0,17.4,15.14,33.86,14.13c0,0-18.93,2.77-29.85-6.99c0,0,2.91,13.25,29.12,13.54c0,0-34.95,1.46-50.82-20.53
			c0.65,1.01,10.75,27.19,33.49,23.74c-2.64,0.88-6.74,1.26-15.58,0c6.39,5.83,14.83,6.52,23.01,7.86c0,0-40.19-2.91-48.49-22.57
			c0,0,2.62,19.08,37.86,24.76c0,0-26.94,2.48-44.27-19.08c0,0,25.34,32.91,39.32,27.09c0,0-11.8,11.94-46.16-24.9
			c0,0,26.36,32.62,33.06,30.29c0,0-10.34,10.63-49.66-39.9c0,0,23.48,46.34,30.87,40.83c0,0-4.15,6.35-23.48-17.9
			c0,0,2.84,16.82,24.79,27.3c0,0-24.57-7.32-34.08-27.85l7.75,16.82l-24.46-26.54c0,0,3.39,23.15,28.61,36.04
			c0,0-26.32-11.14-32.55-26.65c0,0-6.37,11.14,23.55,31.09c0,0-29.85-14.71-32.04-36.4c0,0-15.58,11.94,21.41,35.68
			c0,0-28.69-13.11-27.09-25.34c0,0-8.59,3.2,7.86,18.64c0,0-13.25-7.86-21.11-27.96c0.58,2.51-7.75,14.81,8.01,27.23
			c-1.27-0.91-9.99-6.16-15.44-19.22c0,0-9.94,6.72,8.45,24.46c0,0-22.57-16.31-23.01-41.94c0,0-12.23,3.93,2.62,29.71
			c0,0-9.03-11.8-10.63-19.8c0,0-11.65,9.32,8.74,28.25c0,0-17.62-8.15-16.75-28.25c-1.1,1.25-12.89,2.74-0.03,21.84
			c-2.39-2.16-11.27-14.83-8.27-18.06c-0.43,3.96-13.4,13.08,12.09,36.84c0,0-27.52-20.24-21.11-38.73c0,0-11.07-2.62,1.02,24.03
			c0,0-13.69-11.5-10.78-33.2c0,0-11.94-6.99-4.51,33.93c0,0-5.92-14.05-6.26-21.72c-0.08-1.88-1.36-3.6-3.23-3.84
			c-5-0.65-3.86,8.68-0.12,22.21c0,0-12.41-25.45-4.81-32.91c0,0-5.1,0.15-4.08,12.96c0,0-3.18-5.39-0.13-21.7
			c0,0-7.58-2.91-8.75,17.33c0,0-2.33-11.36,0-21.26c0,0-10.05-3.06-4.08,22.86c0,0-8.59-9.32-7.72-20.82
			c-0.98,0.58-7.69,2.82-4.37,18.93c-1.96-6.01-3.52-11.78-3.49-16.6l-11.14,5.39c0,0,19.01-13.75,8.74-16.16
			c-6.7-1.57-11.04,8.34-11.58,9.61c0,0-1.75-9.83,4.15-12.45c5.9-2.62-15.95-4.37-27.3,9.61c0,0,15.58-30.07,85.19-15.8
			s147.94-24.67,160.76-49.22C346.44,167.81,362.75,167.81,362.75,167.81z"/>
		<path class="st1" d="M85.78,225.04c0,0,127.56-148.1,254.25-66.84C340.03,158.2,241.59,27.15,85.78,225.04z"/>
		<path class="st1" d="M26.66,167.81C116.3,179.8,209.85-5.62,380.22,61.22c1.48,3.45-93.78-128.73-331.43,71.65
			C37.98,142.56,30.23,154,26.66,167.81z"/>
	</g>
	<g>
		<g>
			<path class="st1" d="M593.15,143.84c10.34,2.2,18.07,5.72,23.2,10.56c7.11,6.75,10.67,14.99,10.67,24.74
				c0,7.41-2.35,14.5-7.04,21.28c-4.69,6.78-11.12,11.73-19.3,14.84c-8.17,3.12-20.65,4.67-37.44,4.67h-70.37v-4.07h5.61
				c6.23,0,10.7-1.98,13.41-5.94c1.68-2.56,2.53-8.03,2.53-16.38V97.22c0-9.24-1.06-15.07-3.19-17.49
				c-2.86-3.22-7.11-4.84-12.75-4.84h-5.61v-4.07h64.44c12.02,0,21.66,0.88,28.92,2.64c11,2.64,19.39,7.31,25.18,14.02
				c5.79,6.71,8.69,14.42,8.69,23.15c0,7.48-2.27,14.17-6.82,20.07C608.73,136.6,602.02,140.98,593.15,143.84z M535.53,137.9
				c2.71,0.51,5.81,0.9,9.29,1.15c3.48,0.26,7.31,0.39,11.49,0.39c10.7,0,18.75-1.16,24.14-3.46c5.39-2.31,9.51-5.85,12.37-10.61
				c2.86-4.76,4.29-9.97,4.29-15.61c0-8.72-3.56-16.16-10.67-22.32c-7.11-6.16-17.48-9.24-31.12-9.24c-7.33,0-13.93,0.81-19.79,2.42
				V137.9z M535.53,209.16c8.5,1.98,16.9,2.97,25.18,2.97c13.27,0,23.38-2.98,30.35-8.96c6.96-5.98,10.45-13.36,10.45-22.16
				c0-5.79-1.58-11.36-4.73-16.71c-3.15-5.35-8.29-9.57-15.4-12.64c-7.11-3.08-15.91-4.62-26.39-4.62c-4.55,0-8.43,0.07-11.66,0.22
				c-3.23,0.15-5.83,0.4-7.81,0.77V209.16z"/>
			<path class="st1" d="M795.29,170.01h-57.73l-10.12,23.53c-2.49,5.79-3.74,10.12-3.74,12.98c0,2.27,1.08,4.27,3.24,5.99
				c2.16,1.72,6.83,2.84,14.02,3.36v4.07h-46.95v-4.07c6.23-1.1,10.26-2.53,12.1-4.29c3.74-3.52,7.88-10.67,12.43-21.44
				l52.45-122.71h3.85l51.9,124.03c4.18,9.97,7.97,16.44,11.38,19.41c3.41,2.97,8.16,4.64,14.24,5v4.07h-58.83v-4.07
				c5.94-0.29,9.95-1.28,12.04-2.97c2.09-1.68,3.14-3.74,3.14-6.16c0-3.23-1.47-8.32-4.4-15.29L795.29,170.01z M792.21,161.87
				l-25.29-60.26l-25.95,60.26H792.21z"/>
			<path class="st1" d="M1011.83,143.84c10.34,2.2,18.07,5.72,23.2,10.56c7.11,6.75,10.67,14.99,10.67,24.74
				c0,7.41-2.35,14.5-7.04,21.28c-4.69,6.78-11.13,11.73-19.3,14.84c-8.18,3.12-20.65,4.67-37.44,4.67h-70.37v-4.07h5.61
				c6.23,0,10.7-1.98,13.41-5.94c1.68-2.56,2.53-8.03,2.53-16.38V97.22c0-9.24-1.06-15.07-3.19-17.49
				c-2.86-3.22-7.11-4.84-12.75-4.84h-5.61v-4.07h64.44c12.02,0,21.66,0.88,28.92,2.64c10.99,2.64,19.39,7.31,25.18,14.02
				c5.79,6.71,8.69,14.42,8.69,23.15c0,7.48-2.27,14.17-6.82,20.07C1027.4,136.6,1020.7,140.98,1011.83,143.84z M954.21,137.9
				c2.71,0.51,5.81,0.9,9.29,1.15c3.48,0.26,7.31,0.39,11.49,0.39c10.7,0,18.75-1.16,24.14-3.46c5.39-2.31,9.51-5.85,12.37-10.61
				c2.86-4.76,4.29-9.97,4.29-15.61c0-8.72-3.56-16.16-10.67-22.32c-7.11-6.16-17.48-9.24-31.12-9.24c-7.33,0-13.93,0.81-19.79,2.42
				V137.9z M954.21,209.16c8.5,1.98,16.9,2.97,25.18,2.97c13.27,0,23.38-2.98,30.35-8.96c6.96-5.98,10.45-13.36,10.45-22.16
				c0-5.79-1.58-11.36-4.73-16.71c-3.15-5.35-8.29-9.57-15.39-12.64c-7.11-3.08-15.91-4.62-26.39-4.62c-4.55,0-8.43,0.07-11.66,0.22
				c-3.22,0.15-5.83,0.4-7.81,0.77V209.16z"/>
			<path class="st1" d="M1157.99,78.96v58.94h32.77c8.5,0,14.18-1.28,17.04-3.85c3.81-3.37,5.94-9.31,6.38-17.81h4.07v51.9h-4.07
				c-1.03-7.26-2.05-11.91-3.08-13.96c-1.32-2.56-3.48-4.58-6.49-6.05c-3.01-1.47-7.63-2.2-13.86-2.2h-32.77v49.15
				c0,6.6,0.29,10.61,0.88,12.04c0.59,1.43,1.61,2.57,3.08,3.41c1.47,0.84,4.25,1.27,8.36,1.27h25.29c8.43,0,14.55-0.59,18.36-1.76
				c3.81-1.17,7.48-3.48,11-6.93c4.54-4.55,9.2-11.4,13.96-20.56h4.4l-12.87,37.39h-114.91v-4.07h5.28c3.52,0,6.85-0.84,10.01-2.53
				c2.34-1.17,3.94-2.93,4.78-5.28c0.84-2.35,1.26-7.15,1.26-14.41V96.78c0-9.45-0.95-15.28-2.86-17.48
				c-2.64-2.93-7.04-4.4-13.19-4.4h-5.28v-4.07h114.91l1.65,32.66h-4.29c-1.54-7.84-3.25-13.23-5.11-16.16
				c-1.87-2.93-4.64-5.17-8.3-6.71c-2.93-1.1-8.1-1.65-15.5-1.65H1157.99z"/>
			<path class="st1" d="M1404.66,67.42v51.57h-4.07c-1.32-9.9-3.68-17.78-7.09-23.64c-3.41-5.86-8.27-10.52-14.57-13.96
				s-12.83-5.17-19.57-5.17c-7.63,0-13.93,2.33-18.91,6.98c-4.99,4.66-7.48,9.95-7.48,15.89c0,4.55,1.58,8.69,4.73,12.42
				c4.54,5.5,15.36,12.83,32.44,21.99c13.93,7.48,23.44,13.22,28.53,17.21c5.1,4,9.02,8.71,11.77,14.13
				c2.75,5.43,4.12,11.1,4.12,17.04c0,11.29-4.38,21.02-13.14,29.2c-8.76,8.17-20.03,12.26-33.82,12.26c-4.33,0-8.39-0.33-12.2-0.99
				c-2.27-0.37-6.98-1.71-14.13-4.02c-7.15-2.31-11.68-3.46-13.58-3.46c-1.83,0-3.28,0.55-4.34,1.65c-1.06,1.1-1.85,3.37-2.37,6.82
				h-4.07v-51.13h4.07c1.91,10.71,4.47,18.71,7.7,24.03c3.23,5.31,8.16,9.73,14.79,13.25c6.63,3.52,13.91,5.28,21.83,5.28
				c9.16,0,16.4-2.42,21.72-7.26c5.31-4.84,7.97-10.56,7.97-17.15c0-3.67-1.01-7.37-3.02-11.11c-2.02-3.74-5.15-7.22-9.4-10.45
				c-2.86-2.2-10.67-6.87-23.42-14.02s-21.83-12.85-27.21-17.1c-5.39-4.25-9.48-8.94-12.26-14.07c-2.79-5.13-4.18-10.78-4.18-16.93
				c0-10.7,4.1-19.92,12.32-27.66c8.21-7.73,18.65-11.6,31.34-11.6c7.92,0,16.31,1.94,25.18,5.83c4.1,1.83,7,2.75,8.68,2.75
				c1.91,0,3.47-0.57,4.68-1.71c1.21-1.14,2.18-3.43,2.91-6.87H1404.66z"/>
		</g>
		<g>
			<path class="st1" d="M566.4,294.65v-28.28h3.74v24.94h13.93v3.34H566.4z"/>
			<path class="st1" d="M605.06,294.65l10.86-28.28h4.03l11.57,28.28h-4.26l-3.3-8.56h-11.82l-3.11,8.56H605.06z M613.22,283.03
				h9.59l-2.95-7.83c-0.9-2.38-1.57-4.33-2.01-5.87c-0.36,1.81-0.87,3.61-1.52,5.4L613.22,283.03z"/>
			<path class="st1" d="M652.87,285.56l3.53-0.31c0.17,1.41,0.56,2.57,1.17,3.48c0.61,0.9,1.56,1.64,2.85,2.2
				c1.29,0.56,2.73,0.84,4.34,0.84c1.43,0,2.69-0.21,3.78-0.64c1.09-0.43,1.91-1.01,2.44-1.75c0.53-0.74,0.8-1.55,0.8-2.42
				c0-0.89-0.26-1.66-0.77-2.32c-0.51-0.66-1.36-1.22-2.55-1.67c-0.76-0.3-2.44-0.75-5.03-1.38c-2.6-0.62-4.42-1.21-5.46-1.76
				c-1.35-0.71-2.36-1.59-3.02-2.63c-0.66-1.05-0.99-2.22-0.99-3.52c0-1.43,0.4-2.76,1.21-4c0.81-1.24,1.99-2.18,3.55-2.83
				c1.56-0.64,3.29-0.96,5.19-0.96c2.1,0,3.95,0.34,5.55,1.01c1.6,0.67,2.83,1.67,3.69,2.98c0.86,1.31,1.32,2.8,1.39,4.46
				l-3.59,0.27c-0.19-1.79-0.85-3.14-1.96-4.05c-1.11-0.91-2.75-1.37-4.93-1.37c-2.26,0-3.91,0.41-4.95,1.25
				c-1.04,0.83-1.55,1.83-1.55,3c0,1.02,0.37,1.85,1.1,2.51c0.72,0.66,2.6,1.33,5.64,2.02c3.04,0.69,5.13,1.29,6.26,1.8
				c1.65,0.76,2.86,1.72,3.65,2.88c0.78,1.16,1.18,2.5,1.18,4.02c0,1.5-0.43,2.92-1.29,4.25c-0.86,1.33-2.1,2.37-3.71,3.11
				c-1.61,0.74-3.43,1.11-5.45,1.11c-2.56,0-4.7-0.37-6.43-1.12c-1.73-0.75-3.09-1.87-4.07-3.37
				C653.44,289.15,652.92,287.45,652.87,285.56z"/>
			<path class="st1" d="M700.24,294.65v-28.28h3.74v11.61h14.7v-11.61h3.74v28.28h-3.74v-13.33h-14.7v13.33H700.24z"/>
			<path class="st1" d="M794.62,291.31c-1.14,1.27-2.39,2.23-3.74,2.87c-1.35,0.64-2.81,0.95-4.38,0.95c-2.89,0-5.19-0.98-6.89-2.93
				c-1.38-1.59-2.06-3.37-2.06-5.34c0-1.75,0.56-3.33,1.69-4.74c1.13-1.41,2.81-2.64,5.04-3.71c-1.27-1.47-2.12-2.66-2.55-3.57
				c-0.42-0.91-0.64-1.79-0.64-2.64c0-1.7,0.66-3.17,2-4.43c1.33-1.25,3.01-1.88,5.02-1.88c1.93,0,3.51,0.59,4.74,1.77
				c1.23,1.18,1.84,2.6,1.84,4.26c0,2.69-1.78,4.98-5.34,6.89l5.07,6.46c0.58-1.13,1.03-2.44,1.35-3.94l3.61,0.77
				c-0.62,2.47-1.45,4.5-2.51,6.1c1.3,1.72,2.77,3.17,4.42,4.34l-2.33,2.76C797.56,294.4,796.11,293.07,794.62,291.31z
				 M792.44,288.57l-6.37-7.89c-1.88,1.12-3.14,2.16-3.8,3.11c-0.66,0.96-0.98,1.91-0.98,2.85c0,1.14,0.46,2.33,1.37,3.57
				c0.91,1.23,2.21,1.85,3.88,1.85c1.04,0,2.12-0.32,3.23-0.97C790.88,290.44,791.77,289.6,792.44,288.57z M787.56,276.57
				c1.5-0.89,2.48-1.67,2.92-2.33c0.44-0.67,0.67-1.41,0.67-2.22c0-0.96-0.31-1.75-0.92-2.36s-1.37-0.92-2.29-0.92
				c-0.94,0-1.72,0.3-2.34,0.91c-0.62,0.6-0.94,1.34-0.94,2.22c0,0.44,0.11,0.9,0.34,1.38c0.23,0.48,0.56,0.99,1.01,1.53
				L787.56,276.57z"/>
			<path class="st1" d="M855.45,294.65v-28.28h3.84l14.85,22.2v-22.2h3.59v28.28h-3.84l-14.85-22.22v22.22H855.45z"/>
			<path class="st1" d="M900.55,294.65l10.86-28.28h4.03l11.57,28.28h-4.26l-3.3-8.56h-11.82l-3.11,8.56H900.55z M908.71,283.03
				h9.59l-2.95-7.83c-0.9-2.38-1.57-4.33-2.01-5.87c-0.36,1.81-0.87,3.61-1.52,5.4L908.71,283.03z"/>
			<path class="st1" d="M950.27,294.65v-28.28h3.74v28.28H950.27z"/>
			<path class="st1" d="M980.09,294.65v-28.28h3.74v24.94h13.93v3.34H980.09z"/>
			<path class="st1" d="M1020.57,285.56l3.53-0.31c0.17,1.41,0.56,2.57,1.17,3.48c0.61,0.9,1.56,1.64,2.84,2.2
				c1.29,0.56,2.73,0.84,4.34,0.84c1.43,0,2.69-0.21,3.78-0.64c1.09-0.43,1.91-1.01,2.44-1.75c0.53-0.74,0.8-1.55,0.8-2.42
				c0-0.89-0.26-1.66-0.77-2.32c-0.52-0.66-1.36-1.22-2.55-1.67c-0.76-0.3-2.44-0.75-5.03-1.38c-2.6-0.62-4.42-1.21-5.46-1.76
				c-1.35-0.71-2.36-1.59-3.02-2.63c-0.66-1.05-0.99-2.22-0.99-3.52c0-1.43,0.4-2.76,1.21-4c0.81-1.24,1.99-2.18,3.55-2.83
				c1.56-0.64,3.29-0.96,5.19-0.96c2.1,0,3.95,0.34,5.55,1.01s2.83,1.67,3.69,2.98c0.86,1.31,1.33,2.8,1.39,4.46l-3.59,0.27
				c-0.19-1.79-0.84-3.14-1.96-4.05c-1.11-0.91-2.75-1.37-4.93-1.37c-2.26,0-3.91,0.41-4.95,1.25c-1.04,0.83-1.56,1.83-1.56,3
				c0,1.02,0.37,1.85,1.1,2.51c0.72,0.66,2.6,1.33,5.64,2.02s5.13,1.29,6.26,1.8c1.65,0.76,2.86,1.72,3.65,2.88
				c0.79,1.16,1.17,2.5,1.17,4.02c0,1.5-0.43,2.92-1.29,4.25c-0.86,1.33-2.1,2.37-3.71,3.11c-1.61,0.74-3.43,1.11-5.45,1.11
				c-2.56,0-4.7-0.37-6.43-1.12c-1.73-0.75-3.09-1.87-4.07-3.37C1021.14,289.15,1020.63,287.45,1020.57,285.56z"/>
			<path class="st1" d="M1097.16,285.56l3.53-0.31c0.17,1.41,0.56,2.57,1.17,3.48c0.61,0.9,1.56,1.64,2.84,2.2
				c1.29,0.56,2.73,0.84,4.34,0.84c1.43,0,2.69-0.21,3.78-0.64c1.09-0.43,1.91-1.01,2.44-1.75c0.53-0.74,0.8-1.55,0.8-2.42
				c0-0.89-0.26-1.66-0.77-2.32c-0.52-0.66-1.36-1.22-2.55-1.67c-0.76-0.3-2.44-0.75-5.03-1.38c-2.6-0.62-4.42-1.21-5.46-1.76
				c-1.35-0.71-2.36-1.59-3.02-2.63c-0.66-1.05-0.99-2.22-0.99-3.52c0-1.43,0.4-2.76,1.21-4c0.81-1.24,1.99-2.18,3.55-2.83
				c1.56-0.64,3.29-0.96,5.19-0.96c2.1,0,3.94,0.34,5.55,1.01c1.6,0.67,2.83,1.67,3.69,2.98c0.86,1.31,1.33,2.8,1.39,4.46
				l-3.59,0.27c-0.19-1.79-0.84-3.14-1.96-4.05c-1.11-0.91-2.75-1.37-4.93-1.37c-2.26,0-3.91,0.41-4.95,1.25
				c-1.04,0.83-1.56,1.83-1.56,3c0,1.02,0.37,1.85,1.1,2.51c0.72,0.66,2.6,1.33,5.64,2.02c3.04,0.69,5.13,1.29,6.26,1.8
				c1.65,0.76,2.86,1.72,3.65,2.88c0.79,1.16,1.17,2.5,1.17,4.02c0,1.5-0.43,2.92-1.29,4.25c-0.86,1.33-2.1,2.37-3.71,3.11
				c-1.61,0.74-3.43,1.11-5.45,1.11c-2.56,0-4.7-0.37-6.43-1.12c-1.73-0.75-3.09-1.87-4.07-3.37
				C1097.73,289.15,1097.22,287.45,1097.16,285.56z"/>
			<path class="st1" d="M1151.62,294.65v-24.94h-9.32v-3.34h22.41v3.34h-9.35v24.94H1151.62z"/>
			<path class="st1" d="M1206.74,266.37h3.74v16.34c0,2.84-0.32,5.1-0.96,6.77c-0.64,1.67-1.8,3.03-3.48,4.08
				c-1.68,1.05-3.88,1.57-6.61,1.57c-2.65,0-4.82-0.46-6.5-1.37c-1.68-0.91-2.89-2.24-3.61-3.96c-0.72-1.73-1.08-4.09-1.08-7.09
				v-16.34h3.74v16.32c0,2.45,0.23,4.26,0.68,5.43c0.46,1.16,1.24,2.06,2.36,2.69c1.11,0.63,2.47,0.94,4.08,0.94
				c2.75,0,4.71-0.62,5.88-1.87c1.17-1.25,1.75-3.65,1.75-7.19V266.37z"/>
			<path class="st1" d="M1236.34,294.65v-28.28h9.74c2.2,0,3.88,0.13,5.03,0.4c1.62,0.37,3,1.05,4.15,2.02
				c1.49,1.26,2.61,2.87,3.35,4.83c0.74,1.96,1.11,4.2,1.11,6.72c0,2.15-0.25,4.05-0.75,5.71c-0.5,1.66-1.14,3.03-1.93,4.12
				c-0.78,1.09-1.64,1.94-2.57,2.57c-0.93,0.62-2.06,1.1-3.37,1.42c-1.32,0.32-2.83,0.48-4.54,0.48H1236.34z M1240.09,291.31h6.04
				c1.87,0,3.33-0.17,4.39-0.52c1.06-0.35,1.91-0.83,2.54-1.46c0.89-0.89,1.58-2.08,2.07-3.58c0.49-1.5,0.74-3.31,0.74-5.45
				c0-2.96-0.48-5.23-1.46-6.82c-0.97-1.59-2.15-2.65-3.54-3.19c-1-0.38-2.62-0.58-4.84-0.58h-5.94V291.31z"/>
			<path class="st1" d="M1285.15,294.65v-28.28h3.74v28.28H1285.15z"/>
			<path class="st1" d="M1313.98,280.87c0-4.69,1.26-8.37,3.78-11.02c2.52-2.66,5.77-3.98,9.76-3.98c2.61,0,4.96,0.63,7.06,1.87
				c2.1,1.25,3.69,2.99,4.79,5.22c1.1,2.23,1.65,4.76,1.65,7.59c0,2.87-0.58,5.43-1.74,7.69c-1.16,2.26-2.8,3.98-4.92,5.14
				c-2.12,1.17-4.41,1.75-6.87,1.75c-2.66,0-5.04-0.64-7.14-1.93c-2.1-1.29-3.68-3.04-4.76-5.26
				C1314.52,285.71,1313.98,283.36,1313.98,280.87z M1317.84,280.93c0,3.41,0.92,6.09,2.75,8.06c1.83,1.96,4.13,2.94,6.9,2.94
				c2.82,0,5.14-0.99,6.95-2.97c1.82-1.98,2.73-4.79,2.73-8.43c0-2.3-0.39-4.31-1.17-6.03c-0.78-1.71-1.92-3.05-3.41-3.99
				c-1.5-0.94-3.18-1.42-5.04-1.42c-2.65,0-4.93,0.91-6.84,2.73C1318.79,273.64,1317.84,276.68,1317.84,280.93z"/>
		</g>
	</g>
</g>
</svg>
