<?xml version="1.0" encoding="utf-8"?>
<!-- Generator: Adobe Illustrator 25.4.1, SVG Export Plug-In . SVG Version: 6.00 Build 0)  -->
<svg version="1.1" xmlns="http://www.w3.org/2000/svg" xmlns:xlink="http://www.w3.org/1999/xlink" x="0px" y="0px"
	 viewBox="0 0 647.49 394.09" style="enable-background:new 0 0 647.49 394.09;" xml:space="preserve">
<style type="text/css">
	.st0{fill:#1E9146;}
	.st1{fill:#F68F46;}
	.st2{fill:#EC9922;}
	.st3{font-family:'BerlinSansFBDemi-Bold';}
	.st4{font-size:153.7309px;}
	.st5{font-family:'Futura-Bold';}
	.st6{font-size:24px;}
</style>
<g id="Layer_1">
	<g>
		<g>
			<path class="st0" d="M604.29,129.65c14.15,10.49,27.36,22.13,40.82,33.54c-4.46,0.14-6.13-4.78-10.24-5.41
				c0.06,2.33,2.03,3.87,3.39,4.57c3.4,1.74,4.33,4.87,5.79,7.79c0.5,1,1.18,1.98,1.41,3.04c0.27,1.26,3.23,1.72,1.47,3.11
				c-1.17,0.93-2.15-1.51-2.81-2.35c-4.37-5.48-9.91-9.73-15.48-13.62c-5.62-3.92-10.67-8.6-16.62-12.09
				c-6.28-3.68-12.35-7.71-18.49-11.62c-8.28-5.27-17.24-9.23-26-13.58c-10.24-5.08-21.04-8.77-31.61-13.04
				c-5.38-2.17-11.26-2.88-16.32-5.98c-1.67-1.02-3.86-1.14-6.23-0.79c0.48,1.11,1.07,1.72,2.23,2.07c5.73,1.71,11.59,3.14,17.1,5.4
				c4.91,2.01,9.71,4.29,14.71,6.14c5.1,1.89,10.1,4.06,15.06,6.29c9.4,4.22,18.94,8.17,27.77,13.57c0.53,0.32,1.35,0.77,1.38,1.19
				c0.35,5.66,5.77,6.66,8.9,9.73c0.49,0.48,1.2,0.69,1.6,1.42c3.68,6.76,10.18,10.79,15.61,15.85c1.19,1.11,2.36,2.2,3.43,3.41
				l0.1-0.1c-2.85,1.06-4.07-1.46-5.62-2.8c-5.18-4.49-11.02-7.92-16.8-11.54c-5.77-3.62-11.96-6.37-17.85-9.71
				c-0.73-0.41-1.45-0.96-1.89-0.19c-0.46,0.83,0.52,1.12,1.17,1.52c9.95,6.09,19.06,13.38,28.65,19.99
				c0.91,0.63,1.45,1.33,1.91,3.01c-3.39-2.98-7.06-4.44-10.28-6.84c-6.04-4.5-12.57-8.33-19.27-11.83
				c-7.35-3.84-14.59-7.92-22.12-11.37c-6.78-3.1-13.29-6.89-20.58-8.86c-4.47-1.21-8.43-3.8-13.02-4.88
				c-1.68-0.39-2.79-0.8-4.69-0.41c-2.24,0.45-4.96-0.78-7.32-1.68c-9.4-3.56-19.06-5.68-29.1-6.58c-7.57-0.67-15.06-2.2-22.59-3.34
				c-0.37-0.06-0.75-0.1-1.13-0.14c-19.39-2.09-38.84-2.68-58.29-1.58c-11.12,0.63-22.26,1.9-33.25,3.74
				c-4.9,0.82-9.75,2.74-14.69,3.68c-11.54,2.19-22.44,6.06-33.17,10.73c-3.93,1.71-8.36,2.23-12.02,4.79
				c-2.81,1.97-4.94,4.68-7.92,6.6c-1.71,1.1-3.67,1.57-5.37,2.69c-6.24,4.12-13.76,5.54-20.46,8.8c-5.77,2.8-11.75,5.17-17.63,7.74
				c-5.64,2.46-11.02,5.48-16.95,7.3c-2.3,0.71-2.28-0.91-2.67-2.07c-1.24-3.66-2.75-4.55-5.95-2.67c-2.1,1.23-4.56,1.19-6.59,2.65
				c-1.72,1.24-2.52-0.68-3.49-1.78c-1.26-1.43-1.46-2.71-0.14-4.27c3.67-4.36,8.48-7.46,12.48-11.46c1.46-1.46,3.09-2.7,4.35-4.41
				c2.17-2.94,2.16-4.36-1.3-5.38c-2.63-0.78-1.89-2.14-0.94-3.07c1.54-1.51,2.16-3.54,3.62-5.12c1.68-1.82,3.87-4.13,0.86-6.94
				c-0.7-0.65-0.07-1.83,0.8-2.61c2.58-2.28,3.81-5.39,5.29-8.4c1.24-2.5,3.96-3.83,6.27-4.93c5.87-2.8,12.1-4.82,18.06-7.44
				c8.43-3.69,17.24-6.46,25.42-10.77c2.7-1.43,6.03-1.41,9.05-2.27c14.02-3.99,27.73-9.12,42.6-9.96
				c5.65-0.32,11.68-0.34,17.09-2.1c6.67-2.18,13.68-1.18,20.33-3.38c5.64-1.86,11.76-1.65,17.71-1.32
				c7.56,0.42,15.03-0.69,22.53-1.06c9.41-0.46,18.64,0.93,27.91,1.9c6.98,0.73,14.07,1.21,20.85,2.86
				c8.84,2.15,17.91,2.87,26.73,5.38c5.81,1.66,11.78,3.36,17.34,5.42c6.92,2.56,13.96,4.93,20.89,7.5c4.75,1.76,9.8,2.77,14.27,5.3
				c5.82,3.29,12.38,4.78,18.23,8.16c5.17,2.99,11.35,4.16,16.46,7.46c2.05,1.32,4.61,1.85,6.17,3.93c0.56,0.75,2.42,0.11,1.92,2.12
				c-0.47,1.88-1.65,1.55-2.87,1.44c-0.73-0.07-3.8,1.33-3.12-0.58c0.38-1.06,0.07-1.34-0.78-1.59c-6.44-1.94-12.46-4.8-18.53-7.7
				c-7.38-3.54-15.41-5.47-23.76-7.85c1.17,1.8,2.2,2.92,3.92,3.6c3.43,1.37,6.64,3.38,10.16,4.4c2.89,0.84,4.59,3.22,7.43,4.21
				c6.4,2.25,12.51,5.34,18.72,8.14c5.38,2.42,10.73,4.91,16.09,7.36L604.29,129.65z"/>
			<path class="st1" d="M111.94,180.31c-0.06-4.03-0.8-7.4,0.87-10.64c1.32-2.55-0.86-3.97-2-5.61c-0.53-0.76-1.71-1.1-1.67-2.3
				c0.21-6.73,0.46-13.2,5.04-19.06c7.25-9.27,15.69-17.5,22.82-26.83c8.65-11.32,19.47-20.5,30.21-29.56
				c7.62-6.43,16.63-11.37,24.9-17.08c7.41-5.12,15.16-9.9,21.97-15.93c3.99-3.53,8.66-5.85,13.74-7.71
				c4.78-1.75,9.11-4.76,13.59-7.29c6.25-3.53,12.8-6.29,19.47-9c8.47-3.45,17.35-5.6,25.77-9.18c3.9-1.66,8.46-2.06,12.65-3.37
				c4.37-1.37,8.81-2.53,13.22-3.76c0.48-0.13,1-0.15,1.51-0.19c8.39-0.64,16.54-2.77,24.99-3.44c5.8-0.46,11.96-0.55,17.8-2.66
				c3.65-1.31,8-0.82,12.03-0.9c6.2-0.12,12.4-0.03,18.56-0.58c-8.57,1.5-17.13,2.99-25.7,4.49c7.87,1.52,15.7-0.43,21.72,0.2
				c-3.38-0.59-7.94,1.48-12.82,3.24c0.89,1.88,2.46,1.64,3.87,1.61c11.14-0.21,22.27-0.41,33.41-0.69c4.15-0.1,8.2-1.2,12.42-1.07
				c8.95,0.28,17.67,1.46,26.48,3.3c7.48,1.56,14.98,3.26,22.45,4.86c4.27,0.91,8.94,1.54,13.5,4.32c-3.93,0.04-7-1.07-10.3-1.13
				c5.3,4.54,13.51,3.96,18.33,10.48c-4.92-1.27-9.39-2.06-13.56-3.64c-2.21-0.83-4.4-1.12-6.6-1.34
				c-10.12-1.01-19.76-4.36-30.06-4.93c-20.28-1.12-40.56-3.16-60.84-1.36c-8.85,0.79-17.84,1.03-26.59,3.2
				c-3.75,0.93-7.81,0.56-11.72,0.9c-0.87,0.08-2.39-0.17-2.32,1.3c0.07,1.52,1.51,1.1,2.4,0.97c4.48-0.7,9.05-0.07,13.51-1.58
				c2.68-0.91,5.69-1.01,8.63-1.01c14.27,0.01,28.4-2.61,42.7-2.21c4.05,0.11,8.1,0.06,12.15,0.25c2.92,0.14,6.16-0.69,8.15,2.73
				c0.55,0.95,2.07,1.25,3.39,1.39c4.3,0.45,8.2,1.01,12.15,3.92c2.71,2,7.29,3.23,11.22,3.46c4.85,0.29,9.11,2.63,13.88,3.21
				c-1.59,0.87-3.42,0.97-4.92,0.47c-14.14-4.78-28.73-4.66-43.36-4.23c-0.24,0.01-0.48,0.12-0.79,0.54
				c8.39,2.25,17.27,1.92,23.9,4.5c-20.06-1.08-41.84-0.45-63.62-0.72c-6.88-0.09-13.7,1.05-20.12,2.81
				c-5.67,1.55-11.34,1.79-16.93,2.9c-5.11,1.02-10.6,1.12-15.21,4.53c-1.85,1.37-4.72,1.95-7.01,2.33
				c-6.56,1.11-12.58,3.83-18.77,5.86c-6.51,2.13-13.15,4.25-19.38,7.16c-4.25,1.98-8.69,3.44-12.86,5.64
				c-8.89,4.69-18.08,8.84-26.64,14.15c-7.77,4.82-15.99,9.04-23.07,14.83c-6.39,5.23-12.52,10.84-18.78,16.22
				c-9.3,7.99-16.57,17.61-24.67,26.57c-1.09,1.21-2.15,2.33-1.34,4.33c0.61,1.5-0.58,2.85-1.49,4.06
				c-4.68,6.21-9.28,12.46-14.36,18.39c-6.45,7.53-12.81,15.2-18.21,23.6c-2.08,3.24-5.28,5.77-7.95,8.64
				c-1.07,1.15-1.68,0.58-2.74-0.27c-3.79-3.01-5.73-2.58-8.47,1.43c-0.76,1.11-1.52,2.29-2.52,3.16c-1.18,1.02-2.62,1.37-4.23,0.67
				c-1.47-0.64-2.07-1.64-2.06-3.21c0.03-4.03,2.08-7.48,3.12-11.22c0.97-3.48,3.19-6.56,3.33-10.28c0.06-1.46,0.73-3.38-0.7-4.27
				C115.77,177.66,114.06,178.73,111.94,180.31z"/>
			<path class="st2" d="M73.01,103.88c2.99-4.32,5.96-8.64,9.39-12.64c0.63-0.74,1.3-1.62,2.08-1.09c1.1,0.74-0.02,1.44-0.51,2.12
				c-1.4,1.92-2.84,3.83-4.08,5.86c-0.56,0.92-2.6,1.93-1.1,2.99c1.23,0.87,1.9-1.23,2.73-2.04c3.29-3.21,6.05-6.95,10.3-10.32
				c-0.58,1.98-1.39,3.63,0.12,4.47c1.5,0.84,2.22-0.96,3.01-1.7c9.3-8.78,18.5-17.67,27.73-26.53
				c7.05-6.77,14.53-12.82,23.21-17.61c5.76-3.18,11.63-6.25,17.24-9.73c1.3-0.81,2.39-0.63,4.17,0.05c2.83,1.08,6.19-0.9,9.1-2.27
				c1.6-0.75,3.04-1.76,5.31-0.86c-2.52,1.73-4.76,3.41-7.13,4.85c-4.27,2.59-8.56,5.2-12.99,7.51c-4,2.08-7.53,4.78-11.21,7.31
				c-6.68,4.59-12.88,9.8-19.47,14.49c-7.98,5.68-14.6,12.82-21.73,19.42c-7.08,6.56-13.27,13.95-19.6,21.21
				c-2.8,3.21-5.15,6.79-8.23,9.78c-0.67,0.65-1.01,1.72-1.31,2.66c-0.31,0.96-0.52,2.19,0.41,2.82c1.23,0.84,1.76-0.5,2.35-1.21
				c2.47-3,4.81-6.11,7.35-9.05c8.78-10.15,18.21-19.69,27.71-29.17c4.89-4.87,10.07-9.35,15.36-13.79
				c3.69-3.1,8.57-2.75,12.07-5.68c3.49-2.93,7.9-2.95,12.77-3.93c-6.25,5.3-12,10.29-17.89,15.11c-2.08,1.7-3.89,3.56-5.47,5.69
				c-0.38,0.52-0.84,1.05-0.26,1.65c0.57,0.58,1.12,0.09,1.7-0.14c3.35-1.35,5.32-4.54,8.39-6.26c0.63-0.36,1.12-0.94,2.19-0.72
				c-0.75,2.55-3.24,3.19-4.74,4.62c-8,7.59-16.77,14.4-24.45,22.28c-5.86,6.01-12.28,11.7-15.85,19.81
				c-1.58,3.59-4.81,6.61-7.75,9.4c-5.25,4.98-7.27,11.84-11.01,17.69c-2.75,4.3-5.16,8.83-7.37,13.44
				c-3.07,6.4-5.35,13.21-8.79,19.38c-5.23,9.38-8.12,19.54-11.52,29.58c-3.24,9.58-6.07,19.27-8.24,29.13
				c-1.84,8.36-2.78,16.88-3.13,25.45c-0.3,7.38-0.86,14.75-1.09,22.13c-0.22,7.07,0.35,14.34,2.18,20.95
				c1.71,6.18,2.03,12.83,5.18,18.61c0.77,1.42,0.6,2.96,0.56,4.46c-0.18,8.1,0.02,16.24,1.28,24.2c1,6.38,1.49,12.74,1.82,19.16
				c0.13,2.51-0.5,3.84-3.31,3.62c-3.51-0.28-3.69,2.06-3.58,4.73c0.1,2.31,0.95,4.97-3.03,5.41c-2.16,0.24-3.36-0.08-4.18-2.02
				c-1.41-3.33-2.99-6.61-4.28-9.98c-1.01-2.63-2.2-5.11-4.32-6.97c-1.37-1.2-2.82-2.62-4.66-0.2c-1.15,1.51-2.6,1.02-3.66-0.56
				c-1.19-1.78-2.43-3.51-3.7-5.23c-1.24-1.68-2.67-2.93-5.05-2.61c-1.64,0.22-2.91-0.42-3.42-2.26c-0.22-0.81-0.76-1.72-1.43-2.19
				c-5.85-4.04-6.15-10.38-6.63-16.46c-0.62-7.81,0.09-15.81-1.27-23.46c-2.29-12.89-0.92-25.74-0.68-38.57
				c0.12-6.43,1.36-12.96,2.75-19.39c1.24-5.76,2.45-11.55,3.63-17.34c1.99-9.74,3.03-19.68,5.03-29.38
				c1.44-6.97,5.37-13.45,7.19-20.48c3.02-11.64,7.78-22.63,13.3-33.17c3.46-6.6,7.43-13.05,11.53-19.38
				c5.28-8.14,10.1-16.57,16.16-24.18c3.9-4.9,7.97-9.64,12.89-13.56c-0.76,3.7-5.12,5.43-5.37,10.8c2.78-2.92,4.9-5.08,6.94-7.31
				c0.74-0.81,1.77-1.78,1.12-2.95C75.22,103.27,73.96,104.02,73.01,103.88z"/>
		</g>
		<text transform="matrix(1 0 0 1 108.0711 352.1529)" class="st0 st3 st4">BTM</text>
		<text transform="matrix(1 0 0 1 124.2664 388.8619)" class="st1 st5 st6">Buana Trijaya Makmur</text>
	</g>
</g>
<g id="Layer_2">
</g>
</svg>
