<?xml version="1.0" encoding="utf-8"?>
<!-- Generator: Adobe Illustrator 25.4.1, SVG Export Plug-In . SVG Version: 6.00 Build 0)  -->
<svg version="1.1" id="Layer_1" xmlns="http://www.w3.org/2000/svg" xmlns:xlink="http://www.w3.org/1999/xlink" x="0px" y="0px"
	 viewBox="0 0 477.13 393.61" style="enable-background:new 0 0 477.13 393.61;" xml:space="preserve">
<style type="text/css">
	.st0{fill:#049590;}
	.st1{fill:#E9DB34;}
	.st2{fill:#FFB6BF;}
	.st3{fill:#FFFFFF;}
</style>
<g>
	<path class="st0" d="M170.64,240.14c2.27-18.85-9.34-27.04-28.14-25.41c-19.39,1.66-34.46,12.59-35.99,25.31
		c-1.36,11.22,9.29,10.9,13.48,10.54c6.09-0.53,11.29-2.15,13.8-5.19c2.86-3.51,2.64-10,5.53-10.26c5.36-0.46,6.26,21.83,0.03,22.36
		c-2.9,0.25-10.88-3.64-19.27-2.93c-15.19,1.32-21.94,17-23.53,30.17c-1.63,13.48,1.68,27.7,16.58,26.43
		c9.12-0.8,16.85-6.8,21.05-7.15c4.05-0.36,6.71,4.75,15.26,4.02c10.56-0.92,17.19-9.63,18.43-19.82c1.12-9.27-2.7-16.8-1.44-27.27
		C167.19,254.67,169.8,247.18,170.64,240.14z M128.77,283.45c-5.2,0.44-3.59-12.88,1.32-13.31
		C134.86,269.74,133.98,283,128.77,283.45z"/>
	<path class="st0" d="M178.59,201.12c14.44-1.2,25.49-11.31,26.36-24.09c0.42-6.2-1.64-11.66-6.8-11.24
		c-4.25,0.36-8.49,4.37-13.92,4.83c-7.2,0.59-9.59-5.9,0.2-6.71c13.14-1.08,23.49-13.88,24.33-26.39
		c0.75-11.09-5.93-20.24-20.88-18.99c-22.82,1.88-34.28,25.51-35.67,46.23C151.04,182.03,156.43,202.95,178.59,201.12z
		 M186.74,135.27c5.17-0.42,5.07,12.31-1.12,12.82C179.43,148.59,181.47,135.71,186.74,135.27z"/>
	<path class="st0" d="M276.01,151.35c-0.68,10.15,2.31,21.05,14.68,20.02c11.73-0.97,15.87-11.15,16.58-21.56
		c0.53-7.92-1.02-15.53-0.54-22.51c0.34-5.02,2.1-16.04,7.9-16.53c5.03-0.41,5.76,7.8,5.46,12.27c-0.37,5.66-3,14.02-3.54,22.05
		c-0.58,8.71,1.41,15.22,11.85,14.36c10.19-0.85,14.48-7.49,15.02-15.53c0.46-6.87-1.86-14.27-1.27-22.85
		c0.2-3.15,0.56-14.21,8.81-14.88c6.7-0.56,5.97,6.58,5.75,9.88c-0.88,12.92-5.53,24.85-6.15,34.21
		c-0.8,11.73,4.75,17.04,14.41,16.24c9.41-0.78,15.7-6.68,16.41-17.22c0.66-9.76-3.95-17.51-3.24-28.05
		c0.34-5.02,1.95-11.83,2.31-16.97c0.78-11.75-4.63-22.56-17.14-21.53c-7.87,0.64-14.09,5.63-20.27,6.14
		c-6.44,0.54-8.29-4.29-16.04-3.66c-9.27,0.78-15.05,8.59-18.27,8.87c-3.36,0.27-3.22-7.34-13.02-6.53
		c-10.44,0.86-13.1,9.87-13.61,17.65c-0.42,6.2,0.37,13.48,0.02,18.63C281.47,133.2,276.76,140.4,276.01,151.35z"/>
	<path class="st0" d="M258.01,174.76c9.41-0.78,14.92-8.44,15.53-17.41c0.54-8.17-3.24-14.82-2.61-24.04
		c0.37-5.54,2.36-12.14,2.78-18.32c1.12-16.61-9.68-23.85-26.43-22.46c-17.27,1.42-30.22,11.02-30.97,22.22
		c-0.68,9.9,8.83,9.63,12.56,9.32c5.42-0.44,10-1.88,12.1-4.54c2.39-3.09,1.88-8.81,4.46-9.02c4.76-0.41,6.65,19.24,1.1,19.7
		c-2.58,0.22-9.92-3.24-17.38-2.63c-13.54,1.14-18.83,14.95-19.61,26.55c-0.8,11.87,2.85,24.41,16.12,23.31
		c8.12-0.66,14.75-5.93,18.49-6.25C247.77,170.9,250.42,175.39,258.01,174.76z M238.33,153.07c-4.64,0.37-3.85-11.36,0.53-11.71
		C243.11,141,242.97,152.68,238.33,153.07z"/>
	<path class="st0" d="M380.69,209.75c1.97-0.92,5.1-0.75,7.59-1.25c6.58-1.15,13.27-7.95,14.17-15.44
		c1.41-11.66-13.59-4.75-17.73-8.54c-3.61-3.24-2.61-17.54-15.92-16.39c-10.27,0.88-14.36,9.83-17.17,14.21
		c-7.27,11.59-14.49,6.14-19.34,15.6c-3.95,7.75-2.22,17.22,5.31,16.58c3.32-0.29,10.49-2.83,9.02,9.44
		c-0.75,6.14-3.95,18.56-5.19,28.73c-2.41,20.05,3.12,28.92,17.87,27.63c20.54-1.76,34-20.85,35.97-37.16
		c1.25-10.32-2.64-14.88-9.87-14.26c-4.78,0.41-11.12,3.03-11.83,9.02c-0.41,3.44,1.03,6.87,0.53,11.07c0,0-0.51,4.19-3.68,4.46
		c-4.49,0.39-2.85-8.49-2.51-11.34C368.63,236.11,373.85,213.01,380.69,209.75z"/>
	<path class="st0" d="M293.91,281.79c20.07-2.37,34.43-26.05,37.06-47.75c2.8-22.02-10.93-49.99-30.77-49.99
		c-30,0-47.96,22.52-47.96,57.32C252.24,262.32,273.72,284.2,293.91,281.79z M289.09,215.84c13.33-1.31,13.23,35.86,1.94,36.04
		C279.39,252.05,284.51,216.29,289.09,215.84z"/>
	<path class="st0" d="M456.68,90.45c-15.22-1.92-21.66,13.39-23.12,24.99c-1.1,8.88,0.68,16.51-0.05,22.22
		c-0.81,6.51-5.92,18.92-12.1,18.14c-5.39-0.68-4.73-11.07-4.15-15.66c1.54-12.22,7.41-24.38,8.78-35.33
		c1.58-12.53-3.1-20.21-14.68-21.65c-11.73-1.47-21.38,4.71-23.05,18.05c-1.34,10.63,2.85,22.26,1.07,36.38
		c-1.88,15.07-11.8,42.67,13.43,45.84c11.58,1.46,22.02-3.36,25.34-2.93c3.32,0.41-0.56,55.96-2.47,81.11
		c-0.54,7.09-5.98,12.8-13.02,13.71c-70.45,9.15-336.63,47.16-342.63,46.4c-0.02,0-0.03,0-0.05-0.01c-1.98-0.27-2.07-3.13-0.15-3.66
		c9.67-2.64,22.52-8.47,22.52-30.46c0-31.29-26-33.09-26-38.85c0-1.49,1.75-1.49,2.7-1.49c6.02,0,12.68,6.59,17.92,6.59
		c11.75,0,13.8-32.94-16.17-32.94c-22.05,0-19.04,17.78-35.53,28.33c-6.98,4.44-23.32,11.36-23.32,32.26
		c0,12.68,6.03,20.26,6.03,27.99c0,5.44-2.85,7.26-2.85,13.17c0,16.09,20.93,16.88,34.21,21.95c0.02,0,0.02,0.02,0.02,0.02
		c1.46,0.81,2.98,1.54,4.59,2.17c0.01,0,0.02,0.01,0.03,0.01c3.65,2.19,6.02,5.14,6.02,9.6c0,7.58-6.97,11.37-12.53,11.37
		c-4.27,0-8.09-2.15-8.09-6.42c0-2.8,1.59-4.95,1.59-8.24c0-5.92-5.09-9.88-12.37-9.88c-24.75,0-24.75,45.12,18.24,45.12
		c19.99,0,43.46-9.71,43.46-35.73v-0.05c0-2.69,2.01-4.95,4.67-5.26c78.71-9.08,285.42-40.91,345.01-49.26
		c6.92-0.97,12.24-6.58,12.85-13.53c2.71-31.02,9.97-113.08,11.75-127.18c1.51-12.05,5.29-24.14,6.71-35.56
		C472.87,109.08,472.22,92.4,456.68,90.45z M52.83,297.46c-8.09,0-6.34-23.04,0.32-23.04C59.66,274.42,60.77,297.46,52.83,297.46z"
		/>
	<path class="st0" d="M251.96,197.56c1.59-13.32-3.53-21.9-15.39-20.88c-12,1.03-15.34,27.85-16.02,33.53
		c-0.22,1.8-0.75,2.59-1.9,2.68c-3.19,0.29-8.37-4.15-16.19-3.49c-20.26,1.75-27.8,34.7-29.75,50.85
		c-1.83,15.12-2.12,43.73,17.41,42.04c8.97-0.76,16.05-7.31,22.56-7.87s10.42,5.02,17.65,4.41c8.7-0.75,14.8-9.87,16.02-20.05
		c1.46-12.12-3.49-30.34-1.14-49.96C246.98,214.16,250.67,208.19,251.96,197.56z M204.97,272.88c-4.63,0.39-0.98-39.31,4.22-39.77
		C214.26,232.67,209.6,272.47,204.97,272.88z"/>
	<path class="st0" d="M104.42,129.54c-10.05,0.83-14.87,7.53-15.43,15.83c-0.36,5.41,0.78,15.02,0.39,20.95
		c-0.59,8.7-4.98,16.93-5.71,27.61c-0.64,9.61,1.75,21.61,14.9,20.53c13.78-1.15,18.19-15.15,18.87-25.31
		c0.56-8.17-1.36-13.92-0.81-22.09c0.14-1.97,1.05-13.71,6.2-14.15c1.29-0.1,3.17,0.53,3.02,2.78c-0.15,2.37-2.22,4.51-2.54,9.26
		c-0.34,5,1.34,10.51,9.59,9.81c11.71-0.97,15.83-12.46,16.48-22.07c0.88-13.05-4.7-21.65-18.87-20.48
		c-3.36,0.29-7.39,1.15-9.44,1.32C114.23,134.1,113.69,128.78,104.42,129.54z"/>
	<path class="st0" d="M52.85,133.71c-21.8,1.81-34.78,24.94-36.41,49.15c-1.12,16.59,2.39,42.72,29.09,40.52
		c14.34-1.21,28.79-9.98,29.67-23.34c0.46-6.61-2.27-15-9.29-14.41c-6.03,0.5-11.33,7.07-15.49,7.41
		c-10.48,0.87-4.95-36.67,3.81-37.4c1.44-0.11,2.22,0.85,2.07,3.05c-0.07,3.07-1.86,6.43-2.09,9.94c-0.39,5.73,3.53,9.06,8.54,8.65
		c8.9-0.74,14.59-13.19,15.16-21.7C78.79,142.66,68.37,132.44,52.85,133.71z"/>
	<path class="st0" d="M109.75,122.04c9.49-3.13,19.7-12.13,19.04-22.27c-0.34-5.15-5-7.24-10.04-5.83
		c-4.18,1.17-7.93,4.64-7.89,9.35c0.03,4.41,0.65,8.68-2.17,9.5c-5.26,1.54-7.66-10.68-8.81-14.32c0.81,0.14,2.31-0.07,4.31-0.66
		c9.32-3.01,22.57-10.05,22.37-20.36c-0.04-2.07-1.17-4.56-3.18-6.9c-3.95-4.71-11.01-5.61-19.72-3.26
		c-16.03,4.33-24.69,19.35-22.78,35.04C82.75,117.74,93.07,127.55,109.75,122.04z M101.56,77.38c3.37-0.98,6.52,1.6,7.12,4.98
		c0.55,3.08-1.72,5.96-6,7.39c-3.02,1.01-4.59-0.79-4.89-3.23C97.37,82.97,99.29,78.04,101.56,77.38z"/>
	<path class="st0" d="M147.65,99.31c4.48,0.35,9.69-1.3,14.51-0.61c2.01,0.26,2.79,1.2,2.88,2.54c0.23,3.2-3.97,8.35-5.13,8.65
		c-0.77,0.2-1.15,0.37-1.15,0.37c-0.08,0.02,0.74-0.57,1.23-2.44c0.19-0.58,0.24-1.05,0.2-1.49c-0.31-4.17-7.59-5.74-13.57-4.16
		c-2.64,0.7-5.06,2.02-6.49,3.86c-1.85,2.38-1.82,4.36-1.61,7.36c0.26,3.84,2.3,8.74,12.58,8.96c3.6,0.07,8.95-0.78,13.13-1.87
		c9.31-2.42,20.19-10.19,20.14-20.26c0-0.57-0.07-1.27-0.26-1.83c-1.97-8.45-10.19-9.38-14.05-9.89c-5.64-0.74-10.16-0.98-11.74-2.7
		c-0.96-1.05-1.43-1.91-1.5-2.73c-0.14-1.79,1.61-3.14,3.26-4.91c1.12-1.19,2.06-1.65,2.94-1.86c1.11-0.27,1.87,0.07,1.93,0.96
		c0.05,0.67-0.28,1.81-1.38,3.29c-0.65,0.99-1.33,1.69-1.28,2.29c0.11,1.49,7.13,4.44,13.44,2.94c3.87-0.92,7.1-3.33,7.11-7.41
		c-0.01-0.81-0.02-1.22-0.03-2.03c0.18-12.06-12.33-13.2-21.47-11.14c-11.46,2.58-24.51,11.95-23.83,24.5
		C137.74,94.05,141.88,98.86,147.65,99.31z"/>
	<path class="st0" d="M171.64,55.11c0.93,5.03,2.51,9.65,7.84,8.19c2.71-0.74,5.05-3.25,5.25-6.58c0.25-4.18-1.54-9.24,2.37-11.44
		c2.74,15.96,5.48,31.92,8.22,47.87c0.52,9.17-2.13,10.24-1.45,14.1c0.61,3.46,3.77,6.82,13.56,4.19
		c10.15-2.72,12.27-6.33,11.63-10.51c-0.61-3.94-3.68-8.33-4.98-12.76c-2.5-15.98-5-31.97-7.51-47.95c4.23,0.09,4.26,4.96,6.14,8.47
		c1.44,2.71,2.03,5.22,7.03,4.02c5.07-1.22,5.05-7.9,4.4-12.4c-0.33-2.29-0.89-4.04-0.89-4.04c-0.01-0.06-0.01-0.09-0.02-0.16
		c-3.9-12.6-21.83-7.35-29.35-5.63c-8.21,1.88-24.42,6.79-23.21,19.35C171.06,51.95,171.25,53,171.64,55.11z"/>
	<path class="st0" d="M250.17,89.08c9.86-2.1,21.18-9.93,21.72-20.18c0.27-5.18-4.16-7.79-9.37-6.93c-4.33,0.72-8.5,3.77-9.02,8.48
		c-0.49,4.41-0.38,8.74-3.3,9.26c-5.45,0.96-6.4-11.51-7.13-15.28c0.8,0.23,2.32,0.18,4.4-0.19c9.7-1.99,23.8-7.55,24.82-17.9
		c0.2-2.07-0.63-4.68-2.37-7.25c-3.4-5.14-10.36-6.81-19.37-5.41c-16.52,2.57-27.01,16.58-26.97,32.53
		C223.62,81.88,232.88,92.76,250.17,89.08z M247.26,43.55c3.5-0.61,6.34,2.31,6.54,5.76c0.19,3.14-2.43,5.77-6.88,6.73
		c-3.15,0.68-4.51-1.29-4.51-3.76C242.4,48.68,244.91,43.96,247.26,43.55z"/>
	<path class="st0" d="M274.7,22.3c2.19,1.83,3.12,6.99,2.98,12.62c-0.24,8.07-0.36,12.11-0.59,20.18
		c-0.17,6.67-0.71,11.38-3.78,21.2c-0.25,0.64-0.34,1.25-0.36,1.77c-0.11,4.8,6.3,6.09,12.69,5.14c6.47-0.97,12.99-4.18,13.19-8.98
		c0.02-0.53-0.03-1.11-0.16-1.69c-1.71-6.32-3.06-5.9-2.75-12.22c0.51-10.37,1.39-20.91,1.84-31.35c0.36-8.45,0.24-11.96,0.35-14.59
		c0.09-2.18,0.32-3.77,0.96-7.14c0-0.12,0.01-0.18,0.01-0.3c0.06-1.5-1.76-1.93-4.45-1.56C286.74,6.54,273,13.15,272.87,19
		C272.85,20.12,273.4,21.31,274.7,22.3z"/>
	<path class="st0" d="M325.82,77.92c10.02-1.53,21.87-8.7,23.05-18.94c0.59-5.17-3.7-8.04-8.98-7.48c-4.39,0.47-8.76,3.28-9.57,7.97
		c-0.76,4.39-0.92,8.73-3.88,9.08c-5.53,0.65-5.72-11.9-6.22-15.71c0.79,0.28,2.31,0.32,4.42,0.07c9.85-1.43,24.35-6.17,26.02-16.48
		c0.33-2.05-0.34-4.73-1.94-7.39c-3.1-5.35-9.98-7.42-19.11-6.54c-16.72,1.62-28.13,15-29.07,31.01
		C299.61,69.2,308.28,80.59,325.82,77.92z M320.29,40.62c0.21-3.6,3.02-8.18,5.41-8.45c3.55-0.41,6.22,2.69,6.21,6.14
		c-0.01,3.16-2.8,5.63-7.32,6.34C321.39,45.15,320.14,43.09,320.29,40.62z"/>
	<path class="st0" d="M356.98,57.9c-1.61,7.21-4.48,9.12-4.66,11.15c-0.32,3.75,6.69,5.22,14.12,4.65
		c5.95-0.46,11.73-2.74,12.19-7.01c0.05-0.45,0.02-0.97,0-1.49c-0.08-0.11-0.13-0.17-0.21-0.28c-0.85-1.79-0.78-1.04-1.22-2.8
		c-0.36-1.46-0.93-0.65-0.85-4.91c0.15-8.12,0.07-6.18,1.74-17.37c0.53-3.56,1.94-6.76,4.26-6.93c3.06-0.23,1.99,4.06,1.96,8.33
		c-0.02,3.46,2.56,4.79,5.84,4.57c5.49-0.37,13.24-5.11,13.82-10.89c0.98-9.8-3.11-17.88-8.72-17.52
		c-3.94,0.25-9.03,4.09-14.12,6.92c-1.01-2.9-4.88-6.31-9.67-5.86c-6.05,0.56-17.79,6.54-18.29,12.47
		c-0.15,1.72,0.61,3.43,2.85,5.01c1.23,0.85,2.71,2.65,2.33,6.85C357.79,48.82,357.52,51.84,356.98,57.9z"/>
	<path class="st0" d="M32.93,81.32c1.6,0.73,3.31,1.15,5.06,1.34c8.6,0.95,17.12,4.46,25.54,10.85
		c-3.56-17.06-13.05-25.79-27.19-28.03c-3.3-0.52-6.67,0.74-8.65,3.44C24.53,73.23,26.6,78.44,32.93,81.32z"/>
	<path class="st0" d="M25.73,119.21c16.29-16.73,28.37-20.02,44.78-18.3C48.88,83.37,28.57,85.75,9.17,100.2
		c-6.26,4.66-8.8,7.74-9.13,14.7c-0.43,8.92,2.76,15.8,14.25,11.73C18.62,125.08,22.52,122.5,25.73,119.21z"/>
	<path class="st0" d="M47.31,114.67c-4.55,5.9-1.11,11.67,4.73,10.42c2.08-0.45,3.83-1.82,4.88-3.66
		c3.05-5.33,8.44-11.9,14.11-18.63C61.28,104.27,53.37,108.23,47.31,114.67z"/>
	<path class="st0" d="M444.2,34.55c6.32-2.88,8.4-8.09,5.24-12.4c-1.98-2.7-5.35-3.96-8.65-3.44
		c-14.14,2.24-23.63,10.97-27.19,28.03c8.42-6.39,16.94-9.9,25.54-10.85C440.89,35.7,442.6,35.27,444.2,34.55z"/>
	<path class="st0" d="M477.09,68.11c-0.33-6.95-2.87-10.04-9.13-14.7c-19.4-14.45-39.72-16.83-61.35,0.71
		c16.41-1.72,28.49,1.57,44.78,18.3c3.21,3.3,7.11,5.87,11.45,7.41C474.33,83.92,477.52,77.04,477.09,68.11z"/>
	<path class="st0" d="M425.09,78.31c5.84,1.25,9.29-4.52,4.73-10.42c-6.06-6.44-13.97-10.39-23.73-11.87
		c5.67,6.73,11.06,13.31,14.11,18.63C421.27,76.49,423.02,77.86,425.09,78.31z"/>
</g>
</svg>
