<?xml version="1.0" encoding="utf-8"?>
<!-- Generator: Adobe Illustrator 25.4.1, SVG Export Plug-In . SVG Version: 6.00 Build 0)  -->
<svg version="1.1" id="Layer_1" xmlns="http://www.w3.org/2000/svg" xmlns:xlink="http://www.w3.org/1999/xlink" x="0px" y="0px"
	 viewBox="0 0 422.75 687.47" style="enable-background:new 0 0 422.75 687.47;" xml:space="preserve">
<style type="text/css">
	.st0{fill:#0C5347;}
	.st1{font-family:'AddressSansPro-CdRegular';}
	.st2{font-size:26px;}
	.st3{letter-spacing:13;}
</style>
<g>
	<g>
		<g>
			<g>
				<polygon class="st0" points="42.77,630.14 60.66,630.14 60.66,582.31 81.12,582.31 81.12,569.53 60.66,569.53 60.66,537.79 
					81.12,537.79 81.12,524.86 42.77,524.86 				"/>
				<polygon class="st0" points="96.61,630.14 134.97,630.14 134.97,617.21 114.51,617.21 114.51,582.31 134.97,582.31 
					134.97,569.53 114.51,569.53 114.51,537.79 134.97,537.79 134.97,524.86 96.61,524.86 				"/>
				<polygon class="st0" points="187.76,594.8 168.21,524.86 151.51,524.86 151.51,630.14 165.5,630.14 165.5,563.66 184.75,630.14 
					201.75,630.14 201.75,524.86 187.76,524.86 				"/>
				<polygon class="st0" points="213.18,537.79 229.72,537.79 229.72,630.14 247.62,630.14 247.62,537.79 264.17,537.79 
					264.17,524.86 213.18,524.86 				"/>
				<polygon class="st0" points="275.75,630.14 314.1,630.14 314.1,617.21 293.65,617.21 293.65,582.31 314.1,582.31 314.1,569.53 
					293.65,569.53 293.65,537.79 314.1,537.79 314.1,524.86 275.75,524.86 				"/>
				<path class="st0" d="M362.38,524.86h-21.36l-17.6,105.28h14.74l2.41-15.79h19.1l2.41,15.79h17.9L362.38,524.86z M342.53,602.32
					l7.82-50.99l7.67,50.99H342.53z"/>
			</g>
			<path class="st0" d="M399.76,107.68L234.37,12.19c-14.18-8.19-31.8-8.19-45.98,0L22.99,107.68C8.81,115.87,0,131.12,0,147.5
				v190.98c0,16.38,8.81,31.63,22.99,39.82l165.39,95.49c7.09,4.09,15.04,6.14,22.99,6.14s15.9-2.05,22.99-6.14l165.39-95.49
				c14.18-8.19,22.99-23.45,22.99-39.82V147.5C422.75,131.12,413.94,115.87,399.76,107.68z M392.75,338.48
				c0,5.69-3.06,11-7.99,13.84l-165.39,95.49c-4.93,2.85-11.05,2.85-15.98,0l-67.19-38.79c1.1-2.02,1.41-4.05,1.26-6.07l-0.34-12.64
				l-0.5-12.64c-0.18-4.21-0.44-8.43-0.65-12.64c-0.96-16.85-2.34-33.7-3.92-50.56l-1.67-18.52l92.95-57.93
				c2.17-1.35,3.11-4.1,2.12-6.54c-1.11-2.73-4.22-4.05-6.96-2.94l-90.62,36.83c0-0.2-0.01-0.4-0.01-0.6
				c-0.47-14.89,3.17-30.08,10.33-43.53c0.94-1.65,1.81-3.36,2.86-4.94l1.53-2.42l1.63-2.36c0.53-0.8,1.1-1.56,1.68-2.32l1.73-2.28
				c1.23-1.46,2.39-2.99,3.69-4.38c5.1-5.71,10.89-10.79,17.18-15.17c0.77-0.57,1.59-1.07,2.4-1.59c0.81-0.51,1.6-1.05,2.43-1.54
				c1.66-0.95,3.29-1.96,5.01-2.82c3.36-1.85,6.89-3.35,10.45-4.76c1.81-0.62,3.58-1.35,5.43-1.88l2.74-0.85l2.78-0.73
				c1.84-0.52,3.74-0.82,5.61-1.24l6.18-1.16c16.57-3.06,33.18-5.96,49.84-8.6c8.33-1.3,16.67-2.57,25.03-3.73
				c3.48-0.49,6.97-0.95,10.46-1.4c3.21,17.54,3.86,35.59,1.57,53.29c-2.85,22.11-10.34,43.72-22.72,62.15
				c-12.3,18.45-29.74,33.39-50.3,42.18c-10.26,4.42-21.23,7.33-32.5,8.77c-11.27,1.45-22.81,1.43-34.31,0.25l-0.07-0.01
				c-3.75-0.38-7.19,2.24-7.79,6.01c-0.62,3.91,2.05,7.58,5.96,8.19c12.39,1.96,25.09,2.69,37.82,1.76
				c12.72-0.92,25.44-3.54,37.6-8.01c12.16-4.45,23.71-10.76,34.11-18.61c10.41-7.85,19.67-17.22,27.5-27.63
				c15.71-20.84,25.75-45.51,30.45-70.95c4.72-25.48,4.17-51.83-0.98-77.23L320,121.61l-14.42,4.29c-8.11,2.42-16.24,4.7-24.41,6.85
				c-8.16,2.18-16.34,4.24-24.52,6.28c-16.38,4.04-32.81,7.82-49.27,11.43l-6.21,1.36c-2.23,0.56-4.49,1.01-6.69,1.68l-3.32,0.93
				l-3.28,1.07c-2.2,0.67-4.32,1.56-6.48,2.35c-8.51,3.47-16.74,7.66-24.31,12.88c-3.81,2.57-7.46,5.37-10.98,8.32
				c-3.47,3.01-6.85,6.14-9.98,9.52c-6.4,6.63-11.88,14.11-16.69,21.99c-9.45,15.87-15.92,33.73-18.4,52.5
				c-0.36,2.34-0.55,4.7-0.77,7.06l-0.54,6.43c-0.34,4.21-0.71,8.43-1.1,12.64l-2.29,25.28c-1.58,16.85-2.95,33.7-3.92,50.56
				c-0.21,4.21-0.47,8.43-0.65,12.64l-0.22,5.58l-53.56-30.93c-4.93-2.85-7.99-8.15-7.99-13.84V147.5c0-5.69,3.06-11,7.99-13.84
				l165.39-95.49c2.46-1.42,5.23-2.13,7.99-2.13c2.76,0,5.53,0.71,7.99,2.13l165.39,95.49v0c4.93,2.85,7.99,8.15,7.99,13.84V338.48z
				"/>
		</g>
	</g>
	<text transform="matrix(1 0 0 1 89.6689 674.0856)" class="st0 st1 st2 st3">TEAVOLUTION</text>
</g>
</svg>
