<?xml version="1.0" encoding="utf-8"?>
<!-- Generator: Adobe Illustrator 25.4.1, SVG Export Plug-In . SVG Version: 6.00 Build 0)  -->
<svg version="1.1" id="Layer_1" xmlns="http://www.w3.org/2000/svg" xmlns:xlink="http://www.w3.org/1999/xlink" x="0px" y="0px"
	 viewBox="0 0 688.34 604.6" style="enable-background:new 0 0 688.34 604.6;" xml:space="preserve">
<style type="text/css">
	.st0{fill:#FCEB2A;}
	.st1{fill:#E30613;}
	.st2{stroke:#E30613;stroke-width:29;stroke-miterlimit:10;}
	.st3{fill:none;stroke:#E30613;stroke-width:29;stroke-miterlimit:10;}
	.st4{fill:#296AB3;}
	.st5{fill:#FFFFFF;}
	.st6{fill:#F6F6F6;}
	.st7{fill-rule:evenodd;clip-rule:evenodd;fill:#296AB3;}
	.st8{fill-rule:evenodd;clip-rule:evenodd;fill:#FFFFFF;}
	.st9{fill:#75C3AE;}
	.st10{fill:#1799D6;}
</style>
<g>
	<path class="st4" d="M148.33,553.07l15.66-2.87l-0.92,5.72l-4.53,0.82l-3.11,19.33l-6.65,1.22l3.11-19.32l-4.48,0.82L148.33,553.07
		z M164.05,574.5l13.33-2.45l0.86-5.34l-6.76,1.23l0.73-4.56l5.83-1.07l0.83-5.2l-5.83,1.07l0.74-4.62l6.72-1.23l0.85-5.32
		l-13.27,2.43L164.05,574.5z M550.44,503.62l13.33-2.44l0.86-5.35l-6.76,1.24l0.73-4.56l5.83-1.07l0.83-5.2l-5.83,1.07l0.74-4.62
		l6.72-1.23l0.86-5.33l-13.29,2.44L550.44,503.62z M203.01,550.49c-0.19,1.21-0.73,2.45-1.59,3.71c-0.86,1.25-1.99,2.28-3.38,3.1
		l3.44,10.33l-6.94,1.28l-3.47-10.43l-0.11,0.01l-1.83,11.41l-6.57,1.22l4.02-25.06l7.65-1.4c3.09-0.57,5.43-0.33,7,0.73
		C202.79,546.42,203.39,548.13,203.01,550.49z M195.58,549.88c-0.6-0.37-1.67-0.44-3.21-0.19l-0.96,5.95
		c2.91-0.58,4.51-1.74,4.79-3.45C196.38,551.03,196.18,550.26,195.58,549.88z M250.42,543.36l-5.84,1.07l1.5-9.29l-6.57,1.21
		l-4.03,25.04l6.57-1.2l1.67-10.42l5.84-1.07l-1.68,10.42l6.57-1.21l4.03-25.04l-6.57,1.2L250.42,543.36z M227.56,537.87
		c-2.51,0.46-4.65,1.51-6.44,3.16c-1.8,1.65-2.87,3.56-3.21,5.72c-0.26,1.59,0.02,2.94,0.82,4.05c0.82,1.11,2.23,2.2,4.26,3.29
		c0.84,0.45,1.42,0.86,1.73,1.23c0.3,0.37,0.42,0.81,0.35,1.3c-0.11,0.65-0.43,1.22-0.97,1.7c-0.54,0.48-1.23,0.8-2.04,0.95
		c-1.42,0.26-3.08,0.06-5-0.62l-0.94,5.83c1.69,0.42,3.45,0.46,5.28,0.12c2.69-0.49,5.02-1.61,6.99-3.35s3.13-3.69,3.49-5.85
		c0.3-1.85-0.11-3.36-1.21-4.52c-1.12-1.16-2.26-2.01-3.43-2.55c-1.98-0.91-2.87-1.9-2.71-2.95c0.1-0.6,0.42-1.12,0.93-1.55
		c0.53-0.43,1.19-0.72,2.01-0.86c1.2-0.22,2.71-0.05,4.52,0.51l0.9-5.6C231.19,537.53,229.41,537.53,227.56,537.87z M546.43,479.38
		c-3.64,0.66-6.84,2.43-9.62,5.3c-2.77,2.88-4.47,6.17-5.06,9.92c-0.64,4.03,0.01,7.06,1.97,9.1c1.97,2.03,4.85,2.71,8.65,2.01
		c1.1-0.2,2.37-0.62,3.81-1.27l0.96-5.94c-1.3,0.6-2.41,0.99-3.35,1.16c-1.89,0.34-3.3-0.03-4.22-1.13c-0.93-1.1-1.2-2.78-0.84-5.03
		c0.34-2.08,1.18-3.91,2.53-5.47c1.34-1.55,2.87-2.49,4.57-2.81c1.11-0.2,2.26-0.23,3.46-0.1l0.96-5.96
		C549.12,479.04,547.84,479.12,546.43,479.38z M93.14,562.52c-3.65,0.67-6.85,2.44-9.62,5.31c-2.78,2.88-4.47,6.17-5.06,9.92
		c-0.66,4.02,0.01,7.06,1.97,9.1c1.96,2.03,4.84,2.7,8.64,2c1.11-0.19,2.37-0.61,3.82-1.26l0.96-5.95c-1.3,0.61-2.42,1-3.34,1.17
		c-1.89,0.34-3.3-0.03-4.22-1.14c-0.93-1.09-1.2-2.77-0.85-5.02c0.34-2.09,1.17-3.91,2.52-5.47c1.34-1.56,2.87-2.5,4.58-2.81
		c1.11-0.2,2.26-0.23,3.46-0.11l0.96-5.96C95.83,562.19,94.55,562.26,93.14,562.52z M142.79,556.71c1.5,1.92,1.91,4.99,1.23,9.19
		c-0.67,4.19-2.11,7.63-4.31,10.29c-2.19,2.65-4.99,4.29-8.37,4.9c-3.49,0.65-5.97-0.02-7.43-2c-1.45-2-1.83-5.17-1.14-9.55
		c0.65-4.04,2.08-7.36,4.29-9.96c2.2-2.59,4.95-4.18,8.24-4.79C138.8,554.15,141.3,554.78,142.79,556.71z M134.42,560.47
		c-2.37,0.43-3.94,3.06-4.72,7.88c-0.49,3.1-0.52,5.12-0.09,6.04c0.43,0.93,1.23,1.29,2.36,1.07c1.23-0.22,2.25-0.91,3.08-2.07
		c0.83-1.16,1.48-3.25,1.96-6.27C137.8,562.22,136.93,560.01,134.42,560.47z M69.78,566.81c-2.51,0.46-4.65,1.52-6.44,3.16
		c-1.8,1.65-2.87,3.56-3.21,5.73c-0.25,1.58,0.02,2.93,0.82,4.04c0.82,1.11,2.23,2.2,4.26,3.29c0.84,0.46,1.42,0.87,1.73,1.24
		c0.31,0.36,0.42,0.8,0.35,1.29c-0.11,0.65-0.43,1.23-0.97,1.7c-0.54,0.48-1.22,0.8-2.04,0.95c-1.42,0.26-3.08,0.06-4.99-0.61
		l-0.95,5.83c1.69,0.42,3.45,0.47,5.28,0.12c2.69-0.49,5.02-1.6,7-3.35c1.97-1.74,3.13-3.69,3.49-5.85c0.3-1.85-0.11-3.36-1.21-4.52
		c-1.12-1.16-2.26-2.01-3.43-2.55c-1.97-0.91-2.87-1.89-2.7-2.94c0.09-0.59,0.4-1.12,0.92-1.54c0.53-0.43,1.2-0.73,2.01-0.87
		c1.2-0.22,2.71-0.05,4.52,0.52l0.91-5.61C73.41,566.47,71.63,566.46,69.78,566.81z M616.74,124.38l0.05-0.11l-115.55,46.15
		l119.28-75.21l10.61-82.51l0.22-1.89L329.32,65.1h57.83c1.18,0,1.77,1.42,0.95,2.27l-49.96,49.98c-0.26,0.25-0.58,0.39-0.95,0.39
		h-39.9c-0.35,0-0.68,0.15-0.93,0.41l-66.78,66.78c-0.84,0.84-0.25,2.27,0.93,2.27h62.56c0.35,0,0.67-0.13,0.9-0.36l5.86-5.47
		c0.24-0.24,0.57-0.37,0.91-0.37h66.08c1.19,0,1.78,1.43,0.93,2.27l-3.91,3.93h0.03L159.15,392.26c-0.65,0.64-1.73,0.45-2.14-0.37
		l-35.63-74.36c-0.26-0.5-0.15-1.12,0.26-1.51l46.09-45.87c0.65-0.65,1.73-0.46,2.12,0.36l11.13,22.85c0.41,0.82,1.49,1,2.14,0.35
		l51.51-51.58c0.84-0.85,0.24-2.27-0.93-2.27H103.4c-1.19,0-1.78-1.45-0.93-2.29L263.02,77.01L82.63,109.44L56.36,313.57
		l49.48-40.68l-52.46,63.81l-11.87,92.25l79.92-14.38l156.58-62.54l-76.34,48.15l143.48-25.79l-33.18-63.62
		c-0.22-0.43-0.14-0.95,0.21-1.29l45.66-45.48c0.52-0.5,1.38-0.39,1.75,0.24l17.7,29.88c0.36,0.63,1.23,0.74,1.75,0.21l52.9-52.81
		c0.68-0.71,0.19-1.9-0.8-1.9H328.23c-1,0-1.5-1.21-0.8-1.9L445,119.64c0.71-0.69,0.21-1.9-0.78-1.9h-53.46c-1,0-1.5-1.19-0.78-1.9
		l41.78-41.75c0.61-0.63,0.3-1.67-0.54-1.88l-20.58-4.91c-1.29-0.32-1.06-2.2,0.26-2.2h160.08c0.97,0,1.46,1.18,0.78,1.9
		L454.19,185.03c-0.69,0.72-0.19,1.9,0.78,1.9h102.42c0.97,0,1.47,1.19,0.78,1.9L380.19,368.08l210.08-37.74l23.16-179.94
		l57.47-47.65L616.74,124.38z M117.93,561.27c1.5,1.92,1.91,4.99,1.23,9.19c-0.67,4.21-2.11,7.63-4.3,10.29
		c-2.2,2.65-5,4.29-8.38,4.91c-3.5,0.64-5.97-0.03-7.43-2.01c-1.46-1.98-1.84-5.17-1.14-9.55c0.65-4.04,2.08-7.35,4.28-9.95
		c2.21-2.6,4.95-4.19,8.25-4.8C113.94,558.71,116.44,559.35,117.93,561.27z M109.57,565.02c-2.38,0.44-3.94,3.06-4.73,7.88
		c-0.49,3.1-0.52,5.12-0.09,6.05c0.43,0.92,1.23,1.28,2.36,1.07c1.23-0.23,2.25-0.92,3.08-2.08c0.83-1.16,1.48-3.25,1.97-6.27
		C112.94,566.78,112.07,564.57,109.57,565.02z M588.63,348.9l-62.62,11.51c-0.58,0.11-1.08,0.57-1.19,1.09l-18.87,95.39
		c-0.13,0.67,0.44,1.14,1.18,0.98l11.79-2.58c0.67-0.15,1.22,0.22,1.2,0.81l-0.05,1.9c-0.01,0.59-0.58,1.16-1.25,1.26l-12.7,1.89
		c-0.6,0.09-1.13,0.56-1.23,1.1l-3.25,16.44c-0.13,0.65,0.41,1.12,1.14,0.99l62.62-11.51c0.58-0.11,1.08-0.57,1.19-1.09l5.68-28.67
		c0.13-0.65-0.41-1.12-1.14-0.99l-25.64,4.71c-0.73,0.13-1.27-0.34-1.14-0.99l2.91-14.3c0.11-0.52,0.61-0.98,1.18-1.08l23.61-4.34
		c0.58-0.11,1.09-0.57,1.19-1.09l4.99-25.79c0.13-0.65-0.41-1.12-1.14-0.98l-22.86,4.2c-0.73,0.13-1.27-0.34-1.14-0.99l1.15-5.56
		c0.13-0.63-0.37-1.1-1.07-1l-2.09,0.29c-1.49,0.21-1.44-1.73,0.05-2.07l2.93-0.67c0.55-0.13,1.02-0.57,1.12-1.07l0.62-2.99
		c0.11-0.52,0.61-0.97,1.18-1.08l26.32-4.84c0.58-0.11,1.08-0.57,1.19-1.09l5.28-26.78C589.9,349.23,589.36,348.77,588.63,348.9z
		 M520.36,496.23l-0.2,2.65l-6.01-12.92l-6.63,1.22l-4.03,25.05l6.57-1.21l1.78-11.1l0.33-3.08l5.89,12.73l6.74-1.24l4.02-25.04
		l-6.57,1.2L520.36,496.23z M405.68,517.27l-0.2,2.65l-6.02-12.92l-6.63,1.22l-4.02,25.04l6.57-1.2l1.78-11.11l0.33-3.08l5.88,12.73
		l6.74-1.23l4.03-25.05l-6.57,1.21L405.68,517.27z M375.83,535.66l6.57-1.21l4.03-25.04l-6.57,1.2L375.83,535.66z M496.52,489.2
		l3.65,23.64l-6.82,1.25l-0.44-3.98l-6.93,1.28l-1.83,4.4l-6.7,1.23l11.7-26.46L496.52,489.2z M492.39,505.84
		c-0.4-3.55-0.56-6.96-0.52-10.23l-0.08,0.02c-1.07,3.56-2.38,7.24-3.9,11.03L492.39,505.84z M375.27,502.05l0.52-14.94
		c0.02-0.57-0.51-0.95-1.16-0.83l-19.59,3.6c-0.52,0.1-1,0.49-1.16,0.96l-5.61,16.49c-0.16,0.46-0.63,0.85-1.15,0.96l-68.84,12.65
		c-0.58,0.1-1.07-0.17-1.15-0.66l-6.02-37.94c-0.18-1.13-2.1-0.79-2.33,0.42l-7.88,40.51c-0.09,0.52-0.6,0.98-1.19,1.09
		l-66.55,12.23c-0.65,0.11-1.18-0.25-1.15-0.84l0.51-14.95c0.03-0.57-0.49-0.95-1.14-0.83l-19.61,3.6c-0.52,0.1-1,0.48-1.15,0.96
		L165,541.01c-0.16,0.46-0.63,0.85-1.14,0.95l-35.01,6.43c-0.81,0.16-1.37-0.47-1.07-1.2l7.01-16.75c-0.57,0.88-1.17,1.73-1.78,2.58
		c-9.44,12.99-23.13,21.14-41.05,24.43c-13.91,2.55-24.41,0.74-31.51-5.43c-2.38-2.07-4.34-4.6-5.89-7.58
		c-0.16-0.32-0.54-0.5-0.97-0.44l-3.2,0.4c-1.47,0.18-1.42-1.72,0.04-2.07l1.34-0.33c0.78-0.19,1.28-0.95,1.07-1.56
		c-1.87-5.23-2.71-11.59-2.54-19.05c0.15-6.63,0.85-13.17,2.07-19.62c0.11-0.62-0.36-1.07-1.06-0.99l-32.79,4.07
		c-1.47,0.18-1.41-1.71,0.05-2.07l34.64-8.42c0.52-0.13,0.96-0.53,1.08-1.01c0.4-1.54,0.84-3.07,1.3-4.59
		c3.26-10.64,7.72-19.98,13.34-28.06c0.12-0.18,0.25-0.36,0.38-0.55c0.53-0.75,0.07-1.57-0.85-1.46l-10.11,1.25
		c-1.46,0.19-1.42-1.71,0.05-2.06l15.42-3.75c0.3-0.07,0.57-0.23,0.78-0.46c3.67-3.92,7.82-7.33,12.45-10.19
		c7.21-4.45,15.43-7.52,24.67-9.22c11.51-2.11,20.81-1.47,27.93,1.92c6.87,3.28,11.22,8.92,13.05,16.93
		c0.11,0.48-0.22,1.04-0.78,1.32l-31.77,16.08c-0.67,0.33-1.38,0.13-1.53-0.44c-0.85-2.87-1.94-4.83-3.27-5.88
		c-1.5-1.16-3.58-1.5-6.28-1.01c-2.82,0.52-5.3,1.84-7.44,3.97c-2.15,2.13-4,5.15-5.59,9.05c-2.15,5.5-4.12,12.41-5.85,20.73
		c-1.4,6.66-2.29,12.51-2.65,17.54c-0.03,0.55-0.52,1.07-1.13,1.2c-1.5,0.34-1.55,2.28-0.06,2.07l1.02-0.14l-0.02,0.52
		c-0.1,4.43,0.53,7.43,1.89,8.99c1.37,1.56,3.73,2.04,7.08,1.41c4.14-0.75,7.49-2.92,10.05-6.49c2.38-3.31,3.91-7.63,4.54-12.93
		c0.08-0.63-0.45-1.05-1.14-0.93L99.9,510c-0.72,0.13-1.26-0.32-1.15-0.96l3.69-21.36c0.09-0.53,0.6-1.01,1.18-1.12l44.67-8.21
		c0.68-0.12,1.21,0.28,1.16,0.87c-0.37,5.16-0.95,10.08-1.7,14.73c-0.2,1.24,1.75,1.31,2.27,0.07l28.93-69.14
		c0.18-0.44,0.62-0.79,1.12-0.89l41.33-7.58c0.63-0.12,1.12,0.21,1.15,0.74l2.38,41.38c0.03,0.57-0.48,1.16-1.15,1.31l-27.68,6.35
		c-0.68,0.15-1.23-0.21-1.22-0.82l0.17-4.89c0.04-1.2-1.87-1.12-2.29,0.1l-13.09,36.96c-0.24,0.71,0.31,1.28,1.1,1.13l11.89-2.18
		c0.65-0.13,1.18-0.68,1.21-1.24l0.94-27.52c0.03-0.59,0.6-1.16,1.26-1.25l28.04-3.88c0.59-0.08,1.07,0.24,1.09,0.75l2.22,38.88
		c0.08,1.22,2.1,0.92,2.34-0.34l17.7-89.42c0.11-0.52,0.61-0.98,1.19-1.09l29.91-5.5c19.42-3.58,32.75-3.8,40-0.66
		c7.23,3.13,10.72,10.1,10.47,20.91c-0.22,9.44-2.74,17.63-7.52,24.54c-4.57,6.62-10.99,11.69-19.23,15.24
		c-0.63,0.26-1.02,0.9-0.85,1.43l3.47,11.06c0.19,0.6-0.35,1.34-1.11,1.51l-1.46,0.34c-1.49,0.34-1.54,2.27-0.05,2.08l2.87-0.41
		c0.5-0.07,0.92,0.15,1.04,0.57l6.76,21.43c0.28,0.9,1.81,0.68,2.23-0.34l47.04-112.41c0.17-0.44,0.62-0.79,1.11-0.89l41.33-7.58
		c0.62-0.12,1.12,0.21,1.15,0.74l0.33,5.83c0.03,0.57-0.48,1.16-1.14,1.31l-10.77,2.47c-1.49,0.34-1.55,2.28-0.05,2.07l11.16-1.55
		c0.6-0.08,1.07,0.25,1.1,0.76l5.77,100.85c0.03,0.6-0.52,1.2-1.21,1.34l-34.58,6.35C375.77,503.01,375.25,502.65,375.27,502.05z
		 M293.6,436.52c0.08-3.33-0.83-5.61-2.71-6.83c-1.89-1.23-4.83-1.47-8.84-0.74c-0.25,0.04-0.66,0.14-1.22,0.3
		c-0.18,0.04-0.33,0.09-0.48,0.14c-0.54,0.14-0.99,0.57-1.08,1.07l-5.18,26.33c-0.14,0.65,0.41,1.12,1.13,1l0.6-0.12
		c5.56-1.02,9.89-3.36,12.97-6.98C291.85,447.04,293.46,442.32,293.6,436.52z M375.92,462.82c0.65-0.13,1.19-0.68,1.21-1.24
		l1.19-34.77c0.03-1.2-1.87-1.12-2.29,0.1l-13.09,36.95c-0.25,0.72,0.3,1.29,1.1,1.14L375.92,462.82z M417.26,509.29l4.49-0.83
		l-3.11,19.33l6.65-1.22l3.11-19.33l4.53-0.83l0.92-5.72l-15.67,2.88L417.26,509.29z M433.9,525l13.33-2.44l0.86-5.35l-6.76,1.24
		l0.73-4.56l5.83-1.07l0.84-5.2l-5.84,1.07l0.74-4.62l6.72-1.23l0.86-5.32l-13.29,2.43L433.9,525z M336.93,523.94
		c-0.56,1.5-1.11,3.04-1.64,4.6l-1.34,4.02c-0.06-3.77-0.24-8.25-0.56-13.44l-8.29,1.53l-7.14,25.61l6.22-1.13l4.46-17.58
		l1.48,16.48l4.44-0.81l6.82-17.97l-1.01,16.9l6.5-1.19l0.73-24.44l-8.48,1.55L336.93,523.94z M305.91,531.64
		c-0.41,2.44-1.58,4.52-3.56,6.23c-1.97,1.69-4.51,2.83-7.63,3.41l-1.12,0.2l-1.53,9.53l-6.57,1.21l4.02-25.05l8.13-1.49
		c2.87-0.52,5.04-0.25,6.55,0.85C305.72,527.64,306.28,529.34,305.91,531.64z M298.51,530.87c-0.61-0.31-1.67-0.35-3.19-0.1
		l-0.95,5.92c1.48-0.3,2.6-0.74,3.38-1.34c0.77-0.59,1.24-1.38,1.4-2.38C299.33,531.88,299.12,531.2,298.51,530.87z M471.17,493.85
		l-1.89,11.75l-0.19,2.66l-6.02-12.92l-6.63,1.22l-4.03,25.05l6.57-1.21l1.79-11.1l0.32-3.09l5.89,12.73l6.74-1.24l4.03-25.04
		L471.17,493.85z M281.43,531.28c1.51,1.93,1.91,4.98,1.23,9.19c-0.68,4.2-2.12,7.63-4.31,10.28c-2.2,2.65-5,4.29-8.37,4.92
		c-3.51,0.63-5.98-0.03-7.44-2.02c-1.46-1.98-1.84-5.16-1.14-9.54c0.65-4.03,2.08-7.36,4.28-9.95c2.22-2.6,4.95-4.2,8.25-4.8
		C277.44,528.71,279.94,529.36,281.43,531.28z M273.07,535.04c-2.38,0.43-3.94,3.06-4.73,7.86c-0.49,3.11-0.52,5.12-0.09,6.05
		s1.22,1.29,2.36,1.07c1.23-0.23,2.26-0.91,3.08-2.07c0.83-1.16,1.48-3.26,1.97-6.28C276.44,536.79,275.57,534.58,273.07,535.04z
		 M368.62,512.66l3.65,23.64l-6.82,1.26l-0.44-3.99l-6.93,1.28l-1.82,4.4l-6.7,1.23l11.71-26.45L368.62,512.66z M364.49,529.3
		c-0.4-3.55-0.56-6.96-0.51-10.23l-0.09,0.02c-1.07,3.56-2.37,7.24-3.9,11.04L364.49,529.3z M511.32,411.62l-44.67,8.21
		c-0.59,0.11-1.1,0.58-1.19,1.11l-3.68,21.37c-0.11,0.64,0.43,1.09,1.14,0.96l9.87-1.81c0.7-0.13,1.22,0.3,1.15,0.92
		c-0.65,5.3-2.16,9.61-4.55,12.93c-2.56,3.57-5.91,5.73-10.04,6.49c-3.36,0.62-5.72,0.14-7.09-1.42c-1.36-1.56-1.99-4.55-1.89-8.98
		c0.14-5.8,1.08-12.87,2.83-21.19c1.75-8.33,3.71-15.24,5.87-20.73c1.58-3.91,3.45-6.93,5.58-9.06c2.14-2.13,4.62-3.45,7.44-3.97
		c2.7-0.5,4.79-0.16,6.29,1.01c1.34,1.05,2.42,3.01,3.26,5.89c0.16,0.56,0.87,0.76,1.53,0.43l31.78-16.08
		c0.55-0.28,0.89-0.84,0.78-1.32c-1.83-8.01-6.18-13.65-13.05-16.93c-7.11-3.39-16.42-4.03-27.93-1.92
		c-9.23,1.7-17.45,4.77-24.66,9.22c-7.21,4.45-13.25,10.19-18.13,17.23c-5.63,8.07-10.07,17.42-13.33,28.05
		c-3.27,10.63-5.03,21.51-5.3,32.63c-0.34,14.24,3.04,24.45,10.15,30.62c7.1,6.18,17.61,7.99,31.52,5.43
		c17.92-3.29,31.6-11.44,41.04-24.44c0.55-0.76,1.09-1.54,1.61-2.33c0.5-0.76-0.01-1.55-0.91-1.42l-4.93,0.73
		c-1.51,0.22-1.46-1.74,0.05-2.07l7.89-1.73c0.43-0.09,0.82-0.38,1.02-0.75c6.45-11.99,10.35-27.4,11.72-46.23
		C512.52,411.9,512,411.5,511.32,411.62z"/>
</g>
</svg>
