<?xml version="1.0" encoding="utf-8"?>
<!-- Generator: Adobe Illustrator 25.4.1, SVG Export Plug-In . SVG Version: 6.00 Build 0)  -->
<svg version="1.1" id="Layer_1" xmlns="http://www.w3.org/2000/svg" xmlns:xlink="http://www.w3.org/1999/xlink" x="0px" y="0px"
	 viewBox="0 0 169.02 347.51" style="enable-background:new 0 0 169.02 347.51;" xml:space="preserve">
<style type="text/css">
	.st0{fill:#BFA46C;}
	.st1{fill:#262B2F;}
	.st2{fill:none;stroke:#000000;stroke-width:3;stroke-miterlimit:10;}
	.st3{clip-path:url(#SVGID_00000017490660466376333970000001594704945323816355_);}
	.st4{fill:#F1F2F2;}
	.st5{fill:#E6E7E8;}
	
		.st6{clip-path:url(#SVGID_00000017490660466376333970000001594704945323816355_);fill:none;stroke:#000000;stroke-width:3;stroke-miterlimit:10;}
	.st7{clip-path:url(#SVGID_00000017490660466376333970000001594704945323816355_);fill:none;stroke:#262B2F;stroke-miterlimit:10;}
	.st8{clip-path:url(#SVGID_00000083774546224492095600000000856348357966128315_);}
	.st9{clip-path:url(#SVGID_00000096749229607957637110000000587751384024582581_);}
	.st10{fill:#151B21;}
	.st11{fill:#C1C0C0;}
	.st12{opacity:0.74;}
	.st13{fill:#15171A;}
	.st14{fill:#BEA36C;}
	.st15{fill:#171919;}
	.st16{fill:#E6E6E5;}
	.st17{fill:#16191E;}
</style>
<g>
	<g>
		<path class="st1" d="M141.5,25.38c-0.08-0.1-0.15-0.2-0.23-0.3l-0.02,0.02C126.69,9.66,106.05,0,83.2,0
			C39.22,0,3.43,35.79,3.43,79.77v83.2c-0.3,4.84-0.32,9.71,0,14.62v5.05c0,43.99,35.79,79.77,79.77,79.77s79.77-35.79,79.77-79.77
			V79.77C162.98,58.77,154.82,39.64,141.5,25.38z M155.09,188.78c-5.59-1.8-11.53-2.33-17.33-2.85
			c-11.63-1.04-19.47-2.15-23.21-9.54c5.26-0.01,9.35-1.52,12.21-4.53c4.21-4.45,4.43-10.78,3.91-15.22
			c1.51-0.22,3.04-0.76,4.22-1.9c0.89-0.86,2.29-2.78,1.66-5.95c-0.11-0.56-0.26-1.09-0.44-1.57c2.74-1.6,5.46-4.1,5.17-7.63
			c-1.19-14.75,11.62-18.03,13.07-18.35l1.02-0.22v61.63C155.37,184.71,155.27,186.76,155.09,188.78z M130.07,237.46
			c-9.06,7.76-20.05,13.32-32.15,15.84c5.29-16.78-0.74-29.09-6.14-40.1c-3.51-7.16-6.83-13.92-7.11-21.56
			c-0.19-5.22,2.06-10.13,6.18-13.46c2.66-2.15,5.8-3.37,9.03-3.59c-6.97,17.06,4.47,26.91,14.68,35.68
			C123.53,218,132.03,225.31,130.07,237.46z M155.37,113.84c-3.03-3.53-12.47-15.73-11.91-30.06c0.3-7.81,3.55-15.15,9.67-21.9
			c1.47,5.72,2.25,11.72,2.25,17.89V113.84z M147.18,115.8c-6.79,3.38-14.36,10.75-13.52,23.87c-0.69,0.7-2.74,1.78-4.53,2.36
			l-9.97,2.94l9.21,3.98c0.05,0.04,0.12,0.11,0.19,0.2c-0.56-0.03-1.2-0.1-1.72-0.22l-6.46-1.5l1.97,6.34
			c0.71,2.28,2.03,9.55-1.12,12.88c-2.98,3.15-9.58,2.3-14.59,1.04c-7.21-1.82-14.71-0.14-20.58,4.61c-6,4.85-9.28,12.01-9,19.64
			c0.33,9.25,4.17,17.07,7.88,24.63c5.36,10.91,10.43,21.27,5.23,35.92c0.38-18-7.4-29.22-15.59-41.02
			c-7.85-11.3-15.96-22.98-17.95-42.43c-6.42-62.78,32.26-79.06,63.34-92.14c7.52-3.17,14.55-6.13,20.16-9.58
			c-2.62,5.15-4.06,10.58-4.27,16.25C135.33,97.73,142.57,109.68,147.18,115.8z M135.82,30.45c7.28,9.08,10.21,15.96,8.95,21.01
			c-1.88,7.53-13.87,12.58-27.75,18.42c-15.2,6.4-34.12,14.36-48.09,29.14c-16.46,17.4-22.95,40.56-19.86,70.78
			c2.19,21.4,11.26,34.47,19.27,46c8.14,11.73,15.24,21.95,14.13,39.01c-10.01-0.1-19.54-2.25-28.19-6.05
			c5.01-16.88-0.81-33.11-6.96-50.23c-14.32-39.94-32.11-89.58,61.23-186.3C119.01,16.15,128.31,22.45,135.82,30.45z M11.03,79.77
			c0-22.96,10.79-43.44,27.56-56.67c1.82,20-6.76,42.94-15.8,67.1c-4.13,11.05-8.32,22.25-11.76,33.63V79.77z M11.03,182.65v-19.35
			c1.51-23.97,10.32-47.52,18.88-70.42C39.89,66.23,49.32,41,45.63,18.18C56.58,11.48,69.45,7.6,83.2,7.6
			c5.93,0,11.7,0.73,17.22,2.09c-40.84,42.89-63.86,80.76-70.3,115.63c-5.82,31.52,2.6,55.02,10.04,75.75
			c5.76,16.05,10.8,30.11,7.19,44.16C25.67,232.77,11.03,209.4,11.03,182.65z M137.7,229.88c-1.68-11.17-10.34-18.61-18.18-25.36
			c-10.84-9.32-17.18-15.6-12.7-26.81c5.31,13.55,18.52,14.74,30.27,15.79c5.82,0.52,11.81,1.06,16.94,2.96
			C151.57,209.08,145.82,220.53,137.7,229.88z"/>
		<path class="st1" d="M98.09,333.98l-1.99-8.13h0.91l1.47,6.12c0.2-0.84,0.39-1.67,0.58-2.48c0.27-1.13,0.54-2.28,0.81-3.45
			l0.04-0.19h0.91l-0.79,3.3l0.68,2.81l1.43-6.12h0.91l-1.93,8.13h-0.79l-0.74-2.96l-0.68,2.84l-0.13,0.13H98.09z M59.27,333.98
			c-0.05,0-0.11,0-0.17-0.01c-0.65-0.07-1.17-0.35-1.54-0.82c-0.18-0.23-0.33-0.52-0.42-0.86c-0.09-0.33-0.14-0.72-0.15-1.16l0-0.24
			l0.88-0.02l0,0.24c0.01,0.35,0.04,0.65,0.11,0.9c0.06,0.24,0.16,0.44,0.27,0.59c0.21,0.28,0.52,0.44,0.95,0.5l0.02,0
			c0.02,0,0.05,0.01,0.07,0.01h0.11c0.16,0,0.32-0.02,0.48-0.06c0.15-0.04,0.29-0.09,0.42-0.17c0.12-0.07,0.21-0.16,0.29-0.26
			c0.07-0.09,0.11-0.2,0.13-0.33v-0.11c0-0.23-0.03-0.42-0.08-0.57c-0.05-0.15-0.14-0.29-0.24-0.4c-0.11-0.13-0.26-0.25-0.43-0.36
			c-0.18-0.12-0.39-0.25-0.63-0.4c-0.13-0.08-0.26-0.16-0.39-0.24c-0.14-0.08-0.29-0.18-0.44-0.28c-0.25-0.16-0.45-0.35-0.61-0.56
			c-0.16-0.21-0.28-0.44-0.35-0.67c-0.06-0.21-0.1-0.42-0.1-0.63c0-0.21,0.02-0.42,0.08-0.63c0.11-0.42,0.33-0.78,0.65-1.05
			c0.16-0.15,0.35-0.28,0.57-0.37c0.22-0.09,0.46-0.15,0.72-0.17c0.06,0,0.12-0.01,0.18-0.01c0.18,0,0.35,0.02,0.5,0.05
			c0.2,0.05,0.38,0.11,0.55,0.19c0.17,0.08,0.32,0.18,0.45,0.29c0.13,0.11,0.24,0.22,0.34,0.34c0.22,0.28,0.39,0.6,0.51,0.95
			l0.08,0.24l-0.88,0.26l-0.07-0.22c-0.08-0.24-0.19-0.46-0.34-0.64c-0.12-0.15-0.29-0.29-0.51-0.42c-0.17-0.1-0.38-0.15-0.64-0.15
			c-0.04,0-0.08,0-0.13,0c-0.16,0.01-0.3,0.05-0.42,0.1c-0.13,0.06-0.24,0.13-0.34,0.21c-0.18,0.16-0.3,0.37-0.37,0.62
			c-0.07,0.25-0.06,0.5,0.02,0.75c0.05,0.14,0.12,0.28,0.22,0.4c0.1,0.13,0.22,0.25,0.38,0.35c0.14,0.1,0.28,0.19,0.42,0.27
			c0.14,0.08,0.28,0.17,0.41,0.25c0.26,0.16,0.5,0.32,0.72,0.47c0.23,0.15,0.42,0.32,0.58,0.5c0.17,0.19,0.3,0.42,0.38,0.66
			c0.08,0.24,0.12,0.54,0.12,0.87c0,0.09,0,0.16-0.01,0.21c-0.03,0.29-0.13,0.54-0.28,0.74c-0.15,0.2-0.33,0.37-0.55,0.5
			c-0.21,0.12-0.43,0.21-0.66,0.27c-0.23,0.05-0.47,0.08-0.69,0.08H59.27z M51.91,333.97c-0.24,0-0.48-0.01-0.73-0.02
			c-0.26-0.02-0.5-0.07-0.71-0.15c-0.23-0.09-0.43-0.23-0.58-0.42c-0.16-0.2-0.24-0.47-0.25-0.8l0-0.08c0-0.06,0-0.19-0.01-0.41
			c0-0.22-0.01-0.48-0.01-0.79c0-0.31-0.01-0.65-0.01-1.03v-1.14c0-0.38,0-0.76-0.01-1.12c0-0.36-0.01-0.69-0.01-0.97v-1.18h0.89
			v1.18c0,0.28,0,0.6,0.01,0.96c0,0.36,0.01,0.73,0.01,1.12v1.14c0,0.37,0,0.71,0.01,1.02c0,0.31,0.01,0.57,0.01,0.79
			c0,0.22,0.01,0.36,0.01,0.42v0.09c0,0.07,0.01,0.14,0.03,0.21c0.01,0.04,0.05,0.07,0.09,0.09c0.05,0.04,0.16,0.09,0.39,0.14
			c0.2,0.04,0.49,0.07,0.87,0.08c0.38-0.01,0.68-0.03,0.87-0.08c0.23-0.05,0.34-0.1,0.39-0.14c0.03-0.02,0.08-0.06,0.09-0.1
			c0.02-0.07,0.03-0.14,0.03-0.21v-0.09c0-0.06,0-0.2,0.01-0.42c0-0.22,0.01-0.48,0.01-0.79c0-0.31,0.01-0.65,0.01-1.02v-1.14
			c0-0.39,0-0.76,0.01-1.12c0-0.36,0.01-0.68,0.01-0.96v-1.18h0.89v1.18c0,0.28,0,0.6-0.01,0.97c0,0.36-0.01,0.74-0.01,1.12v1.14
			c0,0.38,0,0.72-0.01,1.03c0,0.31-0.01,0.57-0.01,0.79c0,0.22-0.01,0.35-0.01,0.41v0.08c-0.01,0.34-0.09,0.61-0.25,0.81
			c-0.15,0.19-0.34,0.33-0.57,0.42c-0.21,0.08-0.45,0.13-0.71,0.15C52.38,333.97,52.14,333.97,51.91,333.97z M119.95,333.96v-8.1
			h4.27v0.89h-3.39v4.13h2.4v0.89h-2.4v1.31h3.39v0.89H119.95z M64.44,333.96v-8.1h4.27v0.89h-3.39v4.13h2.4v0.89h-2.4v1.31h3.39
			v0.89H64.44z M130.33,333.95v-2.72l-2.44-3.59v6.3h-0.89v-8.09h0.76l2.56,3.8v-3.8h0.89v5.08l0.1,0.11l-0.1,0.1v2.8H130.33z
			 M116.29,333.95v-5.7l-1.17,3.13h-0.56l-1.26-3.24v5.81h-0.87l-0.01-8.09h0.95l1.46,3.84l1.39-3.84h0.97v8.09H116.29z
			 M84.39,333.95v-8.09h4.27v0.89h-3.39v4.13h2.39v0.89h-2.39v2.19H84.39z M38.24,333.95v-2.19h-2.5v2.19h-0.89v-8.1h0.89v5.03h2.5
			v-5.03h0.89v8.1H38.24z M107.38,333.92c-0.03,0-0.05,0-0.08,0l-0.01,0c-0.39-0.02-0.75-0.15-1.07-0.39
			c-0.31-0.23-0.57-0.55-0.79-0.95c-0.2-0.37-0.36-0.8-0.47-1.27c-0.11-0.48-0.16-0.99-0.15-1.52l0-0.07
			c0.02-0.52,0.1-1.02,0.23-1.48c0.13-0.46,0.31-0.87,0.54-1.21c0.24-0.37,0.52-0.66,0.83-0.87c0.31-0.2,0.64-0.31,0.99-0.31
			c0.03,0,0.05,0,0.08,0c0.39,0.02,0.75,0.15,1.07,0.39c0.31,0.23,0.57,0.55,0.79,0.95c0.2,0.37,0.36,0.79,0.47,1.27
			c0.11,0.47,0.16,0.99,0.14,1.52l0,0.07c-0.02,0.53-0.09,1.02-0.22,1.48c-0.13,0.46-0.31,0.87-0.54,1.21
			c-0.23,0.37-0.51,0.66-0.83,0.87C108.06,333.82,107.73,333.92,107.38,333.92z M107.34,333.03c0.19,0,0.37-0.06,0.55-0.18
			c0.2-0.14,0.38-0.34,0.55-0.59c0.17-0.27,0.32-0.61,0.43-0.98c0.11-0.38,0.18-0.8,0.19-1.24l0-0.07c0.01-0.46-0.03-0.9-0.12-1.29
			c-0.09-0.4-0.22-0.75-0.39-1.05c-0.15-0.27-0.33-0.49-0.53-0.64c-0.19-0.14-0.38-0.22-0.58-0.23l-0.04,0
			c-0.19,0-0.37,0.06-0.55,0.18c-0.2,0.14-0.38,0.34-0.55,0.59c-0.17,0.27-0.32,0.61-0.43,0.98c-0.11,0.38-0.18,0.8-0.19,1.24
			l0,0.07c-0.01,0.46,0.03,0.9,0.12,1.29c0.09,0.4,0.22,0.75,0.39,1.05c0.15,0.27,0.33,0.49,0.53,0.64
			c0.19,0.14,0.38,0.22,0.58,0.23L107.34,333.03z M78.92,333.92c-0.03,0-0.05,0-0.08,0l-0.01,0c-0.39-0.02-0.75-0.15-1.07-0.39
			c-0.31-0.23-0.57-0.55-0.79-0.95c-0.2-0.37-0.36-0.79-0.47-1.27c-0.11-0.48-0.16-0.99-0.15-1.52l0-0.07
			c0.02-0.53,0.1-1.02,0.23-1.48c0.13-0.46,0.31-0.87,0.54-1.21c0.24-0.37,0.52-0.66,0.83-0.87c0.31-0.2,0.64-0.31,0.99-0.31
			c0.03,0,0.05,0,0.08,0c0.39,0.02,0.75,0.15,1.07,0.39c0.31,0.23,0.57,0.55,0.79,0.95c0.2,0.37,0.36,0.79,0.47,1.27
			c0.11,0.48,0.16,0.99,0.14,1.52l0,0.07c-0.02,0.53-0.09,1.02-0.22,1.48c-0.13,0.46-0.31,0.87-0.54,1.21
			c-0.24,0.37-0.51,0.66-0.83,0.87C79.6,333.82,79.27,333.92,78.92,333.92z M78.88,333.03c0.19,0,0.37-0.06,0.55-0.18
			c0.2-0.14,0.39-0.34,0.55-0.59c0.17-0.27,0.32-0.61,0.43-0.98c0.11-0.38,0.18-0.8,0.19-1.24l0-0.07c0.01-0.46-0.03-0.9-0.12-1.29
			c-0.09-0.4-0.22-0.75-0.39-1.05c-0.15-0.27-0.33-0.49-0.53-0.64c-0.19-0.14-0.38-0.22-0.58-0.23l-0.04,0
			c-0.19,0-0.37,0.06-0.55,0.18c-0.2,0.14-0.38,0.34-0.55,0.59c-0.17,0.27-0.32,0.61-0.43,0.98c-0.11,0.38-0.18,0.8-0.19,1.24
			l0,0.07c-0.01,0.46,0.03,0.89,0.12,1.29c0.09,0.4,0.22,0.75,0.39,1.05c0.15,0.27,0.33,0.49,0.53,0.64
			c0.19,0.14,0.38,0.22,0.58,0.23L78.88,333.03z M44.14,333.92c-0.03,0-0.05,0-0.08,0l-0.01,0c-0.39-0.02-0.75-0.15-1.07-0.39
			c-0.31-0.23-0.57-0.55-0.79-0.95c-0.2-0.37-0.36-0.79-0.47-1.27c-0.11-0.48-0.16-0.99-0.15-1.52l0-0.07
			c0.02-0.53,0.1-1.02,0.23-1.48c0.13-0.46,0.31-0.87,0.54-1.21c0.24-0.37,0.52-0.66,0.83-0.87c0.31-0.2,0.64-0.31,0.99-0.31
			c0.03,0,0.05,0,0.08,0c0.39,0.02,0.75,0.15,1.07,0.39c0.31,0.23,0.57,0.55,0.79,0.95c0.2,0.37,0.36,0.79,0.47,1.27
			c0.11,0.47,0.16,0.99,0.14,1.52l0,0.07c-0.02,0.53-0.09,1.02-0.22,1.48c-0.13,0.46-0.31,0.87-0.54,1.21
			c-0.24,0.37-0.51,0.66-0.83,0.87C44.82,333.82,44.49,333.92,44.14,333.92z M44.11,333.03c0.19,0,0.37-0.06,0.55-0.18
			c0.2-0.14,0.39-0.34,0.55-0.59c0.17-0.27,0.32-0.61,0.43-0.98c0.11-0.38,0.18-0.8,0.19-1.24l0-0.07c0.01-0.46-0.03-0.9-0.12-1.29
			c-0.09-0.4-0.22-0.75-0.39-1.05c-0.15-0.27-0.33-0.49-0.53-0.64c-0.19-0.14-0.38-0.22-0.58-0.23l-0.04,0
			c-0.19,0-0.37,0.06-0.55,0.18c-0.2,0.14-0.38,0.34-0.55,0.59c-0.17,0.27-0.32,0.61-0.43,0.98c-0.11,0.38-0.18,0.8-0.19,1.24
			l0,0.07c-0.01,0.46,0.03,0.89,0.12,1.29c0.09,0.4,0.22,0.75,0.39,1.05c0.15,0.27,0.33,0.49,0.53,0.64
			c0.19,0.14,0.38,0.22,0.58,0.23L44.11,333.03z"/>
		<g>
			<path class="st1" d="M35.36,319.52v-9.58h-9.41v9.58h-5.41v-37.01h5.41v22.02h9.41v-22.02h5.41v37.01H35.36z"/>
			<path class="st1" d="M88.36,294.55c-0.5-2.15-1.21-4.09-2.12-5.76c-1.01-1.84-2.25-3.32-3.68-4.39c-1.51-1.15-3.22-1.77-5.1-1.84
				c-0.13-0.01-0.26-0.01-0.38-0.01c-1.68,0-3.28,0.49-4.76,1.48c-1.49,0.98-2.79,2.33-3.88,4.03c-1.01,1.58-1.83,3.43-2.44,5.51
				c-0.59,2.06-0.95,4.28-1.05,6.68v0.28c-0.06,2.41,0.15,4.71,0.67,6.86c0.51,2.15,1.22,4.08,2.13,5.75
				c1.01,1.84,2.25,3.32,3.67,4.39c1.52,1.15,3.22,1.77,5.13,1.84h0.02c0.13,0.01,0.26,0.01,0.38,0.01c1.68,0,3.28-0.49,4.75-1.48
				c1.46-0.98,2.75-2.33,3.84-4.03c1.01-1.58,1.83-3.43,2.43-5.52c0.6-2.06,0.94-4.29,1-6.67v-0.28
				C89.07,298.99,88.85,296.69,88.36,294.55z M83.59,301.57c-0.05,1.91-0.33,3.67-0.81,5.25c-0.46,1.58-1.09,2.96-1.81,4.1
				c-0.67,1-1.4,1.81-2.21,2.37c-0.64,0.45-1.28,0.67-1.95,0.67h-0.14c-0.73-0.05-1.41-0.33-2.1-0.86c-0.78-0.6-1.5-1.48-2.1-2.58
				c-0.68-1.24-1.23-2.73-1.61-4.39c-0.39-1.69-0.57-3.51-0.5-5.5l-0.01-0.28c0.06-1.9,0.34-3.66,0.81-5.24
				c0.47-1.59,1.09-2.97,1.81-4.1c0.67-1.01,1.41-1.81,2.21-2.37c0.64-0.46,1.28-0.67,1.96-0.67h0.13c0.73,0.05,1.42,0.33,2.11,0.86
				c0.78,0.6,1.49,1.48,2.1,2.58c0.67,1.24,1.22,2.73,1.61,4.4c0.39,1.68,0.56,3.51,0.5,5.5V301.57z"/>
			<path class="st1" d="M122.27,319.66l-9.09-37.11h5.57l5.83,24.23c0.61-2.6,1.21-5.17,1.8-7.71c1.16-4.96,2.34-9.99,3.55-15.11
				l0.33-1.41h5.56l-3.63,15.21l2.19,9.02l5.69-24.28h5.57l-8.83,37.11h-4.67l-2.63-10.51l-2.29,9.59l-0.88,0.92l-0.82,0.05H122.27z
				"/>
			<polygon class="st1" points="52.85,298.21 54.25,300.77 56.81,302.17 54.25,303.57 52.85,306.13 51.45,303.57 48.89,302.17 
				51.45,300.77 			"/>
			<polygon class="st1" points="101.09,298.21 102.49,300.77 105.05,302.17 102.49,303.57 101.09,306.13 99.69,303.57 97.14,302.17 
				99.69,300.77 			"/>
		</g>
	</g>
</g>
</svg>
