<svg xmlns="http://www.w3.org/2000/svg" viewBox="0 0 1002.67 403.62"><defs><style>.cls-1{fill:#00a9a6;}.cls-2{fill:#7b89f7;}.cls-3{fill:#00a9e0;}.cls-4{fill:#ff4f5a;}.cls-5{fill:#ff6a13;}.cls-6{fill:#fdcb00;}.cls-7{fill:#28a745;}.cls-8{fill:#2c3e50;}</style></defs><g id="Layer_2" data-name="Layer 2"><path class="cls-1" d="M178.35,230.86a35.39,35.39,0,0,0,22.34,10.46l-4.14,50.45c-1.63,19.85-23,31.73-42.81,23.48-.54-.23-1.08-.47-1.61-.72l-.78-.38c-19.57-9.84-24.26-34.51-9.53-48.52Z"/><path class="cls-1" d="M202.12,223.91l-1.27,15.43a33.46,33.46,0,0,1-21.07-9.84L191,218.83A18,18,0,0,0,202.12,223.91Z"/><path class="cls-2" d="M168.08,205.91a35.33,35.33,0,0,0,6,19.79l-42,28.22c-16.53,11.1-39.14,1.81-45-18.82-.16-.57-.31-1.14-.45-1.72-.07-.28-.13-.56-.19-.84-4.51-21.43,11.86-40.48,32-37.71l49.93,6.89A36.26,36.26,0,0,0,168.08,205.91Z"/><path class="cls-2" d="M188.61,216l-12.85,8.63a33.31,33.31,0,0,1-5.7-18.68,33.69,33.69,0,0,1,.23-3.92l15.34,2.11c-.06.6-.08,1.2-.08,1.81A18,18,0,0,0,188.61,216Z"/><path class="cls-3" d="M169.74,195.19l-48.27-15.27c-19-6-25.82-29.48-13.36-46.95.34-.48.69-.95,1.06-1.41h0l.54-.67c13.94-16.9,39.05-16,49.43,1.5l25.76,43.35A35.59,35.59,0,0,0,169.74,195.19Z"/><path class="cls-3" d="M193.82,190.74a18.14,18.14,0,0,0-7.43,9.71l-14.76-4.67a33.64,33.64,0,0,1,14.28-18.35Z"/><path class="cls-4" d="M203.61,172.37a33.27,33.27,0,0,1,11.24,1.94l-5.48,14.49a18,18,0,0,0-12.22.25l-5.56-14.46A33.29,33.29,0,0,1,203.61,172.37Z"/><path class="cls-4" d="M233.37,125.3l-17.82,47.16a35.49,35.49,0,0,0-24.67.29l-18.16-47.26c-7.15-18.59,6.94-38.56,28.38-39.72.58,0,1.17,0,1.76,0h.87C225.63,86.09,240.56,106.29,233.37,125.3Z"/><path class="cls-5" d="M235.33,195l-14.74,4.76a18.13,18.13,0,0,0-7.83-9.4L220.59,177A33.67,33.67,0,0,1,235.33,195Z"/><path class="cls-5" d="M285.19,178.92l-48,15.46a35.75,35.75,0,0,0-15.62-19.09l25.62-43.67C257.3,114.45,281.71,113,296,129c.39.44.77.89,1.15,1.35.18.22.36.45.53.68C311,148.42,304.54,172.69,285.19,178.92Z"/><path class="cls-6" d="M237.16,205.91a33.32,33.32,0,0,1-5.25,18L219,215.34a18.07,18.07,0,0,0,2.48-12l15.33-2.2A33.83,33.83,0,0,1,237.16,205.91Z"/><path class="cls-6" d="M321.3,230.2c-.1.57-.22,1.15-.34,1.73-.07.28-.13.57-.2.85-5.23,21.26-28.25,31.33-45.19,20.09l-42-27.88a35.25,35.25,0,0,0,5.57-19.08,36.43,36.43,0,0,0-.35-5l50.1-7.19C308.59,190.86,324.94,209.05,321.3,230.2Z"/><path class="cls-7" d="M207.19,239.26l-1.35-15.42a18.07,18.07,0,0,0,10.91-5.54L228,228.9A33.42,33.42,0,0,1,207.19,239.26Z"/><path class="cls-7" d="M258,313.07c-.51.28-1,.55-1.57.81l-.78.37c-19.89,9.18-42.11-2.55-43.88-22.8l-4.4-50.22a35.41,35.41,0,0,0,22.08-11L266.33,265C280.83,278.61,276.8,302.73,258,313.07Z"/><path class="cls-8" d="M419.82,148.06v14.36h-68V148.06Zm-24.89,0v82.57H376.62V148.06Z"/><path class="cls-8" d="M453.68,146.39q5.38,0,9.82.35t8.43,1a51.56,51.56,0,0,1,7.84,1.8l-1.43,13.28q-4.2-.24-8.14-.36c-2.63-.08-5.27-.14-7.9-.18s-5.38-.06-8.26-.06a28.72,28.72,0,0,0-8.55,1.08,10.17,10.17,0,0,0-5.45,4,20.73,20.73,0,0,0-2.93,8.37,88.37,88.37,0,0,0-.9,13.94,77.2,77.2,0,0,0,1.32,16.16q1.32,5.87,4.43,8.32a13.17,13.17,0,0,0,8.37,2.45,28.19,28.19,0,0,0,6.59-.72,26.08,26.08,0,0,0,5.5-2c1.68-.84,3.23-1.66,4.67-2.46L469,220a28.63,28.63,0,0,1-5.32,5.38,33,33,0,0,1-8.56,4.91,30.35,30.35,0,0,1-11.49,2q-9.33,0-15.25-4.43t-8.68-13.94q-2.76-9.51-2.75-24.71,0-16.15,3.53-25.49t11.6-13.35Q440.17,146.39,453.68,146.39Zm29,36.61v47.63H469.12l-2.51-12.56-1.68-3.35V183Z"/><path class="cls-8" d="M506.7,148.06v82.57H488.39V148.06Zm30.63,31.71v13.76H505.74V179.77Zm17-31.71v82.57H536V148.06Z"/><path class="cls-8" d="M595,146.39a57.14,57.14,0,0,1,16.63,2.09,22.78,22.78,0,0,1,11,6.94q4.13,4.85,6,13.16a94.38,94.38,0,0,1,1.92,20.77,94.35,94.35,0,0,1-1.92,20.76q-1.9,8.31-6,13.16a22.7,22.7,0,0,1-11,6.94,66.9,66.9,0,0,1-33.26,0,23.08,23.08,0,0,1-11-6.94q-4.2-4.85-6.11-13.16a95,95,0,0,1-1.91-20.76,95.06,95.06,0,0,1,1.91-20.77q1.92-8.31,6.11-13.16a23.15,23.15,0,0,1,11-6.94A57.09,57.09,0,0,1,595,146.39Zm0,14.47q-6.35,0-9.87,2.52c-2.36,1.67-4,4.57-5,8.67s-1.5,9.88-1.5,17.3.5,13.08,1.5,17.23,2.67,7.06,5,8.73,5.64,2.52,9.87,2.52,7.4-.84,9.75-2.52,4-4.58,5-8.73,1.49-9.89,1.49-17.23-.5-13.19-1.49-17.3-2.68-7-5-8.67S599.16,160.86,595,160.86Z"/><path class="cls-8" d="M653.64,148.06v61.75a5.91,5.91,0,0,0,1.68,4.55,6.79,6.79,0,0,0,4.78,1.55h28.84l.84,13.76q-8.49,1-17.77,1.14t-18.49.18q-9,0-13.58-4.85a17.25,17.25,0,0,1-4.61-12.38v-65.7Z"/><path class="cls-8" d="M709.17,148.06v82.57H691V148.06Z"/><path class="cls-8" d="M749.37,146.86A56.56,56.56,0,0,1,766,149a23.08,23.08,0,0,1,10.89,6.88q4.13,4.78,6,13a92.12,92.12,0,0,1,1.91,20.53,92.08,92.08,0,0,1-1.91,20.52q-1.92,8.19-6,13A23,23,0,0,1,766,229.73a56.56,56.56,0,0,1-16.58,2.1q-9.45,0-17.35-.36t-15.08-.84l7.66-13.52q4.54.24,10.83.42t13.94.18q6.11,0,9.64-2.46t5-8.67q1.5-6.22,1.5-17.23T764,172.11c-1-4.14-2.67-7.06-5-8.73s-5.57-2.52-9.64-2.52q-7.29,0-13,.07t-11.25.06l-8.14-12.93q7.18-.48,15-.84T749.37,146.86Zm-14.12,1.2v82.57H716.94V148.06Z"/><path class="cls-8" d="M828.83,148.06a6.44,6.44,0,0,1,4,1.32,6.35,6.35,0,0,1,2.33,3.47l23.94,77.78H840.44L823.57,170c-.32-1.36-.64-2.73-1-4.13s-.6-2.73-.84-4h-3.23c-.24,1.28-.5,2.62-.78,4s-.62,2.77-1,4.13l-16.88,60.67H781.08l24.06-77.78a6.35,6.35,0,0,1,2.33-3.47,6.44,6.44,0,0,1,4-1.32Zm12.69,47v13.76H798.68V195.09Z"/><path class="cls-8" d="M917,148.06l-27.89,56.36H871.91l-28-56.36h19l13.88,30.4a31.39,31.39,0,0,1,1.79,5.14c.48,1.84.92,3.59,1.32,5.27h1.2c.48-1.68,1-3.43,1.43-5.27a43,43,0,0,1,1.68-5.14L898,148.06Zm-27.41,45.23v37.34H871.31V193.29Z"/><path class="cls-8" d="M568.41,245.76v3.53H551.73v-3.53Zm-6.11,0V266h-4.49V245.76Z"/><path class="cls-8" d="M608,245.35a13.72,13.72,0,0,1,4.08.52,5.55,5.55,0,0,1,2.69,1.7,7.52,7.52,0,0,1,1.49,3.23,27.85,27.85,0,0,1,0,10.19,7.52,7.52,0,0,1-1.49,3.23,5.64,5.64,0,0,1-2.69,1.71,16.57,16.57,0,0,1-8.16,0,5.72,5.72,0,0,1-2.7-1.71,7.3,7.3,0,0,1-1.5-3.23,27.85,27.85,0,0,1,0-10.19,7.3,7.3,0,0,1,1.5-3.23,5.63,5.63,0,0,1,2.7-1.7A13.82,13.82,0,0,1,608,245.35Zm0,3.56a4.12,4.12,0,0,0-2.42.61,3.47,3.47,0,0,0-1.23,2.13,24.42,24.42,0,0,0,0,8.47,3.49,3.49,0,0,0,1.23,2.15,5,5,0,0,0,4.82,0,3.59,3.59,0,0,0,1.23-2.15,24.42,24.42,0,0,0,0-8.47,3.56,3.56,0,0,0-1.23-2.13A4.1,4.1,0,0,0,608,248.91Z"/><path class="cls-8" d="M665.68,245.76V258a13.26,13.26,0,0,1-.76,4.95,5,5,0,0,1-2.51,2.7,10.88,10.88,0,0,1-4.66.84,12.08,12.08,0,0,1-4.93-.84,5.18,5.18,0,0,1-2.67-2.7,12.39,12.39,0,0,1-.82-4.95V245.76h4.49V258a10.15,10.15,0,0,0,.34,3,2.4,2.4,0,0,0,1.16,1.51,5.58,5.58,0,0,0,4.39,0,2.41,2.41,0,0,0,1.14-1.51,10.15,10.15,0,0,0,.34-3V245.76Z"/><path class="cls-8" d="M706.8,245.47a14.3,14.3,0,0,1,4.33.54,4.23,4.23,0,0,1,2.44,1.85,7.09,7.09,0,0,1,.78,3.63A7.48,7.48,0,0,1,714,254a3.47,3.47,0,0,1-1.22,1.72,4.65,4.65,0,0,1-2.32.82v.15a3.55,3.55,0,0,1,1.1.41,3.69,3.69,0,0,1,1.08,1,4.21,4.21,0,0,1,.73,1.68l1.76,6.32h-4.73l-1.55-6.17a2.48,2.48,0,0,0-.78-1.38,2.38,2.38,0,0,0-1.43-.38l-3.36,0L701,258l-1.66-.06.09-3.26h7.31a5.55,5.55,0,0,0,1.87-.25,1.57,1.57,0,0,0,1-.9,5.89,5.89,0,0,0,0-3.59,1.6,1.6,0,0,0-1-.88,5.55,5.55,0,0,0-1.87-.25c-1.84,0-3.39,0-4.67,0s-2.14.05-2.61.08l-.44-3.2c.82-.1,1.59-.16,2.32-.2s1.52-.07,2.38-.08Zm-3.38.29V266H699V245.76Z"/></g></svg>