<?xml version="1.0" encoding="utf-8"?>
<!-- Generator: Adobe Illustrator 26.0.1, SVG Export Plug-In . SVG Version: 6.00 Build 0)  -->
<svg version="1.1" id="Layer_1" xmlns="http://www.w3.org/2000/svg" xmlns:xlink="http://www.w3.org/1999/xlink" x="0px" y="0px"
	 viewBox="0 0 155.05 155.05" style="enable-background:new 0 0 155.05 155.05;" xml:space="preserve">
<style type="text/css">
	.st0{fill:#F2623E;}
	.st1{fill:#E6E7E8;}
</style>
<g>
	<circle class="st1" cx="77.53" cy="77.52" r="75.74"/>
	<g>
		<path d="M136.27,86.9c1.08,0.01,1.63-1.29,0.87-2.06l-6.04-6.09l-1.41-1.44c-0.75-0.77-0.21-2.06,0.87-2.06l1.32,0.01
			c1.08,0.01,1.63-1.29,0.87-2.06l-6.04-6.09L98.08,38.06c-0.23-0.23-0.54-0.36-0.86-0.36H61.16c-1.07,0-1.61,1.29-0.86,2.06
			l7.4,7.52c0.75,0.76,0.21,2.06-0.86,2.06l0,0c-0.32,0-0.63-0.13-0.86-0.36L55.24,38.06c-0.23-0.23-0.54-0.36-0.86-0.36H26.89
			c-0.67,0-1.21,0.54-1.21,1.21v40.83v6.49c0,0.32,0.13,0.63,0.35,0.85l37.8,38.03c0.76,0.76,2.06,0.23,2.06-0.85V96.12
			c0-1.08,1.31-1.62,2.07-0.85l11.78,11.97l1.27,1.29l11.87,12.07c0.23,0.23,0.54,0.36,0.86,0.36h33.18c1.07,0,1.61-1.29,0.86-2.06
			l-7.47-7.59c-0.74-0.75-0.23-2.03,0.83-2.06l9.79-0.24c1.06-0.03,1.57-1.3,0.83-2.06l-7.5-7.62c-0.75-0.77-0.21-2.06,0.87-2.06
			l1.27,0.01c1.08,0.01,1.63-1.29,0.87-2.06l-6.3-6.4c-0.75-0.77-0.21-2.06,0.87-2.06l6.07,0.05L136.27,86.9z"/>
		<g>
			<g>
				<g>
					<path class="st0" d="M81.54,70.48l14.74,0.11c0.36,0,0.7,0.15,0.96,0.41l19.2,19.51c0.85,0.86,0.23,2.32-0.98,2.31l-9.31-0.07
						c-1.21-0.01-1.83,1.45-0.98,2.31l7.45,7.57c0.84,0.86,0.24,2.31-0.97,2.31h-20.4c-0.36,0-0.71-0.15-0.97-0.41l-11.81-12h0
						L59.42,73.16c-0.85-0.87-2.32-0.26-2.32,0.95v18.25v0.87v8.42c0,1.21-1.46,1.81-2.32,0.96L30.48,78.32
						c-0.25-0.25-0.4-0.6-0.4-0.96v-33.9c0-0.75,0.61-1.36,1.36-1.36h21.03c0.36,0,0.71,0.15,0.97,0.4l3.65,3.7l23.49,23.86
						C80.84,70.33,81.18,70.48,81.54,70.48z"/>
				</g>
				<g>
					<path class="st0" d="M124.15,70.81l-0.59-0.6l-27.27-27.7c-0.26-0.26-0.6-0.41-0.97-0.41H72.03c-1.2,0-1.81,1.45-0.97,2.31
						L96.45,70.2c0.25,0.26,0.6,0.4,0.96,0.4l26.15,0.21L124.15,70.81z"/>
				</g>
			</g>
		</g>
	</g>
</g>
</svg>
