<?xml version="1.0" encoding="utf-8"?>
<!-- Generator: Adobe Illustrator 26.0.1, SVG Export Plug-In . SVG Version: 6.00 Build 0)  -->
<svg version="1.1" id="Layer_1" xmlns="http://www.w3.org/2000/svg" xmlns:xlink="http://www.w3.org/1999/xlink" x="0px" y="0px"
	 viewBox="0 0 562.78 155.05" style="enable-background:new 0 0 562.78 155.05;" xml:space="preserve">
<style type="text/css">
	.st0{fill:#F2623E;}
	.st1{fill:#E6E7E8;}
	.st2{fill:#FFFFFF;}
</style>
<g>
	<g>
		<path d="M178.61,85.97c1.71,0.01,2.58-2.06,1.38-3.27l-9.6-9.68l-2.25-2.28c-1.2-1.22-0.33-3.28,1.38-3.27l2.09,0.02
			c1.71,0.01,2.58-2.06,1.38-3.27l-9.6-9.68L117.9,8.33c-0.36-0.37-0.85-0.57-1.37-0.57H59.2c-1.7,0-2.56,2.05-1.37,3.27L69.6,22.98
			c1.2,1.21,0.34,3.27-1.37,3.27h0c-0.51,0-1.01-0.21-1.37-0.57L49.79,8.33c-0.36-0.37-0.85-0.57-1.37-0.57H4.71
			c-1.06,0-1.92,0.86-1.92,1.92V74.6v10.31c0,0.51,0.2,0.99,0.56,1.35l60.1,60.46c1.21,1.22,3.28,0.36,3.28-1.35v-44.73
			c0-1.72,2.08-2.57,3.29-1.35l18.72,19.02l2.02,2.05l18.88,19.18c0.36,0.37,0.85,0.57,1.37,0.57h52.75c1.7,0,2.56-2.05,1.37-3.27
			l-11.88-12.06c-1.18-1.2-0.36-3.23,1.32-3.27l15.57-0.38c1.68-0.04,2.5-2.07,1.32-3.27l-11.92-12.11
			c-1.2-1.22-0.33-3.28,1.38-3.27l2.01,0.02c1.71,0.01,2.58-2.05,1.38-3.27l-10.02-10.18c-1.2-1.22-0.33-3.28,1.38-3.27l9.66,0.08
			L178.61,85.97z"/>
		<path d="M559.75,69.18c-0.16-2.63-0.33-5-0.89-7.41c-1.03-4.47-2.97-8.6-5.6-12.05c-0.4-0.52-0.65-1.14-0.7-1.79
			c-0.14-1.58-0.34-3.11-0.69-4.65c-1.51-6.55-4.95-12.36-9.68-16.38c-5.75-4.88-13.1-7.45-21.24-7.45h-16.59
			c-6.9,0-13.23,1.85-18.5,5.39c-1.16,0.77-2.65,0.77-3.8,0c-5.27-3.53-11.6-5.39-18.5-5.39h-16.51c-5.85,0-11.31,1.34-16.06,3.92
			c-0.8,0.43-1.73,0.57-2.61,0.31L410.3,18.4c-2.15-0.63-4.3,0.99-4.3,3.23v5.55c0,3.07-3.72,4.49-5.84,2.27
			c-6.16-6.45-15.14-9.99-23.95-9.99H324.9c-10.94,0-22.15,5.41-27.96,15c-1.32,2.18-4.45,2.09-5.73-0.12
			c-1.66-2.85-3.74-5.37-6.16-7.43c-5.75-4.88-13.09-7.46-21.23-7.46h-34.55c-5.85,0-11.31,1.34-16.06,3.92
			c-0.8,0.43-1.73,0.57-2.61,0.31l-18.06-5.27c-2.15-0.63-4.3,0.99-4.3,3.23v103.45c0,1.86,1.51,3.37,3.37,3.36l32.24-0.07
			c1.84,0,3.34-1.48,3.35-3.32c0.07-7.56,0.24-26,0.34-33.49c0.02-1.82,1.48-3.29,3.3-3.31c6.82-0.1,22.55-0.22,29.47-0.27
			c1.86-0.01,3.38,1.49,3.38,3.35l0.07,33.75c0,1.86,1.51,3.36,3.37,3.35l32.19-0.07c1.83,0,3.32-1.47,3.35-3.3l0.07-3.57
			c0-0.01,0-0.03,0-0.04c0.05-2.94,3.59-4.41,5.69-2.35c6.17,6.03,14.9,9.34,23.46,9.34h51.31c12.14,0,24.6-6.77,29.56-18.57H413
			v15.13c0,1.86,1.5,3.36,3.36,3.36h25.24c1.84,0,3.34-1.48,3.36-3.32c0.07-7.6,0.24-26.15,0.34-33.63
			c0.02-1.81,1.47-3.27,3.28-3.32c3.21-0.08,8.13-0.15,11.4-0.2c1.88-0.03,3.41,1.49,3.41,3.37l-0.06,33.81
			c0,1.86,1.51,3.37,3.37,3.37l32.48-0.07c1.85,0,3.35-1.5,3.35-3.35l0.14-33.52c0.01-1.82,1.47-3.31,3.29-3.35l11.46-0.24
			c1.87-0.04,3.41,1.46,3.43,3.33l0.36,33.87c0.02,1.85,1.52,3.33,3.37,3.33l31.83-0.07c1.82,0,3.31-1.46,3.35-3.28l0.08-3.56
			C559.95,116.34,560.17,76.38,559.75,69.18z"/>
	</g>
	<path class="st2" d="M91.6,59.87l23.43,0.18c0.57,0,1.12,0.24,1.52,0.64l30.53,31.01c1.35,1.37,0.37,3.69-1.55,3.67l-14.8-0.12
		c-1.92-0.02-2.9,2.3-1.55,3.67l11.85,12.03c1.34,1.36,0.38,3.67-1.54,3.67h-32.44c-0.58,0-1.13-0.23-1.54-0.64L86.74,94.92h-0.01
		L56.42,64.13c-1.35-1.38-3.7-0.42-3.7,1.51v29.01v1.38v13.39c0,1.92-2.32,2.89-3.68,1.53L10.42,72.33c-0.4-0.4-0.63-0.95-0.63-1.53
		V16.91c0-1.19,0.97-2.16,2.16-2.16h33.44c0.58,0,1.13,0.23,1.54,0.64l5.8,5.89l37.35,37.94C90.48,59.64,91.03,59.87,91.6,59.87z
		 M159.34,60.4l-0.94-0.95L115.04,15.4c-0.41-0.41-0.96-0.64-1.54-0.64H76.48c-1.91,0-2.88,2.31-1.54,3.67l40.36,40.99
		c0.4,0.41,0.95,0.64,1.52,0.64l41.58,0.33L159.34,60.4z M263.82,26.44c5.72,0,11.79,1.62,16.71,5.79
		c3.56,3.02,6.19,7.44,7.39,12.62c0.45,1.97,0.6,4.16,0.72,6.25c0.33,5.69,0.24,39.48,0.13,49.64c-0.01,1.18-0.97,2.13-2.16,2.13
		h-13.78c-1.19,0-2.16-0.97-2.16-2.16v-49.7c-0.05-5.39-1.1-6.45-2.56-7.69c-1.46-1.24-3.88-2.06-6.54-2.06h-39.04
		c-2.67,0-5.08,0.82-6.54,2.06c-1.46,1.24-2.5,2.3-2.56,7.69c-0.01,0.73-0.18,40.01-0.22,49.71c-0.01,1.19-0.97,2.15-2.16,2.15
		h-13.66c-1.19,0-2.16-0.97-2.16-2.16V29.35c0-1.44,1.38-2.47,2.76-2.07l14.17,4.14c0.65,0.19,1.34,0.05,1.89-0.35
		c4.63-3.31,10.06-4.63,15.21-4.63H263.82z M376.21,26.44c11.14,0,24.79,7.43,24.79,22.86v30.78
		c-0.02,15.43-13.65,22.86-24.79,22.86H324.9c-11.14,0-25.01-7.43-25.01-22.86V49.31c0.01-15.43,13.87-22.86,25.01-22.86H376.21z
		 M327.14,41.26c-7.56,0-9.32,4.63-9.32,8.05v30.78c0,3.41,1.77,8.05,9.32,8.05h46.82c7.56,0,9.11-4.63,9.11-8.05V49.31
		c0-3.41-1.55-8.05-9.11-8.05H327.14z M463.54,26.44c5.72,0,11.79,1.62,16.71,5.79c0.74,0.63,1.44,1.31,2.09,2.05
		c0.85,0.96,2.35,0.96,3.2,0c0.65-0.74,1.35-1.43,2.09-2.05c4.92-4.17,10.99-5.79,16.71-5.79h16.6c5.72,0,11.79,1.62,16.71,5.79
		c3.56,3.02,6.19,7.44,7.39,12.62c0.45,1.97,0.6,4.16,0.72,6.25c0.36,6.26,0.23,39.74,0.1,49.64c-0.01,1.18-0.98,2.13-2.16,2.13
		h-13.75c-1.19,0-2.16-0.97-2.16-2.16v-49.7c-0.05-5.39-1.1-6.45-2.56-7.69c-1.46-1.24-3.88-2.06-6.54-2.06h-21.08
		c-2.67,0-5.08,0.82-6.55,2.06c-1.46,1.24-2.5,2.3-2.56,7.69v49.7c0,1.19-0.97,2.16-2.16,2.16h-13.81c-1.19,0-2.16-0.97-2.16-2.16
		v-49.7c-0.06-5.39-1.1-6.45-2.57-7.69c-1.46-1.24-3.87-2.06-6.54-2.06h-20.98c-2.67,0-5.08,0.82-6.55,2.06
		c-1.46,1.24-2.49,2.3-2.56,7.69c-0.01,0.73-0.18,40.01-0.22,49.71c-0.01,1.19-0.97,2.15-2.16,2.15h-13.65
		c-1.19,0-2.16-0.97-2.16-2.16V29.35c0-1.44,1.38-2.47,2.76-2.07l14.17,4.14c0.65,0.19,1.34,0.05,1.89-0.35
		c4.63-3.31,10.06-4.63,15.21-4.63H463.54z"/>
</g>
</svg>
