<?xml version="1.0" encoding="utf-8"?>
<!-- Generator: Adobe Illustrator 26.0.1, SVG Export Plug-In . SVG Version: 6.00 Build 0)  -->
<svg version="1.1" id="Layer_1" xmlns="http://www.w3.org/2000/svg" xmlns:xlink="http://www.w3.org/1999/xlink" x="0px" y="0px"
	 viewBox="0 0 1080 1080" style="enable-background:new 0 0 1080 1080;" xml:space="preserve">
<style type="text/css">
	.st0{fill:#FE5F3F;}
</style>
<g>
	<g>
		<path class="st0" d="M112.57,720.28c1.7,5.04,2.34,8.01,3.64,10.67c79.82,163.05,209.92,254.11,390.56,273.1
			c10.52,1.11,14.91-2.51,17.95-12.25c13.29-42.62,27.23-85.04,41-127.52c15.38-47.45,30.84-94.88,46.8-144
			C445.1,720.28,279.89,720.28,112.57,720.28z"/>
		<path class="st0" d="M350.19,360.03c8.16,25.06,16.29,50.14,25.37,78.12C511.35,339.5,645.04,242.39,780.61,143.9
			c-148.43-92.72-342.78-90.1-488.83,3.46c-9.48,6.07-6.96,12.26-4.47,19.86C308.31,231.48,329.25,295.75,350.19,360.03z"/>
		<path class="st0" d="M827.07,177.25c-79.78,57.99-159.76,116.12-240.89,175.1c135.5,98.44,269.26,195.62,404.81,294.1
			C1034.82,478.19,968.12,281.19,827.07,177.25z"/>
		<path class="st0" d="M578.4,1001.2c178.54-7.04,349.13-147.61,394.78-300.57c-79.41-57.68-159.01-115.5-240.37-174.6
			C681.12,685.08,630.07,842.19,578.4,1001.2z"/>
		<path class="st0" d="M391.49,663.24c-51.65-158.92-102.65-315.81-154.02-473.86c-3.6,2.43-5.77,3.5-7.44,5.08
			C97.59,320.04,50.41,472,88.37,650.63c2.71,12.75,9.17,14.44,20.12,14.4c88.83-0.29,177.67-0.14,266.5-0.23
			C380.01,664.8,385.03,663.88,391.49,663.24z"/>
	</g>
</g>
</svg>
