<?xml version="1.0" encoding="utf-8"?>
<!-- Generator: Adobe Illustrator 26.0.1, SVG Export Plug-In . SVG Version: 6.00 Build 0)  -->
<svg version="1.1" id="Layer_1" xmlns="http://www.w3.org/2000/svg" xmlns:xlink="http://www.w3.org/1999/xlink" x="0px" y="0px"
	 viewBox="0 0 1080 1080" style="enable-background:new 0 0 1080 1080;" xml:space="preserve">
<style type="text/css">
	.st0{fill:#FE5F3F;}
</style>
<g>
	<path class="st0" d="M1004.15,879.12c-0.08-14.24-8.1-20.59-21.97-20.44c-10.56,0.11-21.12,0.02-32.41,0.02
		c0-81.54-0.22-160.06,0.54-238.57c0.05-4.83,6.9-11.3,12.14-14.08c26.39-14.02,41.19-35.48,41.5-65.19
		c0.32-30.49-13.94-53.68-41.89-66.26c-10.23-4.61-12.56-10.09-12.5-20.24c0.38-66.45,0.19-132.91,0.19-199.36
		c0-10.69,0-21.38,0-33.71c12.23,0,22.36-0.08,32.48,0.02c13.9,0.14,21.85-6.28,21.92-20.5c0.18-35.04,0.25-70.08-0.06-105.12
		c-0.12-13.15-7.75-19.81-20.78-19.85c-34.44-0.11-68.87-0.07-103.31-0.03c-14.02,0.02-21.23,7.03-21.24,21.18
		c-0.01,10.66,0,21.33,0,32.41c-84.33,0-166.27,0-247.94,0c-11.84-32.08-33.36-51.74-67.2-53.21c-37.96-1.65-61.79,19.3-74.55,52.73
		c-83.04,0-164.86,0-247.79,0c0-11.57,0.01-21.77,0-31.96c-0.01-14.17-7.3-21.12-21.28-21.14c-34.44-0.05-68.87-0.08-103.31,0.03
		c-13.03,0.04-20.63,6.72-20.74,19.88c-0.3,35.04-0.23,70.08-0.06,105.12c0.07,14.25,8.06,20.61,21.94,20.47
		c10.57-0.1,21.14-0.02,32.45-0.02c0,81.5,0.15,160.02-0.39,238.53c-0.03,4.29-4.83,10.48-9,12.5
		c-28.18,13.63-44.46,35.42-44.79,66.77c-0.34,32.14,15.91,54.56,44.79,68.57c4.17,2.02,8.97,8.21,9,12.5
		c0.54,78.51,0.39,157.03,0.39,238.54c-11.56,0-21.1,0.28-30.62-0.06c-16.87-0.6-24.15,7.45-23.97,24.12
		c0.35,32.62,0.25,65.25,0.04,97.87c-0.1,15.61,6.76,23.68,22.76,23.63c33.83-0.11,67.66-0.01,101.49-0.06
		c13.97-0.02,21.28-6.96,21.3-21.13c0.01-10.67,0-21.33,0-32.46c84.31,0,166.25,0,247.93,0c11.86,32.04,33.37,51.73,67.2,53.21
		c37.96,1.66,61.78-19.3,74.55-52.72c83.05,0,164.87,0,247.81,0c0,11.56-0.01,21.76,0,31.96c0.01,14.17,7.29,21.13,21.28,21.15
		c34.44,0.05,68.87,0.09,103.31-0.03c13.03-0.05,20.62-6.77,20.74-19.91C1004.4,949.2,1004.33,914.16,1004.15,879.12z
		 M901.74,606.79c5.05,2.63,10.99,9.76,11.04,14.86c0.69,76.11,0.46,152.23,0.38,228.35c0,2.28-0.7,4.56-0.92,5.89
		c-16.67,2.79-37.3,0.34-46.52,9.44c-9.21,9.1-7,29.77-10.06,46.88c-3.05,0.25-7.68,0.97-12.32,0.97
		c-72.49,0.07-144.99-0.12-217.48,0.24c-10.15,0.05-15.71-2.26-20.33-12.49c-12.58-27.87-35.39-42.24-66.11-42
		c-30.76,0.23-52.08,15.66-66.19,42.74c-2.64,5.06-9.75,11.03-14.84,11.07c-76.11,0.69-152.23,0.46-228.34,0.39
		c-2.28,0-4.56-0.69-5.97-0.91c-2.75-16.63-0.27-37.26-9.36-46.49c-9.08-9.23-29.75-7.05-46.93-10.16c-0.2-1.75-0.93-5.18-0.93-8.62
		c-0.07-74.3,0.07-148.61-0.23-222.91c-0.04-8.84,1.96-13.69,10.87-17.65c28.61-12.71,43.82-35.47,43.59-67
		c-0.24-31.57-16.4-53.07-44.35-67.02c-4.52-2.25-9.48-9.19-9.52-14c-0.58-76.11-0.39-152.23-0.31-228.35c0-2.28,0.7-4.56,0.92-5.92
		c16.65-2.79,37.28-0.33,46.5-9.44c9.22-9.1,7.01-29.76,10.09-46.88c3.03-0.25,7.67-0.97,12.31-0.97
		c72.49-0.07,144.99,0.12,217.48-0.24c10.16-0.05,15.71,2.29,20.34,12.51c12.61,27.84,35.41,42.24,66.14,41.98
		c30.75-0.26,52.07-15.7,66.16-42.78c2.63-5.05,9.77-10.97,14.87-11.02c76.11-0.68,152.23-0.46,228.35-0.38
		c2.28,0,4.56,0.69,5.91,0.91c2.77,16.66,0.3,37.29,9.4,46.52c9.09,9.22,29.76,7.03,46.89,10.12c0.17,1.18,0.94,4.02,0.94,6.87
		c0.07,74.91-0.06,149.82,0.25,224.73c0.04,8.87-2.05,13.65-10.92,17.61c-28.56,12.75-43.79,35.45-43.56,67.02
		C859.19,571.4,874.68,592.68,901.74,606.79z"/>
	<path class="st0" d="M793.66,285.43c-169.11-0.04-338.22-0.04-507.33,0c-24.08,0.01-28.74,4.58-28.75,28.39
		c-0.06,146.16-0.04,292.32,0.03,438.48c0,4.28,0.88,8.55,1.67,15.78c5.83-7.31,9.62-11.9,13.25-16.62
		c54.5-70.82,108.97-141.65,163.45-212.48c18.31-23.8,27.21-23.46,44.69,1.7c11.46,16.5,22.9,33.01,35.28,50.87
		c23.39-37.37,45.11-72.18,66.94-106.91c14.75-23.47,25.86-23.78,41.52-1.06c39.74,57.65,79.35,115.39,119.04,173.08
		c24.92,36.23,49.89,72.42,77.69,112.75c0.84-7.31,1.31-9.52,1.32-11.74c0.04-149.18,0.1-298.36-0.05-447.54
		C822.39,290.07,816.63,285.43,793.66,285.43z M386.43,467.15c-29.99,0.7-55.95-24.77-55.8-54.77c0.15-29.65,24.53-53.86,54.4-53.99
		c30.27-0.13,54.05,23.27,54.35,53.5C439.68,442.13,416.38,466.45,386.43,467.15z"/>
	<path class="st0" d="M286.07,793.5c109.88,0,215.85,0,325.46,0c-52.13-75.3-102.57-148.16-154.21-222.74
		C399.52,645.95,343.54,718.76,286.07,793.5z"/>
	<path class="st0" d="M544.35,615.51c-2.65,4.5-1.61,14.02,1.52,18.65c34.08,50.46,68.84,100.47,103.71,150.39
		c2.84,4.07,7.82,9.38,11.89,9.44c43.08,0.69,86.18,0.43,132.73,0.43c-64.14-93.28-126.11-183.4-189.71-275.9
		C582.92,552.98,563.02,583.88,544.35,615.51z"/>
	<circle class="st0" cx="385" cy="412.78" r="22.8"/>
</g>
</svg>
