<?xml version="1.0" encoding="utf-8"?>
<!-- Generator: Adobe Illustrator 26.0.1, SVG Export Plug-In . SVG Version: 6.00 Build 0)  -->
<svg version="1.1" id="Layer_1" xmlns="http://www.w3.org/2000/svg" xmlns:xlink="http://www.w3.org/1999/xlink" x="0px" y="0px"
	 viewBox="0 0 1080 1080" style="enable-background:new 0 0 1080 1080;" xml:space="preserve">
<style type="text/css">
	.st0{fill:#FE5F3F;}
</style>
<g>
	<path class="st0" d="M955.71,709.78c0-151.2,0.02-302.41-0.02-453.61c-0.01-36.76-9.03-45.67-46.14-45.67
		c-246.31-0.02-492.61-0.02-738.91,0c-37,0-46.05,8.98-46.06,45.76c-0.04,151.2-0.02,302.41-0.02,453.61c0,6.71,0,13.42,0,21.35
		c278.7,0,554.09,0,831.15,0C955.71,723.23,955.71,716.51,955.71,709.78z M750.68,504.12c-0.44,25.43-9.49,34.45-34.64,35
		c-7.88,0.17-15.77,0.03-30.04,0.03c8.17,10.93,12.11,17.4,17.2,22.79c20.68,21.87,20.67,33.67-0.88,55.4
		c-10.12,10.2-20.12,20.52-30.53,30.42c-16.52,15.69-29.87,15.63-46.35,0.25c-2.5-2.33-4.57-5.23-7.35-7.13
		c-4.75-3.25-9.9-5.92-14.88-8.83c-1.79,5.38-4.95,10.71-5.15,16.14c-1.43,38.72-6.16,43.59-44.39,43.62
		c-13,0.01-26.01,0.24-39-0.07c-22.53-0.53-31.6-9.96-32.17-32.97c-0.12-4.79,0.62-9.7-0.23-14.33c-0.78-4.23-3.18-8.17-4.87-12.23
		c-4.03,1.81-8.62,2.93-11.96,5.59c-6.39,5.09-11.45,11.98-18.17,16.48c-12.33,8.26-24.81,6.72-35.53-3.48
		c-12.88-12.25-25.5-24.81-37.84-37.61c-16.15-16.74-15.84-30.92,0.11-48.11c6.02-6.48,11.54-13.42,17.29-20.15
		c-0.95-1.93-1.9-3.86-2.86-5.78c-8.5,0-17.01,0.2-25.51-0.04c-23.07-0.66-32.68-9.7-33.33-32.15c-0.49-17.09-0.45-34.22-0.02-51.31
		c0.59-23.27,9.21-31.44,32.85-32.11c4.79-0.14,9.71,0.64,14.33-0.26c4.2-0.82,10.51-2.56,11.42-5.35
		c1.03-3.15-2.26-8.44-4.88-11.88c-3.7-4.85-8.73-8.66-12.8-13.27c-11.87-13.44-11.67-27.41,0.21-40.38
		c12.01-13.1,24.75-25.56,37.6-37.86c17.36-16.61,29.99-16.2,47.86,0.36c6.45,5.98,13.43,11.39,20.17,17.07
		c2.05-0.9,4.1-1.79,6.14-2.69c0-9.17-0.23-18.35,0.05-27.51c0.66-21.41,9.96-31.13,31.55-31.9c17.08-0.61,34.22-0.55,51.31-0.03
		c22.75,0.7,31.85,10.29,32.39,33.13c0.2,8.58,0.03,17.18,0.03,25.77c1.93,1.14,3.86,2.28,5.79,3.41
		c6.68-5.52,13.67-10.72,19.99-16.63c18.79-17.55,30.9-17.82,49.25-0.12c11.33,10.92,22.48,22.04,33.37,33.39
		c16.43,17.14,16.3,30.6-0.02,47.81c-3.29,3.47-7.38,6.39-9.92,10.33c-2.29,3.54-4.25,8.29-3.76,12.19
		c0.23,1.84,6.42,3.68,10.09,4.17c5.38,0.72,10.93,0.06,16.4,0.27c22.28,0.83,30.91,9.13,31.58,31.31
		C751.1,471.26,750.97,487.7,750.68,504.12z"/>
	<path class="st0" d="M999.52,765.23c-91.8,0-180.71,0-269.63,0c-49.57,0-50.14-0.21-67.52,46.6c-5.95,16.02-14.88,22.23-31.9,21.94
		c-48.55-0.83-97.13,0.05-145.7-0.37c-71.1-0.62-53.6,8.75-77.76-52.38c-4.83-12.21-10.71-16.17-23.7-16.09
		c-95.08,0.57-190.17,0.31-285.25,0.31c-5.28,0-10.56,0-15.47,0c-11.17,65.6,11.93,105.1,85.03,104.28
		c221.61-2.48,443.26-0.89,664.89-0.9c34.89,0,69.78,0.44,104.66-0.23c32.44-0.62,58.46-23.23,62.05-54.46
		C1000.97,798.56,999.52,782.84,999.52,765.23z M264.75,832.56c-35.45,1.64-71.05,1.64-106.49-0.01
		c-6.51-0.3-12.54-10.78-18.79-16.56c6.25-5.01,12.11-13.6,18.83-14.34c18.22-2.01,36.81-0.69,55.26-0.69
		c17.08,0,34.33-1.39,51.15,0.69c6.73,0.83,12.51,9.32,18.72,14.33C277.22,821.76,271.22,832.26,264.75,832.56z M352.41,817.7
		c-1.41,7.5-12.76,13.14-23.64,23.4c-10.06-10.53-21.06-16.7-21.94-24.08c-1.94-16.24,12.36-15.93,24.09-16.14
		C342.87,800.67,355.03,803.81,352.41,817.7z M750.76,833.43c-11.58,0.18-24.62-1.96-22.87-15.76c0.97-7.7,12.66-14.05,23.79-25.34
		c10.39,11.54,20.85,17.83,21.75,25.27C775.18,832.13,762.06,833.26,750.76,833.43z M921.13,832.63
		c-34.76,1.63-69.68,1.62-104.45,0.04c-6.85-0.31-13.26-10.09-19.88-15.51c6.5-5.41,12.51-14.56,19.59-15.48
		c17.47-2.26,35.43-0.74,53.19-0.74c17.08-0.01,34.37-1.56,51.14,0.71c7.27,0.99,13.46,9.87,20.14,15.17
		C934.29,822.34,927.94,832.32,921.13,832.63z"/>
	<path class="st0" d="M476.78,800.84c42.27,0,84.54,0,126.82,0c31.21,0,31.21-0.01,38.16-34.52c-67.83,0-135.46,0-203.32,0
		C445.67,800.83,445.67,800.84,476.78,800.84z"/>
	<path class="st0" d="M656.15,423.14c-8.64-28.83,19.31-32.81,25.41-49.59c-11.74-11.04-23.43-22.02-34.82-32.73
		c-15.89,5.37-19.67,32.02-45.96,25.04c-33.6-8.92-41.28-30.76-34.79-62.3c-18.14,0-33.46,0-49.08,0
		c-5.99,20.87,7.06,44.8-25.52,58.25c-33.11,13.68-41.64-12.11-58.25-22.44c-12.51,11.41-24.07,21.96-35.8,32.66
		c11.32,18.6,36.92,26.33,24.39,58.71c-12.69,32.78-37.28,22.25-57.94,26.64c0,17.07,0,32.33,0,48.15
		c22.35,3.39,45.19-6.42,57.93,25.81c12.79,32.38-13.43,40.17-22.94,57.03c11.15,12.22,21.61,23.68,32.34,35.44
		c18.75-10.68,25.82-37.11,58.66-24.4c33.48,12.96,22.06,37.23,26.65,58.44c16.44,0,31.76,0,47.9,0c3.58-21.78-6.3-44.4,25.22-57.97
		c33.12-14.26,40.88,13.95,56.05,21.5c12.9-12.01,24.19-22.51,36.23-33.72c-12.49-16.38-34.49-26.2-22.56-57.71
		c12.54-33.12,37.74-18.64,57.47-25.4c0-16,0-31.31,0-48.76C687.86,459.55,666.03,456.13,656.15,423.14z M538.84,580.15
		c-53.73-0.77-97.33-45.04-97.4-98.88c-0.07-55.27,43.69-98.95,99-98.8c55.27,0.14,98.7,43.99,98.41,99.36
		C638.55,536.4,593.26,580.93,538.84,580.15z"/>
	<path class="st0" d="M540.16,415.12c-36.31-0.02-65.37,28.31-66.01,64.36c-0.66,36.95,28.36,67.31,64.95,67.95
		c36.5,0.65,66.81-29.14,67.03-65.87C606.35,444.32,577.38,415.13,540.16,415.12z"/>
</g>
</svg>
