<?xml version="1.0" encoding="utf-8"?>
<!-- Generator: Adobe Illustrator 26.0.1, SVG Export Plug-In . SVG Version: 6.00 Build 0)  -->
<svg version="1.1" id="Layer_1" xmlns="http://www.w3.org/2000/svg" xmlns:xlink="http://www.w3.org/1999/xlink" x="0px" y="0px"
	 viewBox="0 0 1080 1080" style="enable-background:new 0 0 1080 1080;" xml:space="preserve">
<style type="text/css">
	.st0{fill:#FE5F3F;}
</style>
<g>
	<path class="st0" d="M171.65,596.19c0,108.32-0.01,216.65,0.01,324.97c0.01,28.3,2.59,30.77,31.64,30.77
		c232.13,0,464.25,0,696.38,0c28.18,0,31.53-3.28,31.53-31.16c0.02-107.79,0.01-215.58,0.01-323.36c0-5.81,0-11.62,0-18.72
		c-254.51,0-506.59,0-759.58,0C171.65,585.53,171.65,590.86,171.65,596.19z M306.4,684.21c2.73-7.54,12.45-13.02,20.01-18.09
		c3.01-2.02,8.35-0.66,12.63-0.66c141.42-0.02,282.83-0.02,424.25-0.01c3.21,0,6.45-0.17,9.64,0.11
		c15.25,1.35,25.05,11.71,24.89,26.14c-0.16,14.44-10.11,24.72-25.57,25.22c-16.05,0.52-32.14,0.16-48.21,0.16
		c-57.85,0.01-115.7,0-173.56,0c-71.24,0-142.49,0.26-213.73-0.35c-8.39-0.07-19.15-2.61-24.43-8.17
		C307.13,703.08,303.93,691.02,306.4,684.21z M328.85,811.86c4.23-0.5,8.56-0.28,12.84-0.28c139.78-0.01,279.57-0.02,419.36,0.03
		c5.34,0,10.81-0.14,15.98,0.93c13.19,2.74,20.59,11.17,20.7,24.76c0.11,13.53-6.9,22.31-20.16,25.15
		c-5.68,1.22-11.69,1.15-17.56,1.16c-69.09,0.07-138.18,0.05-207.27,0.05c-69.63,0-139.25,0.01-208.87-0.02
		c-5.35,0-10.76,0.19-16.03-0.55c-14.58-2.05-23.47-12.26-23.23-26.03C304.85,823.55,314.31,813.57,328.85,811.86z"/>
	<path class="st0" d="M339.45,524.58c4.35-0.05,10.07-5.4,12.7-9.77c14.66-24.32,28.61-49.07,42.7-73.73
		c4.62-8.08,8.91-16.34,14.53-26.68c-76.9,0-150.63,0-224.36,0c-0.13-0.79-0.25-1.57-0.38-2.36c4.95-1.35,9.89-2.79,14.87-4.03
		c43.11-10.77,86.18-21.74,129.4-32.07c8.9-2.13,13.43-5.9,15.87-15.09c8.39-31.56,17.88-62.83,26.84-94.25
		c1.36-4.79,2.09-9.76,3.44-16.16c-68.66,17.2-135.11,33.84-201.55,50.49c-25.37,6.36-28.82,10.81-21.22,35.85
		c15.72,51.8,23.05,104.42,19.46,158.52c-0.62,9.4-0.09,18.88-0.09,29.7C229.19,525.02,284.33,525.24,339.45,524.58z"/>
	<path class="st0" d="M588.37,311.77c23.3-5.05,35.28-14.56,39.94-38.72c5.79-30.11,16.29-59.31,24.75-88.9
		c-2.77-0.86-3.85-1.6-4.69-1.39c-69.08,17.04-138.15,34.08-207.13,51.5c-3.34,0.84-7.47,4.63-8.44,7.88
		c-11.13,37.33-21.71,74.81-33.25,115.09c7.08-1.34,10.69-1.85,14.21-2.73C471.93,340.09,529.83,324.45,588.37,311.77z"/>
	<path class="st0" d="M476.1,414.9c-3.05,0.01-7.43,2.35-8.94,4.93c-19.95,34-39.5,68.25-59.49,103.01c3.1,1.06,4.51,1.96,5.92,1.96
		c70.17,0.13,140.34,0.28,210.52,0c4.04-0.02,9.92-2.54,11.82-5.75c19.89-33.5,39.14-67.37,60.42-104.36
		C620.5,414.69,548.3,414.63,476.1,414.9z"/>
	<path class="st0" d="M903.05,208.89c-5.27-21.27-10.64-42.51-15.94-63.77c-3.46-13.88-11.6-19.63-26.05-15.98
		c-46.1,11.64-92.29,22.89-138.33,34.75c-4.52,1.17-10.79,4.71-11.92,8.46c-11.45,37.7-21.99,75.67-33.61,116.49
		c72.76-18.1,142.19-35.32,211.59-52.66C903.54,232.49,906.33,222.15,903.05,208.89z"/>
	<path class="st0" d="M766.25,414.92c-4.5,0.04-11.08,2.44-13.12,5.87c-19.94,33.41-39.12,67.28-60.37,104.25
		c78.31,0,153.17-0.09,228.03,0.12c8.97,0.02,10.57-4.42,10.5-11.99c-0.24-25.69-0.03-51.39-0.15-77.08
		c-0.07-14.46-7.47-21.48-22.01-21.45C861.5,414.73,813.87,414.51,766.25,414.92z"/>
</g>
</svg>
