<?xml version="1.0" encoding="utf-8"?>
<!-- Generator: Adobe Illustrator 26.0.1, SVG Export Plug-In . SVG Version: 6.00 Build 0)  -->
<svg version="1.1" id="Layer_1" xmlns="http://www.w3.org/2000/svg" xmlns:xlink="http://www.w3.org/1999/xlink" x="0px" y="0px"
	 viewBox="0 0 1080 1080" style="enable-background:new 0 0 1080 1080;" xml:space="preserve">
<style type="text/css">
	.st0{fill:#FE5F3F;}
</style>
<g>
	<path class="st0" d="M869.37,778.12c0.02-106.82,0.02-213.63,0-320.45c0-31.69-8.75-40.51-40.42-40.52
		c-101.56-0.04-203.13-0.02-304.69-0.02c-5.17,0-10.33,0-13.76,0c1.69,17.93,3.27,34.66,5,52.98c3.28,0,9.62,0,15.96,0
		c89.31,0,178.61-0.04,267.92,0.02c35.03,0.02,49.76,14.84,49.81,50.14c0.09,66.54,0.08,133.08,0,199.62
		c-0.04,36.18-14.69,50.66-51.16,50.68c-91.64,0.05-183.28,0.05-274.92,0c-36.81-0.02-52.02-15.21-52.06-52.07
		c-0.07-63.04-0.02-126.08-0.02-189.12c0-5.98,0-11.95,0-15.05c-14.27-0.73-26.15,0.79-36.67-2.31
		c-23.24-6.85-42.92,0.39-53.28,22.4c-6.83,14.5-17.89,24.22-34.06,22.78c-25.9-2.3-56.14,11.6-75.44-18.27
		c-0.32-0.49-0.7-1.01-0.79-1.55c-2.79-16.18-15-21.61-28.63-26.63c-19.83-7.3-30.79-0.3-30.79,21.13c-0.02,82.3-0.03,164.6,0,246.9
		c0.01,21.78,0.37,22.17,22.91,22.17c204.29,0.03,408.59,0.03,612.88-0.01C869.07,800.97,869.37,800.57,869.37,778.12z"/>
	<path class="st0" d="M120.43,339.96c2.03,6.24,6.24,15.14,11.19,16.44c17.39,4.56,26.15,15.06,29.81,31.82
		c1.22,5.57,3.76,11.23,7.05,15.89c6.63,9.39,5.38,17.98,0.51,27.6c-3.02,5.96-7.67,15.78-5.21,19
		c9.81,12.85,20.93,25.53,34.13,34.52c4.85,3.3,16.8-3.71,25.47-6.18c2.77-0.79,5.41-2.07,8.38-3.23
		c13.91,5.73,28.16,10.8,41.58,17.51c5.96,2.98,13.23,8.5,14.75,14.24c4.99,18.83,16.13,25.13,34.46,22.36
		c5.71-0.86,12.12,1.26,17.37-0.5c6.28-2.11,15.65-6,16.72-10.71c4.27-18.68,16.39-26.48,33.3-30.65c6.11-1.51,11.49-6.2,17.61-7.48
		c6.77-1.42,15.66-3.34,20.73-0.27c16.95,10.27,29.13,6.21,40.18-8.49c3.47-4.62,9.71-7.65,11.89-12.63
		c2.83-6.46,6.14-15.83,3.48-20.97c-7.51-14.49-7.59-26.97,1.16-40.64c4-6.25,4.82-14.51,8.7-20.87c3.56-5.83,8.5-13.37,14.21-14.85
		c18.94-4.91,25.1-16.07,22.4-34.42c-0.92-6.28,1.25-13.25-0.56-19.11c-1.77-5.74-5.99-13.96-10.56-15.04
		c-18.43-4.33-26.7-16.12-30.69-33.24c-1.43-6.12-6.18-11.49-7.47-17.6c-1.43-6.76-3.37-15.66-0.3-20.72
		c10.29-16.94,6.34-29.14-8.45-40.19c-4.63-3.46-8.68-7.86-12.39-12.32c-6.24-7.51-13.37-9.22-21.39-3.69
		c-13.66,9.4-26.57,8.3-40.24-0.43c-6.24-3.99-14.52-4.75-20.9-8.59c-5.86-3.53-13.42-8.42-14.98-14.14
		c-5.03-18.42-15.27-26-34.11-22.86c-5.68,0.95-12.22-1.39-17.34,0.53c-6.64,2.49-16.18,6.7-17.57,11.98
		c-4.45,16.92-14.77,24.88-30.73,28.69c-6.68,1.6-12.58,6.45-19.26,8.04c-6.69,1.59-15.53,3.74-20.6,0.8
		c-17.39-10.09-30.19-7.15-41.46,8.9c-3.63,5.18-10.09,8.54-13.1,13.94c-2.64,4.73-5.02,12.85-2.75,16.52
		c10.23,16.54,8.24,31.37-1.89,46.8c-3.11,4.73-3.14,11.51-6.31,16.17c-4.17,6.13-9.16,14.13-15.38,15.97
		c-17.55,5.2-25.13,14.72-22.01,33.03C120.92,327.1,118.55,334.16,120.43,339.96z M324.84,208.74
		c63.54-0.23,115.94,51.57,116.56,115.23c0.62,63.18-51.3,116.02-114.95,117.01c-63.83,1-117.26-51.99-117.25-116.27
		C209.22,261.02,261.11,208.98,324.84,208.74z"/>
	<path class="st0" d="M941.8,848.85c-26.82,0.39-53.66,0.11-80.49,0.11c-54.76,0-109.51,0-167.39,0c0,14.87,0.23,27.59-0.05,40.31
		c-0.58,26.19-14.02,40.57-39.86,40.7c-75.82,0.39-151.65,0.39-227.47-0.01c-25.74-0.14-39.09-14.59-39.65-40.92
		c-0.27-12.67-0.05-25.36-0.05-40.07c-13.4,0-24.92,0-36.43,0c-69.99,0-139.98-0.02-209.97,0.03c-8.78,0.01-19.39-0.88-19.89,11.44
		c-0.89,22.44-0.25,44.95-0.25,67.3c20.21,3.54,38.04,6.42,55.77,9.82c75.61,14.5,151.2,25.28,228.88,23.46
		c114.84-2.7,229.79-0.57,344.69-0.85c15.06-0.04,30.3-1.11,45.15-3.57c55-9.12,109.86-19.02,165.83-28.8
		c0-21.13-0.53-40.9,0.18-60.63C961.31,853.08,954.77,848.66,941.8,848.85z"/>
	<path class="st0" d="M547.08,742.72c83.97,0.02,167.94-0.25,251.91,0.22c16.59,0.09,23.5-6.03,22.55-22.68
		c-0.83-14.53-0.17-29.15-0.17-43.72c0-32.49,0-64.97,0-98.45c-107.91,0-213.78,0-322.47,0c0,40.1,0.05,78.47-0.01,116.84
		C498.8,747.7,495.07,742.71,547.08,742.72z M751.58,704.05c-60.56-0.02-121.13,0.4-181.68-0.61c-6.34-0.11-17.04-7.86-17.88-13.28
		c-1.87-12.06,8.73-14.07,18.95-14.02c29.7,0.14,59.4,0.05,89.1,0.05c30.28,0.01,60.56,0.13,90.84-0.06
		c9.79-0.06,18.3,2.09,18.47,13.43C769.54,700.59,761.54,704.06,751.58,704.05z M750.41,658.75c-59.99-0.1-119.98-0.08-179.96-0.02
		c-10.44,0.01-20.59-3.04-18.44-14.77c0.98-5.32,11.79-12.24,18.41-12.54c30.23-1.34,60.54-0.59,90.83-0.59
		c29.7,0,59.41,0.14,89.11-0.08c9.67-0.07,18.56,1.65,19,12.93C769.82,655.81,761.01,658.77,750.41,658.75z M572.2,585.37
		c58.83,0.12,117.66,0.12,176.49,0c9.95-0.02,20.16,0.56,20.61,13.08c0.49,13.54-9.88,14.99-20.7,14.93
		c-29.12-0.17-58.25-0.06-87.37-0.06c-29.71,0-59.41-0.09-89.12,0.05c-10.81,0.05-21.26-1.51-20.67-14.98
		C551.98,586.06,562.25,585.35,572.2,585.37z"/>
	<path class="st0" d="M790.72,498.01c-83.44,0-166.88,0-250.31,0c-43.85,0-46.83,3.65-39.59,49.97c105.71,0,211.62,0,320.56,0
		c0-6.87-0.02-12.62,0-18.38C821.47,498.02,821.47,498.01,790.72,498.01z"/>
	<path class="st0" d="M540.76,389.23c95.65,0,191.31-0.02,286.96,0.01c48.55,0.02,69.54,20.78,69.55,68.71
		c0.01,103.82,0.25,207.64-0.25,311.46c-0.08,16.88-3.49,33.75-5.48,51.7c2.25,0,7.44,0.11,12.63-0.04
		c3.36-0.09,6.72-0.55,11.15-0.94c0.32-6.42,0.86-12.12,0.86-17.81c0.05-129.48,0.06-258.96,0.02-388.45
		c-0.01-35.8-11.22-47.08-47-47.11c-95.07-0.08-190.16,1.05-285.2-0.76c-24.62-0.47-42.06,9.76-64.42,23.23
		C529.39,389.23,535.07,389.23,540.76,389.23z"/>
	<path class="st0" d="M460.12,902.33c4.09,0,8.17,0,12.26,0c58.36,0,116.72,0.31,175.07-0.48c6.19-0.08,16.77-5.91,17.59-10.46
		c2.38-13.3,0.85-27.3,0.85-41.53c-84.65,0-166.7,0-249.84,0C410.72,902.33,410.72,902.33,460.12,902.33z"/>
	<path class="st0" d="M165.63,498.51c0,107.78,0,214.31,0,321.72c9.51,0,18.01,0,24.02,0c-2.23-15.28-5.82-28.72-5.9-42.19
		c-0.52-83.99-0.56-167.99,0.03-251.98C183.87,511.8,178.34,503.97,165.63,498.51z"/>
	<path class="st0" d="M324.31,372.09c1.17,3.81,10.42,7.79,15.23,7.06c4.74-0.72,8.58-7.33,12.19-10.76
		c-9.27-33.53-17.35-64.47-26.91-94.96c-1.13-3.59-11.23-7.42-15.62-6.08c-4.35,1.33-10.35,9.91-9.42,13.86
		C306.92,311.76,315.11,342.1,324.31,372.09z"/>
	<path class="st0" d="M380.49,324.69c-7.82,6.88-15.41,11.29-19.47,17.87c-3.19,5.17-2.01,13.04-2.77,19.71
		c6.74,0.4,15.21,3.57,19.86,0.65c11.67-7.33,21.75-17.26,32.19-26.46c7.92-6.98,8.87-15.15,0.88-22.47
		c-10.68-9.79-21.36-19.91-33.49-27.61c-4.48-2.85-13.06,0.76-19.77,1.42c1.01,6.65,0.17,14.47,3.48,19.65
		C365.58,313.96,373.15,318.32,380.49,324.69z"/>
	<path class="st0" d="M272.06,363.13c4.5,2.87,13.05-0.6,19.76-1.18c-0.92-6.66,0.02-14.5-3.24-19.7
		c-4.11-6.55-11.65-10.96-19.11-17.53c7.59-6.62,15.2-10.99,19.29-17.56c3.22-5.17,2.09-13.04,2.89-19.72
		c-6.74-0.46-15.3-3.76-19.86-0.83c-12.09,7.76-23.57,17.24-32.93,28.08c-3.5,4.06-3.36,16.31,0.21,20.42
		C248.45,345.94,259.95,355.41,272.06,363.13z"/>
</g>
</svg>
