<?xml version="1.0" encoding="utf-8"?>
<!-- Generator: Adobe Illustrator 25.4.1, SVG Export Plug-In . SVG Version: 6.00 Build 0)  -->
<svg version="1.1" id="Layer_1" xmlns="http://www.w3.org/2000/svg" xmlns:xlink="http://www.w3.org/1999/xlink" x="0px" y="0px"
	 viewBox="0 0 1080 242.04" style="enable-background:new 0 0 1080 242.04;" xml:space="preserve">
<style type="text/css">
	.st0{fill:#0D0F1A;}
	.st1{fill:url(#SVGID_1_);}
	.st2{fill:#00F0FF;}
	.st3{fill:#C400FF;}
	.st4{fill:#20FF00;}
	.st5{fill:#1EC900;}
	.st6{fill:#262624;}
	.st7{fill:#D97757;}
	.st8{fill:#C2C0B6;}
	.st9{fill:url(#SVGID_00000023245303401301521790000002212327506093673896_);}
	.st10{fill:#FFFFFF;}
	.st11{fill:url(#SVGID_00000128445547297302046630000001946365552065840557_);}
	.st12{fill:url(#SVGID_00000127763556745672526130000005408658619544241284_);}
	.st13{fill:url(#SVGID_00000072959550327327028680000007224378914230535072_);}
	.st14{fill:url(#SVGID_00000041256940216613335430000008283720875493002657_);}
	.st15{fill:url(#SVGID_00000028301258780200069870000014705980332426619830_);}
	.st16{fill:url(#SVGID_00000147941889917503774470000005062684654430025622_);}
	.st17{fill:url(#SVGID_00000011715728508105889370000011277209967621331332_);}
	.st18{fill:url(#SVGID_00000178177565930741525750000006538052828524355971_);}
	.st19{fill:url(#SVGID_00000145032222232585387220000002853939291882217088_);}
</style>
<g>
	<path class="st4" d="M181.39,111.76l48.32,0.37l66.69,67.75l-48.32-0.38l36.63,37.2h-73.75l-37.17-37.77h-0.01l-65.14-66.19v65.67
		v2.65v35.64l-82.26-82.26V25.34H96.3l12.33,12.52L181.39,111.76z M312.88,112.78l-1.81-1.82l-84.29-85.62h-82.52l85.44,86.79
		l81.37,0.64L312.88,112.78z"/>
	<path class="st4" d="M621.03,120.52v1h0.99L621.03,120.52z"/>
	<polygon class="st4" points="1008.18,176.03 1042.64,211.03 973.26,211.03 938.29,175.5 938.28,175.5 877.01,113.23 877.01,211.03 
		808.38,211.03 773.42,175.5 773.41,175.5 712.12,113.23 712.12,211.03 634.74,133.65 634.74,31.02 700.52,31.02 712.12,42.79 
		780.57,112.31 799.62,112.46 799.62,31.02 865.41,31.02 877.01,42.79 945.45,112.31 990.9,112.66 1053.64,176.39 	"/>
	<path class="st4" d="M381.55,28.51v21.71h-35.26v73.61h20.55v89.7h199.23v-21.72h35.27V28.51H381.55z M521.67,158.82h-95.73v-75.6
		h95.73V158.82z"/>
</g>
</svg>
